<ttFont>
          <CharString index="0">
            -107 callgsubr
            endchar
          </CharString>
          <CharString index="1">
            281 -5 rmoveto
            39 -103 callsubr
            -22 24 callgsubr
            2 66 -50 callgsubr
            -35 -33 -9 -68 callsubr
            52 30 50 78 31 hvcurveto
            -1 -24 -1 -21 -11 -97 callsubr
            -122 320 rmoveto
            -74 callgsubr
            return
          </CharString>
          <CharString index="2">
            42 57 111 52 hvcurveto
            11 23 18 -93 callgsubr
            return
          </CharString>
          <CharString index="3">
            -71 callsubr
            191 -8 -13 57 callgsubr
            -38 -78 -140 -134 -64 hvcurveto
            -101 callgsubr
            return
          </CharString>
          <CharString index="4">
            -106 callgsubr
            -39 callsubr
            return
          </CharString>
          <CharString index="5">
            rmoveto
            -1 -43 -31 -20 -27 -13 rrcurveto
            -7 -4 -7 -4 -5 vvcurveto
            -5 4 -4 8 17 41 16 21 28 vhcurveto
            return
          </CharString>
          <CharString index="6">
            -103 callgsubr
            -60 callgsubr
            return
          </CharString>
          <CharString index="7">
            -23 -21 -8 -12 -17 hvcurveto
            -88 -53 -101 -88 -72 38 -89 90 119 56 84 104 9 hvcurveto
            34 13 29 17 22 16 rrcurveto
            11 8 12 12 7 vvcurveto
            5 -2 3 -6 -6 -14 -11 -7 -13 vhcurveto
            -229 -206 rmoveto
            -59 -21 84 51 37 8 69 35 28 hvcurveto
            -7 -15 -4 -17 -18 vvcurveto
            -53 48 -42 62 12 6 1 1 18 vhcurveto
            -61 -5 -26 -65 -67 hhcurveto
            return
          </CharString>
          <CharString index="8">
            66 -5 rmoveto
            39 -103 callsubr
            -22 24 callgsubr
            5 77 8 17 hvcurveto
            10 21 8 51 -70 callsubr
            -46 -46 -8 -5 vhcurveto
            -5 -8 -12 -191 -45 -97 callsubr
            return
          </CharString>
          <CharString index="9">
            211 312 rmoveto
            -1 -4 -1 -38 -3 -54 rrcurveto
            -116 -46 -44 -52 -30 hhcurveto
            -11 -3 -41 callsubr
            4 -31 58 57 42 61 91 41 vhcurveto
            -6 -109 rlineto
            -117 -126 -62 -68 -71 -94 callgsubr
            2 39 4 42 5 43 rrcurveto
            -52 callgsubr
            -47 -44 -9 -1 vhcurveto
            -18 -321 rmoveto
            -53 callgsubr
            return
          </CharString>
          <CharString index="10">
            -89 callgsubr
            21 -6 callgsubr
            return
          </CharString>
          <CharString index="11">
            -91 callsubr
            -67 callgsubr
            vhcurveto
            endchar
          </CharString>
          <CharString index="12">
            rmoveto
            -99 callgsubr
          </CharString>
          <CharString index="13">
            0 callgsubr
            hintmask 10111100
            -95 callgsubr
            hintmask 01111100
            -66 callsubr
            hintmask 10111010
            -77 callgsubr
            return
          </CharString>
          <CharString index="14">
            19 vvcurveto
            4 -1 4 -5 return
          </CharString>
          <CharString index="15">
            -21 callsubr
            -13 callsubr
            4 callgsubr
            vhcurveto
            9 -1 14 8 vvcurveto
            18 1 19 5 29 vhcurveto
            24 4 92 132 11 callsubr
            -52 -11 -93 -27 -97 callsubr
            39 -105 callsubr
            vhcurveto
            return
          </CharString>
          <CharString index="16">
            -90 callgsubr
            144 -8 callgsubr
            return
          </CharString>
          <CharString index="17">
            -57 callgsubr
            2 11 0 1 14 -58 callsubr
            return
          </CharString>
          <CharString index="18">
            -42 callsubr
            hintmask 11001100
            -96 callgsubr
            hintmask 11100100
            -75 callgsubr
            return
          </CharString>
          <CharString index="19">
            rmoveto
            7 3 -8 -8 -5 -3 -7 -4 -3 hvcurveto
            -9 -7 -9 -4 -11 -3 rrcurveto
            30 3 10 15 13 hhcurveto
            return
          </CharString>
          <CharString index="20">
            -40 callsubr
            -61 callsubr
            -8 318 -57 callsubr
            return
          </CharString>
          <CharString index="21">
            169 224 rmoveto
            -45 callsubr
            67 56 121 52 23 hvcurveto
            10 23 19 -18 callgsubr
            -97 -44 -31 -36 -26 hhcurveto
            -55 callsubr
            return
          </CharString>
          <CharString index="22">
            -237 186 rmoveto
            5 14 7 14 6 16 rrcurveto
            109 44 54 104 -54 callsubr
            return
          </CharString>
          <CharString index="23">
            -61 callgsubr
            95 164 12 rcurveline
            -141 1 -41 8 -8 vhcurveto
            return
          </CharString>
          <CharString index="24">
            8 callsubr
            -44 -35 -57 -10 vhcurveto
            -117 -25 -82 -54 -84 -54 callgsubr
            return
          </CharString>
          <CharString index="25">
            -20 hstem
            0 73 vstem
            -99 callsubr
            return
          </CharString>
          <CharString index="26">
            -35 -40 -20 -29 vvcurveto
            -4 4 -4 4 35 63 95 37 24 -15 34 -29 vhcurveto
            return
          </CharString>
          <CharString index="27">
            87 20 53 92 32 hhcurveto
            23 15 -16 -20 -44 -33 -26 -35 -18 hvcurveto
            -37 -18 -5 -8 -9 vvcurveto
            -10 5 -9 8 -13 vhcurveto
            -111 62 33 -58 65 hhcurveto
            26 36 7 21 6 -3 2 -5 hvcurveto
            -8 -6 -3 -13 hhcurveto
            -10 -12 8 4 -4 hvcurveto
            -30 31 -41 62 -36 63 rrcurveto
            -2 3 -1 6 2 vvcurveto
            3 3 2 6 3 vhcurveto
            57 28 39 49 60 vvcurveto
            return
          </CharString>
          <CharString index="28">
            7 rmoveto
            -16 17 -7 9 24 20 23 58 26 vhcurveto
            75 168 82 132 60 146 rrcurveto
            7 17 5 14 8 vvcurveto
            6 -2 4 -6 -18 -15 -18 -14 -6 vhcurveto
            -37 -86 -47 -98 -86 -129 rrcurveto
            -30 -44 -78 -128 -36 vvcurveto
            return
          </CharString>
          <CharString index="29">
            rrcurveto
            -64 -74 -115 -90 -101 -94 callgsubr
            2 45 4 36 64 callsubr
            36 25 -66 callgsubr
            -47 -44 -9 -1 vhcurveto
            return
          </CharString>
          <CharString index="30">
            vvcurveto
            -41 12 -88 callsubr
            return
          </CharString>
          <CharString index="31">
            -20 hstemhm
            6 66 -66 100 95 39 callgsubr
            hintmask 11011000
            -83 callgsubr
            9 -31 58 54 41 55 84 39 vhcurveto
            -2 -29 -1 -25 -13 -82 callgsubr
            -37 callgsubr
            79 4 76 7 18 hvcurveto
            11 20 7 52 -46 callgsubr
            -53 rrcurveto
            -110 -44 -43 -49 -29 hhcurveto
            return
          </CharString>
          <CharString index="32">
            91 48 rmoveto
            -11 -8 -41 callsubr
            9 -31 58 54 41 55 84 39 vhcurveto
            -2 -29 -1 -25 -13 -82 callgsubr
            -37 callgsubr
            79 4 76 7 18 hvcurveto
            11 20 7 52 -46 callgsubr
            -53 rrcurveto
            -110 -44 -43 -49 -29 hhcurveto
            return
          </CharString>
          <CharString index="33">
            -89 callsubr
            39 -62 callsubr
            return
          </CharString>
          <CharString index="34">
            -4 -7 -6 12 callgsubr
            64 8 118 64 vhcurveto
            21 3 123 14 vvcurveto
            103 -121 rmoveto
            -30 -19 11 8 5 12 4 14 19 15 -9 -14 12 hvcurveto
            -3 -8 -7 -2 -8 hhcurveto
            return
          </CharString>
          <CharString index="35">
            19 -5 13 -9 -26 -18 -27 -40 -12 vhcurveto
            -96 -23 -100 -56 -102 vvcurveto
            -20 11 -11 18 20 18 19 34 58 54 42 66 19 vhcurveto
            -15 -111 -3 -108 -5 -107 -4 -87 -4 -33 -24 -42 rrcurveto
            return
          </CharString>
          <CharString index="36">
            396 46 rmoveto
            -10 -3 83 81 -3 hvcurveto
            9 4 6 5 7 vvcurveto
            4 -1 7 -6 vhcurveto
            -9 hlineto
            return
          </CharString>
          <CharString index="37">
            9 -66 callgsubr
            return
          </CharString>
          <CharString index="38">
            40 callsubr
            3 callsubr
            -23 hhcurveto
            return
          </CharString>
          <CharString index="39">
            -7 vhcurveto
            22 -21 -31 -37 callsubr
            51 -41 53 return
          </CharString>
          <CharString index="40">
            -71 callgsubr
            hhcurveto
            return
          </CharString>
          <CharString index="41">
            -43 callsubr
            191 39 171 165 vhcurveto
            62 -4 61 63 vvcurveto
            return
          </CharString>
          <CharString index="42">
            -12 callgsubr
            -19 28 36 -12 38 hhcurveto
            31 48 11 -19 callgsubr
            return
          </CharString>
          <CharString index="43">
            -50 callsubr
            -4 callgsubr
          </CharString>
          <CharString index="44">
            vstem
            -86 callsubr
            29 callgsubr
            -83 105 -3 64 hvcurveto
            return
          </CharString>
          <CharString index="45">
            -106 callgsubr
            3 callsubr
            -22 hhcurveto
            return
          </CharString>
          <CharString index="46">
            -51 callsubr
            -88 -42 -69 -86 -104 hhcurveto
            return
          </CharString>
          <CharString index="47">
            -10 callsubr
            13 callsubr
            hintmask 01011000
            -65 callgsubr
            hintmask 10101000
            74 return
          </CharString>
          <CharString index="48">
            241 26 rmoveto
            -65 callsubr
            return
          </CharString>
          <CharString index="49">
            hvcurveto
            -22 -50 -15 -36 -9 -11 rrcurveto
            -18 -22 -20 -34 -14 vvcurveto
            return
          </CharString>
          <CharString index="50">
            rmoveto
            -15 callsubr
            -27 -27 12 19 -21 hvcurveto
            6 12 14 4 14 hhcurveto
            return
          </CharString>
          <CharString index="51">
            49 callgsubr
            hintmask 11011000
            -88 callgsubr
            hintmask 10111000
            -28 callgsubr
            return
          </CharString>
          <CharString index="52">
            -18 -67 29 12 -55 hvcurveto
            44 55 27 29 45 41 rrcurveto
            48 20 15 21 36 vvcurveto
            20 -4 16 -12 -24 -15 -27 -37 -29 vhcurveto
            -31 -87 5 28 return
          </CharString>
          <CharString index="53">
            15 hhcurveto
            14 1 -176 -80 3 hvcurveto
            -1 -32 -42 0 -75 hhcurveto
            return
          </CharString>
          <CharString index="54">
            -16 21 -9 25 27 vvcurveto
            78 63 65 63 40 21 -35 -26 vhcurveto
            -12 -2 -10 -5 vvcurveto
            return
          </CharString>
          <CharString index="55">
            118 31 rmoveto
            48 63 39 155 19 120 20 -28 25 -40 23 -49 rrcurveto
            -9 -53 -3 -51 -46 vvcurveto
            -37 2 -75 64 44 19 48 43 72 -27 74 -39 84 vhcurveto
            20 67 28 63 37 44 rrcurveto
            return
          </CharString>
          <CharString index="56">
            23 38 28 -47 callgsubr
            return
          </CharString>
          <CharString index="57">
            -28 callsubr
            12 -4 8 -9 hvcurveto
            return
          </CharString>
          <CharString index="58">
            -2 -5 -10 hvcurveto
            -14 -6 -6 -7 -1 -16 rrcurveto
            -12 6 -8 15 -1 vhcurveto
            10 return
          </CharString>
          <CharString index="59">
            rmoveto
            -8 -25 -4 -13 -8 hvcurveto
            -28 -45 -30 -53 -14 -34 rrcurveto
            -9 -22 -6 -8 -11 vvcurveto
            -5 4 -7 13 15 0 30 25 11 vhcurveto
            36 15 31 64 6 hhcurveto
            3 1 -15 -20 hvcurveto
            return
          </CharString>
          <CharString index="60">
            -48 callsubr
            hintmask 1001110100000000
            -38 callsubr
          </CharString>
          <CharString index="61">
            -1 rrcurveto
            -4 -7 6 49 43 1 53 2 55 hvcurveto
            29 59 50 120 112 vvcurveto
            15 -7 42 -27 -60 -27 -76 -83 -11 vhcurveto
            -14 -108 -11 -119 -115 vvcurveto
            -14 0 -62 10 -12 vhcurveto
            -5 4 26 -11 33 hhcurveto
            59 539 rmoveto
            -68 -28 -86 -24 -63 vhcurveto
            129 7 14 120 23 hhcurveto
            8 0 -23 -9 hvcurveto
            endchar
          </CharString>
          <CharString index="62">
            -40 -47 -32 -35 -26 -29 rrcurveto
            -36 -35 -49 -31 -22 7 -8 8 7 19 4 33 22 hvcurveto
            51 78 -50 21 hhcurveto
            return
          </CharString>
          <CharString index="63">
            0 15 12 71 0 29 10 134 hvcurveto
            23 99 17 51 65 vvcurveto
            10 0 48 -16 return
          </CharString>
          <CharString index="64">
            -27 callgsubr
            69 -21 49 return
          </CharString>
          <CharString index="65">
            -13 -85 -5 -89 -11 -143 rrcurveto
            -78 -38 -60 -82 -43 36 callgsubr
            return
          </CharString>
          <CharString index="66">
            -15 callgsubr
            -83 callgsubr
            return
          </CharString>
          <CharString index="67">
            -19 callsubr
            97 76 32 108 67 vhcurveto
            return
          </CharString>
          <CharString index="68">
            -44 -97 -43 -56 return
          </CharString>
          <CharString index="69">
            -71 -20 -70 -62 vvcurveto
            -12 5 -10 7 30 10 16 27 4 vhcurveto
            1 10 4 70 7 vvcurveto
            2 41 6 27 37 vvcurveto
            33 -5 39 -15 vhcurveto
            endchar
          </CharString>
          <CharString index="70">
            20 -20 -32 callgsubr
            return
          </CharString>
          <CharString index="71">
            -28 -5 -20 -13 -38 5 -94 3 -13 hvcurveto
            -6 1 6 -5 8 hhcurveto
            7 9 3 6 3 hvcurveto
            13 29 17 89 31 vvcurveto
            24 -12 7 -27 vhcurveto
            return
          </CharString>
          <CharString index="72">
            rmoveto
            6 25 20 22 45 hvcurveto
            89 43 136 61 16 1 rrcurveto
            22 14 16 12 12 -19 5 -41 9 hvcurveto
            18 -83 -159 102 -31 hhcurveto
            -15 -6 -18 -19 -24 140 -74 116 -25 hvcurveto
            -102 -47 -82 -22 -43 -24 rrcurveto
            -30 -16 -19 -20 -15 vvcurveto
            -12 13 -5 8 vhcurveto
            return
          </CharString>
          <CharString index="73">
            -137 -51 -18 31 -12 callsubr
            return
          </CharString>
          <CharString index="74">
            -6 -6 vhcurveto
            -6 -6 -2 -26 return
          </CharString>
          <CharString index="75">
            rmoveto
            -6 -25 -20 -22 -45 hvcurveto
            -43 -89 -136 -62 -16 hhcurveto
            -22 -12 -12 -12 -12 14 -11 40 -11 hvcurveto
            -23 83 165 -89 31 hhcurveto
            15 4 14 19 24 -145 68 -111 31 hvcurveto
            102 47 82 22 43 24 rrcurveto
            30 16 19 20 15 vvcurveto
            12 -13 5 -8 vhcurveto
            return
          </CharString>
          <CharString index="76">
            342 rmoveto
            -5 -11 -20 -23 -23 hvcurveto
            -44 -45 -76 -48 -9 hhcurveto
            -11 -10 -11 -15 -16 15 -6 13 -7 hvcurveto
            -28 53 67 -108 15 hhcurveto
            9 17 25 22 17 -42 63 -81 44 hvcurveto
            54 34 35 24 25 22 rrcurveto
            18 16 8 17 16 vvcurveto
            13 -7 13 -9 vhcurveto
            return
          </CharString>
          <CharString index="77">
            -100 callgsubr
            endchar
          </CharString>
          <CharString index="78">
            10 callsubr
            -18 0 -46 hhcurveto
            -93 -6 -49 callsubr
            8 4 37 hhcurveto
            hintmask 01100000
            55 12 -13 callgsubr
          </CharString>
          <CharString index="79">
            38 34 -43 39 hhcurveto
            45 33 43 28 return
          </CharString>
          <CharString index="80">
            43 -33 26 -45 -93 -72 -70 -151 -66 42 -73 80 return
          </CharString>
          <CharString index="81">
            -49 callgsubr
            21 callsubr
          </CharString>
          <CharString index="82">
            303 200 rmoveto
            66 callgsubr
            -50 -27 54 49 77 39 96 52 16 9 -15 -14 hvcurveto
            -19 -8 -18 -14 vvcurveto
            return
          </CharString>
          <CharString index="83">
            rmoveto
            73 51 84 75 56 vhcurveto
            -216 -8 -21 -77 -41 hhcurveto
            -28 -28 32 48 hvcurveto
            return
          </CharString>
          <CharString index="84">
            -8 -27 -9 -68 -73 -97 callsubr
            return
          </CharString>
          <CharString index="85">
            -5 -98 rlineto
            -146 -8 -15 -31 -41 hhcurveto
            return
          </CharString>
          <CharString index="86">
            -3 callgsubr
            -52 -63 -129 -59 -41 vhcurveto
            return
          </CharString>
          <CharString index="87">
            -11 callgsubr
            -3 -4 -9 vhcurveto
            return
          </CharString>
          <CharString index="88">
            -57 -40 -45 -62 -67 vvcurveto
            -90 59 -81 127 return
          </CharString>
          <CharString index="89">
            32 vvcurveto
            10 -8 17 -12 vhcurveto
            -18 -17 -6 -20 hhcurveto
            -5 return
          </CharString>
          <CharString index="90">
            -39 callgsubr
            79 6 76 -50 callgsubr
            -46 -46 -8 -5 vhcurveto
            -5 -8 -12 -191 -45 -97 callsubr
            return
          </CharString>
          <CharString index="91">
            hhcurveto
            7 14 6 13 12 -26 3 -19 return
          </CharString>
          <CharString index="92">
            29 25 -13 -16 -3 -5 -9 -14 return
          </CharString>
          <CharString index="93">
            -1 callsubr
            -51 32 -76 84 105 55 67 callsubr
            vhcurveto
            13 26 16 46 -93 callsubr
            -10 -9 -32 -28 -14 vhcurveto
            return
          </CharString>
          <CharString index="94">
            12 1 21 4 46 vhcurveto
            12 28 8 54 18 vvcurveto
            return
          </CharString>
          <CharString index="95">
            21 vhcurveto
            18 12 15 11 vvcurveto
            return
          </CharString>
          <CharString index="96">
            33 vvcurveto
            6 -3 2 -4 return
          </CharString>
          <CharString index="97">
            -126 53 12 -86 hvcurveto
            66 132 81 124 61 73 rrcurveto
            -11 24 26 -8 14 hhcurveto
            return
          </CharString>
          <CharString index="98">
            -56 -5 45 124 39 -39 181 -13 33 return
          </CharString>
          <CharString index="99">
            vvcurveto
            -18 3 -17 5 -5 vhcurveto
            -4 5 return
          </CharString>
          <CharString index="100">
            -3 -20 -2 -20 -20 vvcurveto
            -10 4 -7 6 20 13 9 13 1 vhcurveto
            5 -1 21 6 vvcurveto
            8 0 8 1 8 vhcurveto
            13 8 -5 13 hhcurveto
            15 2 12 7 return
          </CharString>
          <CharString index="101">
            3 21 2 20 21 vvcurveto
            11 -14 12 -8 -8 -6 -28 -60 -5 vhcurveto
            -27 -3 -28 -6 -29 -3 18 52 22 40 20 35 rrcurveto
            9 16 15 15 20 vvcurveto
            return
          </CharString>
          <CharString index="102">
            rmoveto
            3 2 2 3 hvcurveto
            5 -5 5 8 vvcurveto
            6 4 5 9 8 30 -15 -9 27 vhcurveto
            -15 -22 -16 -18 -23 -21 rrcurveto
            -2 -2 -2 -3 -4 vvcurveto
            -8 return
          </CharString>
          <CharString index="103">
            35 40 20 29 vvcurveto
            4 -4 4 -4 -35 -63 -95 -37 -24 15 -34 29 vhcurveto
            return
          </CharString>
          <CharString index="104">
            1 callsubr
            43 41 return
          </CharString>
          <CharString index="105">
            8 21 2 hvcurveto
            21 hlineto
            169 165 86 217 146 -106 116 -182 -15 -16 -2 -2 -16 hvcurveto
            42 vlineto
            26 -5 11 -8 return
          </CharString>
          <CharString index="106">
            66 callsubr
            24 24 22 55 25 -23 29 -46 -95 -80 -74 -159 return
          </CharString>
          <CharString index="107">
            -15 41 248 29 38 callgsubr
            -30 30 return
          </CharString>
          <CharString index="108">
            -10 51 113 33 305 34 return
          </CharString>
          <CharString index="109">
            8 20 callgsubr
            return
          </CharString>
          <CharString index="110">
            -97 -44 -43 -57 return
          </CharString>
          <CharString index="111">
            406 580 rmoveto
            -120 -67 -85 -140 -18 hvcurveto
            5 callsubr
            -13 -96 return
          </CharString>
          <CharString index="112">
            -42 -4 -10 -9 -11 vvcurveto
            -3 4 -3 15 9 9 0 1 11 vhcurveto
            return
          </CharString>
          <CharString index="113">
            25 37 26 54 -11 callsubr
            -8 -31 -65 -27 -19 vhcurveto
            return
          </CharString>
          <CharString index="114">
            83 192 89 -26 26 292 42 -42 97 return
          </CharString>
          <CharString index="115">
            29 -23 17 -20 -35 return
          </CharString>
          <CharString index="116">
            rmoveto
            16 -9 11 -8 -23 -1 -27 -11 -4 vhcurveto
            -10 -29 -42 -90 -20 -49 rrcurveto
            -14 -1 -13 -7 -10 vvcurveto
            -16 8 -6 13 return
          </CharString>
          <CharString index="117">
            -20 callsubr
            hintmask 10000000
            -11 -29 return
          </CharString>
          <CharString index="118">
            17 hhcurveto
            8 3 -15 -22 hvcurveto
            return
          </CharString>
          <CharString index="119">
            -95 -31 -87 -67 -105 vvcurveto
            -22 15 -42 20 6 22 7 15 vhcurveto
            17 -6 29 18 vvcurveto
            71 51 51 71 24 vhcurveto
            return
          </CharString>
          <CharString index="120">
            53 33 29 51 29 -26 18 -25 -21 -29 -19 -31 -32 hvcurveto
            return
          </CharString>
          <CharString index="121">
            8 callgsubr
            23 6 40 return
          </CharString>
          <CharString index="122">
            rmoveto
            3 callgsubr
            return
          </CharString>
          <CharString index="123">
            106 -92 92 -66 66 return
          </CharString>
          <CharString index="124">
            -21 27 -24 23 42 vvcurveto
            30 29 47 31 15 4 -10 -8 vhcurveto
            -5 -2 -5 -5 vvcurveto
            -4 4 -4 8 return
          </CharString>
          <CharString index="125">
            -12 -29 -37 -2 -44 -132 -15 12 -11 14 callsubr
            return
          </CharString>
          <CharString index="126">
            58 63 93 60 return
          </CharString>
          <CharString index="127">
            hvcurveto
            6 callsubr
            -39 -27 -62 -81 -84 hhcurveto
            return
          </CharString>
          <CharString index="128">
            49 -17 -47 42 -24 hhcurveto
            -8 -15 -9 -8 hvcurveto
            endchar
          </CharString>
          <CharString index="129">
            40 31 -33 17 -49 return
          </CharString>
          <CharString index="130">
            hstemhm
            77 70 -40 40 -40 65 return
          </CharString>
          <CharString index="131">
            -8 27 13 3 13 15 return
          </CharString>
          <CharString index="132">
            -20 hstemhm
            0 return
          </CharString>
          <CharString index="133">
            -43 callsubr
            160 25 157 134 41 -1 return
          </CharString>
          <CharString index="134">
            81 -25 85 -39 -21 435 127 -22 80 return
          </CharString>
          <CharString index="135">
            36 30 21 7 26 hhcurveto
            16 14 -10 -19 hvcurveto
            return
          </CharString>
          <CharString index="136">
            -127 -5 52 96 212 -32 return
          </CharString>
          <CharString index="137">
            40 66 45 -26 37 -44 -5 -6 0 -1 -10 hvcurveto
            20 23 12 10 13 15 rrcurveto
            return
          </CharString>
          <CharString index="138">
            -76 callgsubr
            endchar
          </CharString>
          <CharString index="139">
            -45 -44 -30 -50 -13 5 -25 15 7 11 12 8 hvcurveto
            13 -9 8 15 vvcurveto
            return
          </CharString>
          <CharString index="140">
            rmoveto
            29 -28 9 -15 -33 -21 -18 -37 -19 18 -14 20 19 40 12 38 vhcurveto
            return
          </CharString>
          <CharString index="141">
            17 10 12 24 9 9 6 9 vhcurveto
            20 return
          </CharString>
          <CharString index="142">
            9 -20 41 -41 148 return
          </CharString>
          <CharString index="143">
            58 -15 56 hstemhm
            return
          </CharString>
          <CharString index="144">
            rrcurveto
            11 8 9 11 8 vvcurveto
            5 -2 3 -4 -4 -13 -8 -7 -13 vhcurveto
            return
          </CharString>
          <CharString index="145">
            hstemhm
            22 80 -25 72 return
          </CharString>
          <CharString index="146">
            265 539 rmoveto
            31 39 -10 -44 3 hvcurveto
            -9 -5 -9 -8 vvcurveto
            return
          </CharString>
          <CharString index="147">
            11 23 18 -18 callgsubr
            return
          </CharString>
          <CharString index="148">
            77 6 -21 500 115 -72 72 return
          </CharString>
          <CharString index="149">
            -44 -39 -5 -38 vvcurveto
            -13 12 -3 13 return
          </CharString>
          <CharString index="150">
            rmoveto
            25 25 7 19 31 12 -25 -25 -57 -28 -15 -70 -74 vhcurveto
            return
          </CharString>
          <CharString index="151">
            -15 32 -3 -42 vvcurveto
            -18 -11 -16 -23 vhcurveto
            -9 -7 9 -6 hhcurveto
            return
          </CharString>
          <CharString index="152">
            -16 -12 -15 -17 -15 -6 14 14 16 12 14 17 vhcurveto
            endchar
          </CharString>
          <CharString index="153">
            rrcurveto
            -4 -7 -5 12 callgsubr
            vhcurveto
            hintmask 01101101
            return
          </CharString>
          <CharString index="154">
            36 48 -21 297 63 245 25 callsubr
            86 -69 69 return
          </CharString>
          <CharString index="155">
            38 callsubr
            187 73 return
          </CharString>
          <CharString index="156">
            50 callsubr
            vhcurveto
            return
          </CharString>
          <CharString index="157">
            -21 -52 -43 -10 -2 return
          </CharString>
          <CharString index="158">
            99 -5 55 720 -20 23 callsubr
            return
          </CharString>
          <CharString index="159">
            13 35 32 13 hvcurveto
            hintmask 11001000
            23 -26 8 22 vvcurveto
            return
          </CharString>
          <CharString index="160">
            59 -10 39 -39 203 251 137 -42 42 return
          </CharString>
          <CharString index="161">
            -10 21 hhcurveto
            103 62 103 104 112 -54 41 -51 return
          </CharString>
          <CharString index="162">
            hstemhm
            83 70 -40 40 5 68 return
          </CharString>
          <CharString index="163">
            -165 16 -21 240 -20 return
          </CharString>
          <CharString index="164">
            -20 23 callsubr
            168 80 return
          </CharString>
          <CharString index="165">
            60 callsubr
            46 66 -66 92 -92 106 return
          </CharString>
          <CharString index="166">
            rmoveto
            6 20 callgsubr
            -9 -4 -2 -9 vhcurveto
            return
          </CharString>
          <CharString index="167">
            390 190 hstemhm
            return
          </CharString>
          <CharString index="168">
            2 -7 -8 1 -7 hhcurveto
            hintmask 10011101
            -12 -9 return
          </CharString>
          <CharString index="169">
            -229 -146 -21 768 -20 hstemhm
            53 return
          </CharString>
          <CharString index="170">
            hhcurveto
            -39 -22 19 callsubr
            57 31 hvcurveto
            return
          </CharString>
          <CharString index="171">
            5 43 77 callsubr
            return
          </CharString>
          <CharString index="172">
            177 131 -32 32 return
          </CharString>
          <CharString index="173">
            -11 3 -8 14 return
          </CharString>
          <CharString index="174">
            91 75 37 return
          </CharString>
          <CharString index="175">
            -146 -130 -21 728 -20 hstem
            return
          </CharString>
          <CharString index="176">
            rmoveto
            -89 -50 85 72 36 20 50 31 return
          </CharString>
          <CharString index="177">
            1 -14 3 -6 4 -4 rrcurveto
            -4 5 return
          </CharString>
          <CharString index="178">
            vvcurveto
            161 57 127 151 vhcurveto
            return
          </CharString>
          <CharString index="179">
            16 -21 571 34 hstem
            0 75 return
          </CharString>
          <CharString index="180">
            10 6 16 12 26 -20 24 -37 return
          </CharString>
          <CharString index="181">
            4 vhcurveto
            9 10 5 15 hhcurveto
            30 return
          </CharString>
          <CharString index="182">
            113 517 rmoveto
            return
          </CharString>
          <CharString index="183">
            21 70 365 return
          </CharString>
          <CharString index="184">
            rrcurveto
            23 callgsubr
            return
          </CharString>
        <CharString name=".notdef">
          -65 endchar
        </CharString>
        <CharString name=".null">
          -420 endchar
        </CharString>
        <CharString name="A">
          -24 callgsubr
          67 callgsubr
          hintmask 11011000
          -104 callgsubr
          hintmask 10111000
          -85 callsubr
          endchar
        </CharString>
        <CharString name="AE">
          311 -42 41 17 -21 195 52 -10 -20 36 28 38 callgsubr
          -84 84 -31 31 7 -20 hstemhm
          297 80 -80 127 185 56 hintmask 1010111000101000
          516 -1 69 callsubr
          34 hvcurveto
          -16 32 33 -12 38 hhcurveto
          24 56 10 22 callsubr
          -26 -27 -8 -13 -27 hvcurveto
          hintmask 1010110010011000
          -16 21 -9 26 29 vvcurveto
          80 51 61 77 38 19 -30 -20 vhcurveto
          -19 -9 -13 -14 vvcurveto
          hintmask 1010111000101000
          66 callsubr
          24 24 23 49 29 -25 45 -75 -68 -95 -36 -78 -36 vhcurveto
          hintmask 0110110001101000
          83 -4 -15 38 -19 hhcurveto
          -43 -119 -223 -120 -50 hvcurveto
          -57 callgsubr
          8 9 0 1 10 -58 callsubr
          -61 callgsubr
          96 50 3 62 5 43 3 rrcurveto
          -1 -30 -1 -25 -17 vvcurveto
          hintmask 1001110100101000
          -90 59 -81 127 117 72 64 108 63 vhcurveto
          22 38 29 -47 callgsubr
          -88 -42 -81 -118 -104 hhcurveto
          -357 233 rmoveto
          96 33 83 161 15 hhcurveto
          12 3 -49 -64 -47 -2 -51 -2 -45 hvcurveto
          -1 -56 -14 0 -72 hhcurveto
          384 44 rmoveto
          -28 -27 11 19 -21 hvcurveto
          7 13 13 4 15 hhcurveto
          -15 callsubr
          hvcurveto
          -172 -5 rmoveto
          -1 17 0 19 20 vvcurveto
          8 -12 10 -11 12 -9 rrcurveto
          endchar
        </CharString>
        <CharString name="Aacute">
          34 callgsubr
          -46 68 hintmask 11011100
          -104 callgsubr
          hintmask 10111100
          -85 callsubr
          hintmask 11011010
          174 487 -107 callsubr
        </CharString>
        <CharString name="Acircumflex">
          -24 callgsubr
          0 35 155 -20 67 callgsubr
          hintmask 11010110
          -104 callgsubr
          hintmask 10110110
          -85 callsubr
          285 405 -103 callgsubr
          hintmask 11001110
          -2 callgsubr
        </CharString>
        <CharString name="Adieresis">
          -24 callgsubr
          43 82 hstemhm
          219 91 -2 71 -16 91 hintmask 11011010
          -104 callgsubr
          hintmask 10111010
          -85 callsubr
          hintmask 11011101
          60 426 -96 callsubr
        </CharString>
        <CharString name="Agrave">
          34 callgsubr
          hintmask 11011100
          -104 callsubr
          39 -62 callsubr
          hintmask 10111100
          -85 callsubr
          190 471 -95 callsubr
        </CharString>
        <CharString name="Aogonek">
          81 -173 48 -48 219 -30 -21 200 37 257 91 67 callgsubr
          -71 140 hintmask 01011100
          159 232 rmoveto
          96 33 83 161 -54 callsubr
          259 -217 rmoveto
          27 24 39 51 34 73 rrcurveto
          -69 callsubr
          -11 -3 83 81 -3 hvcurveto
          9 4 6 5 7 vvcurveto
          4 -1 7 -15 vhcurveto
          191 -11 -10 57 callgsubr
          -43 -119 -223 -120 -50 hvcurveto
          -90 callsubr
          hintmask 10111010
          -84 callsubr
          4 -4 19 -8 25 -3 rrcurveto
          -26 -32 -21 -37 -44 -42 callgsubr
          78 callgsubr
          37 18 38 30 29 hvcurveto
          endchar
        </CharString>
        <CharString name="Aring">
          -24 callgsubr
          -91 179 hstemhm
          263 34 51 31 hintmask 11001110
          -71 callsubr
          -7 149 -9 126 -18 47 rrcurveto
          20 11 12 22 26 vvcurveto
          26 -18 24 -31 -46 -19 -38 -30 -18 8 -20 20 -8 vhcurveto
          -41 -46 -55 -103 -47 -99 -101 callgsubr
          40 42 57 111 52 hvcurveto
          -69 callsubr
          hintmask 10110110
          -85 callsubr
          168 406 rmoveto
          12 9 -13 -14 -16 -12 -15 -17 -15 -7 14 14 16 13 14 17 hvcurveto
          endchar
        </CharString>
        <CharString name="Atilde">
          -24 callgsubr
          46 36 callsubr
          217 234 -143 71 hintmask 11011001
          -104 callgsubr
          hintmask 10111001
          -85 callsubr
          238 452 rmoveto
          hintmask 11010110
          -67 callsubr
          hintmask 11011010
          -64 callsubr
        </CharString>
        <CharString name="B">
          86 -10 36 -36 64 172 30 -30 85 222 34 -34 87 hstemhm
          0 193 -103 102 -67 67 25 239 -64 64 -48 73 hintmask 1010011001000000
          255 26 rmoveto
          hintmask 0110010101000000
          -42 -52 28 -30 hhcurveto
          -34 -7 -8 -13 -28 26 -6 8 -1 hvcurveto
          -2 8 55 -6 41 hhcurveto
          95 133 49 121 44 -22 38 -34 27 hvcurveto
          hintmask 1010101000010000
          46 38 35 55 51 vvcurveto
          111 -126 43 -104 -14 -16 -1 -2 -17 vhcurveto
          hintmask 1010011001000000
          24 -2 32 -13 -26 -18 -27 -41 -10 vhcurveto
          -69 -17 -66 -36 -67 vvcurveto
          -11 7 -18 15 35 10 17 42 5 vhcurveto
          2 20 14 24 41 14 rrcurveto
          hintmask 1010010011000000
          -3 -22 -1 -24 -24 -143 -11 -105 -51 vvcurveto
          -14 0 -43 10 -10 vhcurveto
          -5 5 20 -9 32 hhcurveto
          5 6 22 54 hvcurveto
          hintmask 1001011000010000
          65 0 65 1 70 vhcurveto
          1 55 7 69 2 62 55 callgsubr
          79 105 -50 -96 -34 -16 -37 -24 -26 hvcurveto
          13 -26 -30 8 -30 hhcurveto
          hintmask 1010011001000000
          -38 -27 -20 -17 -32 29 -16 48 22 23 6 11 22 hvcurveto
          hintmask 1010011000100000
          19 -26 12 -34 -30 vvcurveto
          -69 -65 -58 -72 vhcurveto
          24 264 rmoveto
          22 21 -10 -15 18 hvcurveto
          -6 -11 -12 -3 -11 hhcurveto
          -26 -23 8 15 5 9 6 13 hvcurveto
          endchar
        </CharString>
        <CharString name="C">
          -8 -10 55 65 callgsubr
          hstemhm
          0 77 234 101 -62 62 hintmask 10110100
          410 165 rmoveto
          -39 -27 -62 -81 -84 hhcurveto
          -109 14 callgsubr
          hintmask 11011000
          42 callsubr
          10 callgsubr
          vhcurveto
          6 callsubr
          endchar
        </CharString>
        <CharString name="CR">
          -221 endchar
        </CharString>
        <CharString name="Cacute">
          -8 -10 55 65 callgsubr
          190 25 callsubr
          77 234 64 -25 62 hintmask 10111010
          237 45 rmoveto
          -109 14 callgsubr
          hintmask 11011100
          42 callsubr
          vhcurveto
          hintmask 11011010
          10 callgsubr
          20 callsubr
          70 674 -102 callsubr
          hintmask 11011100
          -30 callsubr
        </CharString>
        <CharString name="Ccedilla">
          -8 -150 34 107 54 65 callgsubr
          hstemhm
          0 77 40 126 -54 54 68 101 -62 62 hintmask 1101110010000000
          195 -9 rmoveto
          109 86 83 51 35 20 callsubr
          -110 14 callgsubr
          hintmask 1110101100000000
          42 callsubr
          6 callgsubr
          -79 51 -112 109 -11 vhcurveto
          -2 -4 -1 -4 -5 44 callsubr
          hintmask 1110110100000000
          40 callgsubr
          17 vvcurveto
          endchar
        </CharString>
        <CharString name="D">
          234 -13 -21 29 33 493 39 75 -20 hstemhm
          21 57 99 88 -65 65 270 76 hintmask 11111011
          248 -34 rmoveto
          4 2 -2 callsubr
          -47 -13 -61 -34 vhcurveto
          12 callsubr
          hintmask 11111101
          -8 -106 -12 -255 -3 -89 rrcurveto
          12 -29 -24 12 -13 hhcurveto
          -11 -12 -7 -14 -28 44 -14 45 -13 hvcurveto
          70 callsubr
          26 -9 32 hhcurveto
          48 18 callgsubr
          40 2 62 3 93 2 62 6 126 2 106 55 callgsubr
          endchar
        </CharString>
        <CharString name="E">
          16 0 callsubr
          48 callsubr
          hintmask 11110101
          233 344 -57 callsubr
          215 -219 rmoveto
          -61 callsubr
          -65 callsubr
          hintmask 11101011
          -53 callsubr
          hintmask 11110011
          -62 callgsubr
          hintmask 11110101
          -40 callsubr
          endchar
        </CharString>
        <CharString name="Eacute">
          22 0 callsubr
          189 -20 38 callsubr
          139 48 -48 68 -20 73 hintmask 1111011010000000
          -59 callsubr
          hintmask 1110110100100000
          -53 callsubr
          hintmask 1111010100100000
          -62 callgsubr
          hintmask 1111011001000000
          -87 callsubr
          55 394 -107 callsubr
        </CharString>
        <CharString name="Ecircumflex">
          22 -15 41 0 248 0 29 0 41 0 29 0 197 -197 242 -161 146 -30 30 170 -20 48 callsubr
          hintmask 0101010001101000
          -59 callsubr
          hintmask 1010100011011000
          -53 callsubr
          hintmask 1010100101011000
          -62 callgsubr
          hintmask 0101001001101000
          -87 callsubr
          166 293 -98 callgsubr
        </CharString>
        <CharString name="Edieresis">
          22 0 callsubr
          53 82 38 callsubr
          24 91 53 92 -73 73 hintmask 1111011010100000
          -59 callsubr
          hintmask 1110110110100000
          -53 callsubr
          hintmask 1111010111000000
          -62 callgsubr
          hintmask 1111011011000000
          -87 callsubr
          -60 344 -96 callsubr
        </CharString>
        <CharString name="Egrave">
          22 0 callsubr
          -30 200 48 callsubr
          hintmask 1111001010000000
          -59 callsubr
          hintmask 1110100110000000
          -53 callsubr
          hintmask 1111000110000000
          -62 callgsubr
          hintmask 1110011010000000
          -87 callsubr
          58 359 -95 callsubr
        </CharString>
        <CharString name="Eogonek">
          22 -173 48 110 41 244 33 38 callgsubr
          -30 30 38 callsubr
          98 52 -52 130 -41 73 hintmask 1111101010100000
          233 344 -57 callsubr
          122 -316 rmoveto
          32 22 33 30 28 45 rrcurveto
          -61 callsubr
          -12 callgsubr
          -20 30 35 -15 38 hhcurveto
          35 43 15 -19 callgsubr
          hintmask 1111010110100000
          -53 callsubr
          hintmask 1111100110100000
          -62 callgsubr
          hintmask 1111101001000000
          -19 callsubr
          31 29 4 9 27 vhcurveto
          -26 -33 -22 -38 -44 -42 callgsubr
          hintmask 1111101010100000
          78 callgsubr
          41 21 43 35 33 hvcurveto
          endchar
        </CharString>
        <CharString name="Eth">
          213 -13 -21 29 33 207 -20 306 39 75 25 callsubr
          57 -2 188 -176 176 -79 79 -79 173 -158 66 269 76 hintmask 1111110000110000
          226 -34 rmoveto
          4 3 -2 callsubr
          -36 -15 -28 -57 -8 vhcurveto
          -1 -3 0 -3 -4 vvcurveto
          12 callsubr
          hintmask 1111110010010000
          -4 -61 -6 -109 -5 -100 rrcurveto
          -38 -39 3 -7 hhcurveto
          hintmask 1111101000010000
          -12 -13 -2 -9 -19 84 -7 23 hvcurveto
          -3 -60 -2 -54 -1 -32 rrcurveto
          12 -29 -24 12 -13 hhcurveto
          hintmask 1111110100010000
          -11 -12 -7 -14 -15 10 -8 15 -8 hvcurveto
          16 -9 19 -9 29 -6 rrcurveto
          hintmask 1111110010010000
          70 callsubr
          25 -9 32 hhcurveto
          49 18 callgsubr
          38 1 57 3 85 17 4 16 5 16 6 rrcurveto
          hintmask 1111110001010000
          12 4 33 14 17 vvcurveto
          14 -29 6 -15 vhcurveto
          hintmask 1111110000110000
          -21 -2 -8 -13 -25 hvcurveto
          3 68 4 103 2 89 55 callgsubr
          endchar
        </CharString>
        <CharString name="Euro">
          37 -12 50 114 49 -40 40 -40 46 75 44 -44 60 91 87 -36 36 hstemhm
          hintmask 11001010
          366 48 rmoveto
          -9 -22 -14 -1 -25 hhcurveto
          -67 -49 49 79 -19 hvcurveto
          -4 54 28 -10 66 hhcurveto
          32 7 32 20 6 -2 4 -7 -9 -11 -6 -4 -17 hvcurveto
          -1 -11 -29 -2 -27 hhcurveto
          hintmask 10010110
          -25 -30 4 2 -25 hvcurveto
          -1 10 0 11 11 vvcurveto
          15 1 17 3 18 vhcurveto
          -1 66 0 -6 108 hhcurveto
          21 14 31 19 7 -5 3 -6 -8 -10 -4 -3 -10 hvcurveto
          hintmask 11001001
          -6 -19 -52 -3 -47 hhcurveto
          -16 -15 0 1 -13 hvcurveto
          80 22 50 77 77 hhcurveto
          35 16 -15 -19 19 hvcurveto
          hintmask 10101010
          -9 9 8 -8 16 hhcurveto
          14 9 10 13 40 -78 24 -41 -125 -67 -89 -100 -29 hvcurveto
          3 -26 -5 3 -6 hhcurveto
          -15 -14 -22 -14 -10 6 -8 16 6 11 2 2 16 hvcurveto
          -4 -26 -3 -26 -24 vvcurveto
          -36 -2 -23 -6 -18 vvcurveto
          -13 5 -11 56 vhcurveto
          -94 13 57 -79 111 hhcurveto
          60 94 23 38 8 -8 9 -9 -14 -19 -12 -6 -13 hvcurveto
          endchar
        </CharString>
        <CharString name="F">
          -11 -13 -21 219 58 72 194 -86 65 -65 157 -115 44 hstemhm
          8 71 -71 230 -156 128 hintmask 1101001010000000
          336 187 rmoveto
          11 11 11 13 16 -14 16 -18 -38 -36 0 -2 -42 hvcurveto
          1 46 2 41 2 24 2 38 6 29 5 30 rrcurveto
          -13 41 45 -13 69 hhcurveto
          52 49 19 35 hvcurveto
          hintmask 1110001010000000
          22 -12 10 -16 vhcurveto
          hintmask 1101000100000000
          -32 -12 -21 -74 hhcurveto
          -38 -23 7 5 -42 hvcurveto
          1 14 2 16 18 vvcurveto
          hintmask 1100101010000000
          17 -5 15 -7 -26 -21 -26 -50 -13 vhcurveto
          -6 hlineto
          -80 -72 -70 -71 hvcurveto
          hintmask 1110001010000000
          -19 7 -29 24 21 19 16 23 vhcurveto
          16 -10 17 14 vvcurveto
          hintmask 1100011010000000
          43 26 21 45 6 6 0 -1 6 vhcurveto
          -13 -78 4 -76 -7 -75 rrcurveto
          -24 -3 -36 2 -32 vvcurveto
          -7 6 -10 12 8 13 3 2 18 vhcurveto
          -9 -107 -7 -23 -6 -13 rrcurveto
          -5 -11 -13 -10 -16 vvcurveto
          -24 29 -20 15 32 24 51 47 4 vhcurveto
          2 32 2 49 2 49 rrcurveto
          -1 46 40 -6 41 hhcurveto
          endchar
        </CharString>
        <CharString name="G">
          131 -15 51 120 46 55 34 137 152 -43 43 hstemhm
          0 81 186 60 -60 220 hintmask 11101101
          552 244 rmoveto
          -21 -13 -20 -10 -24 -7 rrcurveto
          56 -59 21 -49 -68 -44 -31 -44 -36 42 -24 47 21 20 1 4 20 vhcurveto
          -71 -16 -59 -54 -84 hhcurveto
          -104 -73 100 108 168 114 125 87 53 36 -22 -55 16 hvcurveto
          hintmask 11110110
          -22 6 12 -10 14 hhcurveto
          20 19 14 21 63 -75 54 -72 -141 -170 -124 -259 -83 54 -129 169 115 116 55 138 30 hvcurveto
          40 14 36 20 30 21 rrcurveto
          10 7 4 4 12 vvcurveto
          5 -4 5 -6 -12 -16 -13 -9 -14 vhcurveto
          -180 13 rmoveto
          23 26 -19 -34 1 hvcurveto
          -1 -10 -9 -1 -8 hhcurveto
          -44 -24 15 20 14 18 6 27 hvcurveto
          endchar
        </CharString>
        <CharString name="H">
          130 -13 -21 29 211 -44 44 180 214 -45 45 5 55 hstemhm
          32 35 -35 59 -3 144 -111 84 -46 73 145 72 -72 111 40 32 hintmask 1101010101010100
          91 413 rmoveto
          hintmask 1100111000110100
          31 -24 2 44 vvcurveto
          47 27 18 37 22 6 -39 -51 -41 -4 -50 -5 -51 vhcurveto
          hintmask 1101011010010100
          -35 -27 -37 -47 -34 16 -21 29 -12 hvcurveto
          hintmask 1101011001010100
          -7 -57 -5 -49 -26 vvcurveto
          -25 7 -20 16 vhcurveto
          hintmask 1011011001001100
          67 -12 88 79 6 hvcurveto
          56 2 59 31 54 46 rrcurveto
          -2 -35 -1 -32 -29 vvcurveto
          -105 17 -50 8 -6 vhcurveto
          -12 15 25 -6 17 hhcurveto
          16 19 6 10 hvcurveto
          hintmask 1101011010010100
          38 -39 41 130 vvcurveto
          33 2 50 4 53 vhcurveto
          62 81 43 96 78 vvcurveto
          43 -25 35 -33 -72 -39 -198 -175 -14 vhcurveto
          -48 -52 -58 -33 -58 hhcurveto
          11 95 12 66 111 vvcurveto
          62 -22 60 -52 -77 -49 -63 -61 -38 15 -52 24 vhcurveto
          hintmask 1101010101010100
          13 7 16 11 hvcurveto
          437 152 rmoveto
          -51 -27 -65 -40 -61 vhcurveto
          111 12 18 106 21 hhcurveto
          9 7 -21 -19 hvcurveto
          -395 -304 rmoveto
          18 7 7 7 5 vhcurveto
          -6 -55 rlineto
          -5 7 -3 8 10 vvcurveto
          endchar
        </CharString>
        <CharString name="I">
          35 callsubr
          488 -94 callsubr
          endchar
        </CharString>
        <CharString name="IJ">
          189 22 callgsubr
          55 566 25 callsubr
          67 97 69 -38 38 -38 136 -83 68 126 77 hintmask 1111010110000000
          164 173 rmoveto
          -121 47 -86 callgsubr
          -31 -31 51 114 105 18 122 7 58 hvcurveto
          hintmask 1111001010000000
          36 10 37 20 40 vvcurveto
          -83 callsubr
          hintmask 1111100110000000
          -2 -54 -29 -210 -53 vvcurveto
          152 -377 -24 callsubr
          -26 786 -88 callsubr
          endchar
        </CharString>
        <CharString name="Iacute">
          35 callsubr
          642 -94 callsubr
          -91 137 -102 callsubr
          hintmask 10111100
          -30 callsubr
        </CharString>
        <CharString name="Icircumflex">
          9 -20 41 107 199 443 0 callgsubr
          hintmask 11111100
          -95 callgsubr
          -66 callsubr
          hintmask 11111010
          -77 callgsubr
          38 75 rmoveto
          -1 5 -17 6 -8 5 -43 26 -11 17 -11 38 rrcurveto
          8 -2 -5 8 -7 hhcurveto
          -9 -31 -16 -12 -2 hvcurveto
          -5 -28 -18 -23 -39 -18 rrcurveto
          -16 -7 -10 -3 -6 vvcurveto
          -6 12 -9 6 13 62 20 40 18 vhcurveto
          -41 23 47 -26 24 hhcurveto
          8 22 14 8 hvcurveto
          endchar
        </CharString>
        <CharString name="Idieresis">
          35 callsubr
          525 82 51 callgsubr
          -8 91 43 74 -74 101 -101 138 hintmask 1011101000000000
          -95 callgsubr
          hintmask 0111101000000000
          -66 callsubr
          hintmask 1011010010000000
          -77 callgsubr
          -231 106 -91 callsubr
          vhcurveto
          hintmask 1011100100000000
          -67 callgsubr
          hvcurveto
          endchar
        </CharString>
        <CharString name="Igrave">
          35 callsubr
          642 -94 callsubr
          -114 121 -95 callsubr
        </CharString>
        <CharString name="Itilde">
          35 callsubr
          518 58 -15 56 51 callgsubr
          7 234 -115 74 -74 138 hintmask 1010110100000000
          -95 callgsubr
          hintmask 0110110100000000
          -66 callsubr
          hintmask 1010110010000000
          -77 callgsubr
          -36 122 rmoveto
          hintmask 1001111000000000
          -67 callsubr
          hintmask 1010111000000000
          -64 callsubr
        </CharString>
        <CharString name="J">
          -5 -320 36 900 -87 callgsubr
          endchar
        </CharString>
        <CharString name="Jcircumflex">
          -5 -320 36 1039 -87 callgsubr
          65 40 -98 callgsubr
        </CharString>
        <CharString name="K">
          233 -95 62 -7 41 -41 148 508 25 callsubr
          63 19 67 126 77 -77 141 hintmask 01011110
          416 570 rmoveto
          8 callsubr
          -48 -35 -57 -10 vhcurveto
          -115 -25 -83 -55 -83 -54 callgsubr
          -2 -52 0 -41 -40 vvcurveto
          -147 -6 -209 -34 callsubr
          hintmask 00111110
          -27 callgsubr
          72 -21 49 132 60 92 111 24 vhcurveto
          21 3 20 7 19 11 rrcurveto
          hintmask 10011110
          -128 50 61 -151 58 hhcurveto
          57 41 37 21 2 hvcurveto
          6 -3 2 -6 vhcurveto
          -9 -16 -4 -15 hhcurveto
          -42 -61 121 138 -67 hvcurveto
          47 50 45 81 51 117 rrcurveto
          6 14 51 15 44 vvcurveto
          20 -9 13 -18 -50 -28 -47 -43 -13 vhcurveto
          -46 -153 -69 -108 -69 -21 rrcurveto
          5 36 2 36 36 62 -4 61 63 vvcurveto
          hintmask 10011101
          35 10 33 19 39 -77 callsubr
          endchar
        </CharString>
        <CharString name="L">
          62 -27 70 -43 121 434 25 hstemhm
          425 61 hintmask 01110000
          4 callsubr
          -13 -77 -14 -45 26 callgsubr
          hintmask 10110000
          -39 84 49 -28 61 hhcurveto
          52 59 47 66 7 -2 8 -10 -8 -5 -16 -9 -4 hvcurveto
          -22 -10 -16 -11 -30 hhcurveto
          -42 -26 8 40 -118 -41 callgsubr
          endchar
        </CharString>
        <CharString name="Ldotaccent">
          -32 -131 82 -82 123 8 38 -38 127 66 88 274 25 hstemhm
          367 97 -39 61 hintmask 01011110
          4 callsubr
          -12 -73 -14 -45 rrcurveto
          0 -41 15 -30 -52 -21 -20 35 callgsubr
          vhcurveto
          -51 95 64 -120 110 hhcurveto
          93 42 52 56 9 -7 6 -8 hvcurveto
          hintmask 10101101
          -19 -19 -41 -56 hhcurveto
          -78 -34 65 75 -149 -41 callgsubr
          hintmask 10101110
          305 145 rmoveto
          31 callsubr
        </CharString>
        <CharString name="Lslash">
          62 -27 70 -43 121 55 49 330 25 hstemhm
          425 61 hintmask 01111000
          173 252 rmoveto
          -36 -24 -16 -18 -11 8 -5 8 hvcurveto
          13 8 7 17 4 4 -1 4 hhcurveto
          -7 -42 -8 -34 -7 -24 26 callgsubr
          hintmask 10111000
          -39 84 49 -28 61 hhcurveto
          52 59 47 66 7 -2 8 -10 -8 -5 -16 -9 -4 hvcurveto
          -22 -10 -16 -11 -30 hhcurveto
          -42 -26 8 40 -118 hvcurveto
          11 21 12 31 10 43 rrcurveto
          -6 16 17 -4 18 hhcurveto
          42 38 22 26 7 -2 7 -8 hvcurveto
          -9 -3 -13 -34 hhcurveto
          -22 -21 5 5 -21 hvcurveto
          5 30 5 33 5 39 rrcurveto
          100 22 111 46 109 vvcurveto
          30 -19 36 -61 -120 -67 -85 -140 -18 vhcurveto
          5 callsubr
          -11 -75 rlineto
          1 -4 -5 0 -4 hhcurveto
          252 252 -51 callgsubr
          endchar
        </CharString>
        <CharString name="M">
          231 -15 61 -46 46 -30 -21 664 -20 hstemhm
          250 29 30 61 73 68 hintmask 10011110
          529 46 rmoveto
          -11 -7 76 113 103 4 62 8 57 hvcurveto
          37 44 22 51 43 vvcurveto
          30 -27 34 -18 -36 -26 -129 -60 -10 vhcurveto
          -48 -52 -44 -59 -36 -59 -19 57 -30 63 -44 64 rrcurveto
          35 -10 44 -14 -49 -13 -42 -23 -20 11 -26 32 -42 vhcurveto
          -20 -134 -51 -153 -53 -56 -20 callgsubr
          49 65 48 149 20 114 27 -47 19 -47 12 -43 rrcurveto
          -27 -56 -16 -51 -36 vvcurveto
          hintmask 01011110
          -54 14 -25 27 45 34 47 68 34 -5 51 -16 61 vhcurveto
          30 46 37 46 39 38 rrcurveto
          -10 -93 -2 -106 -93 vvcurveto
          -14 0 -62 10 -12 vhcurveto
          hintmask 00111110
          -5 4 25 -11 33 hhcurveto
          42 -106 callgsubr
          hintmask 10011110
          3 callsubr
          -24 hhcurveto
          -250 47 rmoveto
          23 9 30 15 33 vhcurveto
          4 -22 2 -21 -18 vvcurveto
          -26 -5 -49 -15 -5 -5 15 35 vhcurveto
          endchar
        </CharString>
        <CharString name="N">
          41 callsubr
          75 callgsubr
          hintmask 11011100
          -52 callsubr
          hintmask 10111100
          28 callsubr
          hintmask 11011100
          -55 callgsubr
          endchar
        </CharString>
        <CharString name="Nacute">
          41 callsubr
          150 -20 75 callgsubr
          hintmask 11011110
          -52 callsubr
          hintmask 10111110
          28 callsubr
          hintmask 11011110
          -55 callgsubr
          30 594 -107 callsubr
        </CharString>
        <CharString name="Ntilde">
          41 callsubr
          0 36 callsubr
          148 87 -33 234 -156 31 28 70 hintmask 1100110110000000
          -52 callsubr
          hintmask 1010110110000000
          28 callsubr
          hintmask 1100110110000000
          -30 callgsubr
          hintmask 1100101000000000
          67 -17 45 -16 vhcurveto
          hintmask 1001010110000000
          42 callgsubr
          hvcurveto
          -59 callgsubr
          71 553 rmoveto
          hintmask 1100101000000000
          -71 callgsubr
          -50 callsubr
          hintmask 1001010110000000
          -4 callgsubr
        </CharString>
        <CharString name="O">
          166 -3 callsubr
          hstem
          76 callsubr
          78 vstem
          -105 callgsubr
          endchar
        </CharString>
        <CharString name="OE">
          476 -10 36 -36 51 -35 -21 287 31 8 62 -29 29 109 34 46 38 -1 32 hstemhm
          76 callsubr
          93 -25 79 160 53 hintmask 1001101011101000
          688 26 69 callsubr
          35 hvcurveto
          -21 30 30 -11 44 hhcurveto
          24 55 13 22 callsubr
          -25 -26 -7 -11 -27 hvcurveto
          -6 10 -5 11 -3 12 rrcurveto
          123 41 84 75 65 vvcurveto
          38 -19 24 -50 vhcurveto
          hintmask 1001101101011000
          -103 -117 -76 -131 -3 hvcurveto
          106 -29 -86 70 -123 hhcurveto
          -111 -54 -64 -78 hvcurveto
          -66 -57 -34 -91 -87 vvcurveto
          -134 72 -99 138 109 82 51 78 50 vhcurveto
          hintmask 0011101101101000
          -74 14 59 -60 110 hhcurveto
          98 76 32 108 67 hvcurveto
          -51 callsubr
          hintmask 1001101101101000
          -88 -42 -69 -86 -105 hhcurveto
          -232 261 rmoveto
          hintmask 0101101101101000
          -130 -55 -116 -136 -98 -76 101 121 56 16 48 27 36 vhcurveto
          -61 27 65 -31 74 hhcurveto
          42 55 8 15 57 hvcurveto
          2 -17 0 -16 -14 vvcurveto
          -105 76 rmoveto
          -81 -63 33 52 -23 hvcurveto
          22 34 41 12 45 -16 callsubr
          -40 -35 -9 -14 -30 hvcurveto
          40 1 46 29 57 hhcurveto
          114 43 -95 -94 14 hvcurveto
          -7 -35 -33 -3 -31 hhcurveto
          hintmask 1001011011011000
          252 58 rmoveto
          98 55 80 75 18 12 -13 -26 -47 -49 -51 -111 -41 vhcurveto
          77 -77 rmoveto
          -15 callsubr
          -28 -27 11 20 -20 hvcurveto
          6 13 13 4 14 hhcurveto
          -140 14 rmoveto
          8 -13 10 -10 12 -10 -14 -10 -13 -11 -12 -13 rrcurveto
          2 18 1 16 31 vvcurveto
          endchar
        </CharString>
        <CharString name="Oacute">
          168 -3 callsubr
          179 -20 hstem
          21 70 240 68 57 78 vstem
          -105 callgsubr
          66 697 -107 callsubr
        </CharString>
        <CharString name="Ocircumflex">
          168 1 callsubr
          0 89 -46 41 160 -20 hstemhm
          76 callsubr
          78 hintmask 11010111
          441 637 -101 callsubr
          -420 -414 -92 callgsubr
          hintmask 11101111
          -102 callgsubr
          endchar
        </CharString>
        <CharString name="Odieresis">
          170 -3 callsubr
          43 82 hstem
          21 70 111 91 53 91 19 78 vstem
          -105 callgsubr
          -63 647 -96 callsubr
        </CharString>
        <CharString name="Ograve">
          166 -3 callsubr
          -41 201 hstemhm
          76 callsubr
          78 hintmask 11110110
          -105 callgsubr
          75 662 rmoveto
          hintmask 11101110
          -99 callgsubr
        </CharString>
        <CharString name="Oslash">
          181 -86 127 -50 50 505 46 61 -20 hstemhm
          36 71 365 79 hintmask 10111100
          345 592 rmoveto
          -218 -91 -192 -183 -108 62 -93 100 -21 hvcurveto
          -14 -18 -11 -20 -16 vvcurveto
          -16 16 -11 18 vhcurveto
          hintmask 01111100
          37 15 35 42 5 hvcurveto
          181 13 106 166 185 vvcurveto
          129 -62 85 -102 19 vhcurveto
          6 20 5 10 16 vvcurveto
          11 -7 8 -11 -20 -8 -27 -34 -7 vhcurveto
          -30 -46 rmoveto
          6 7 -1 -1 6 hvcurveto
          -39 -174 -21 -170 -47 -148 rrcurveto
          -64 30 -56 82 94 71 callsubr
          58 -16 rmoveto
          60 -34 39 -90 -109 vvcurveto
          -149 -64 -107 -134 vhcurveto
          33 164 31 178 35 147 rrcurveto
          endchar
        </CharString>
        <CharString name="Otilde">
          168 -3 callsubr
          62 36 callsubr
          21 70 112 234 19 78 hintmask 1111101110000000
          -105 callgsubr
          118 689 rmoveto
          hintmask 1111011110000000
          -67 callsubr
          hintmask 1111101110000000
          -64 callsubr
        </CharString>
        <CharString name="P">
          133 -27 230 -35 35 335 42 -42 97 hstemhm
          16 67 71 119 -76 76 191 75 hintmask 10011011
          291 579 rmoveto
          37 -3 19 -11 -25 -17 -26 -38 -11 vhcurveto
          -112 -22 -96 -66 -93 vvcurveto
          -33 callgsubr
          62 60 43 72 17 vhcurveto
          -4 -21 -2 -22 -12 -252 rrcurveto
          61 callsubr
          -6 -17 -16 16 -12 25 -8 hvcurveto
          -4 -71 -2 -31 -22 -38 46 callsubr
          64 5 118 77 hvcurveto
          161 105 86 124 160 -130 42 -100 -6 -6 0 -1 -6 hvcurveto
          173 -229 rmoveto
          -73 -49 -74 -120 -8 -7 1 1 -7 vhcurveto
          209 10 65 5 59 vhcurveto
          88 -4 88 -55 -129 vvcurveto
          endchar
        </CharString>
        <CharString name="Q">
          179 -83 64 9 118 438 46 hstem
          36 71 365 79 vstem
          342 592 rmoveto
          -216 -90 -192 -183 -123 81 -104 125 17 17 2 3 17 hvcurveto
          -37 32 40 -41 34 hhcurveto
          71 38 31 47 30 hvcurveto
          9 14 8 22 14 vvcurveto
          4 -2 6 -8 -9 -8 -10 -15 -10 vhcurveto
          -36 -24 -30 -13 -32 hhcurveto
          -16 -21 17 21 -24 hvcurveto
          115 58 65 133 145 vvcurveto
          148 -80 89 -129 vhcurveto
          -27 -46 rmoveto
          93 64 -108 -141 -123 -44 -95 -89 -29 hvcurveto
          30 -32 -34 28 -29 hhcurveto
          -17 -25 -13 -16 -16 hvcurveto
          -45 39 -34 66 74 71 callsubr
          endchar
        </CharString>
        <CharString name="R">
          11 callgsubr
          58 callgsubr
          hintmask 1101011010000000
          -97 callgsubr
          hintmask 1100110110000000
          -72 callsubr
          hintmask 1010111010000000
          -73 callsubr
          endchar
        </CharString>
        <CharString name="Racute">
          11 callgsubr
          135 -20 74 callgsubr
          140 68 19 75 hintmask 1101011101100000
          -97 callgsubr
          hintmask 1100111011100000
          -72 callsubr
          hintmask 1010111101100000
          -73 callsubr
          34 527 -107 callsubr
        </CharString>
        <CharString name="Rcaron">
          11 callgsubr
          -97 226 6 -20 58 callgsubr
          hintmask 1101001110100000
          -97 callgsubr
          hintmask 1100101101100000
          -72 callsubr
          hintmask 1010010110100000
          -73 callsubr
          -105 561 -49 callgsubr
          hintmask 1100101110100000
          21 callsubr
        </CharString>
        <CharString name="Rcommaaccent">
          164 -264 190 -44 7 callsubr
          74 callgsubr
          -7 106 -83 83 -66 66 128 75 hintmask 0110101100101000
          -97 callgsubr
          hintmask 1010011010101000
          -72 callsubr
          hintmask 1001011100011000
          -73 callsubr
          -51 -266 15 callsubr
          2 callgsubr
          hintmask 1010011001001000
          -68 callgsubr
        </CharString>
        <CharString name="S">
          53 callsubr
          hstemhm
          12 78 -9 85 176 57 -57 80 hintmask 10011010
          39 callsubr
          hintmask 10100110
          -5 callgsubr
          hintmask 01101001
          -7 callgsubr
          hintmask 10010110
          54 callgsubr
          endchar
        </CharString>
        <CharString name="Sacute">
          53 callsubr
          189 -20 hstemhm
          12 78 -9 85 121 68 -13 57 -57 80 hintmask 1001110100000000
          39 callsubr
          hintmask 1010101010000000
          -5 callgsubr
          hintmask 0110110001000000
          -7 callgsubr
          hintmask 1001101100000000
          54 callgsubr
          22 180 -107 callsubr
        </CharString>
        <CharString name="T">
          0 -5 40 -40 148 227 35 -35 57 42 40 24 73 15 -20 hstemhm
          11 33 -33 191 -129 63 171 69 hintmask 1010110101100000
          27 callgsubr
          hintmask 0110101101100000
          26 callsubr
          87 -1 69 vhcurveto
          -8 45 49 -6 52 hhcurveto
          59 66 34 36 3 -2 4 -6 -6 -5 -3 -5 -6 hvcurveto
          -16 -19 -32 -13 -28 hhcurveto
          -56 -56 13 17 -55 hvcurveto
          47 -1 35 -14 -25 -13 -25 -38 -7 vhcurveto
          hintmask 1001110010100000
          24 -75 -75 24 -76 hhcurveto
          -39 -38 -26 -73 -54 51 -83 63 callgsubr
          hintmask 1010110101100000
          69 callgsubr
          30 34 5 29 55 67 -20 -17 78 hvcurveto
          endchar
        </CharString>
        <CharString name="Thorn">
          117 -27 199 -33 33 268 34 -34 195 hstemhm
          0 67 70 120 -72 90 171 75 hintmask 10011011
          275 596 rmoveto
          20 -3 19 -11 -44 -23 -82 -88 -2 vhcurveto
          -105 -21 -87 -52 -72 vvcurveto
          -18 11 -10 19 20 17 15 28 48 56 35 67 14 vhcurveto
          -10 -233 rlineto
          61 callsubr
          -10 -14 -14 15 -9 25 -6 hvcurveto
          -3 -50 -5 -27 -18 -32 46 callsubr
          59 9 100 66 1 hvcurveto
          30 hlineto
          121 113 70 101 130 -130 34 -99 -9 -9 0 -1 -9 hvcurveto
          hintmask 10011011
          5 46 5 38 39 vvcurveto
          171 -309 rmoveto
          -59 -49 -56 -119 vhcurveto
          hintmask 10011101
          -7 -7 0 2 -7 hvcurveto
          149 2 82 3 35 vhcurveto
          92 -1 92 -44 -108 vvcurveto
          endchar
        </CharString>
        <CharString name="U">
          89 -5 55 530 57 callsubr
          hintmask 11010100
          415 46 rmoveto
          -5 -44 callsubr
          49 callsubr
          -89 callsubr
          38 -62 callsubr
          endchar
        </CharString>
        <CharString name="Uacute">
          51 callsubr
          129 68 -29 80 hintmask 11100010
          -21 callgsubr
          vhcurveto
          hintmask 11100100
          50 callsubr
          hvcurveto
          hintmask 11010010
          -74 callsubr
          -115 673 -107 callsubr
        </CharString>
        <CharString name="Ucircumflex">
          99 -5 55 530 35 155 57 callsubr
          hintmask 11101010
          -23 callgsubr
          hintmask 11100110
          -96 callgsubr
          hintmask 11110010
          -75 callgsubr
          39 -62 callsubr
          -18 591 -98 callgsubr
        </CharString>
        <CharString name="Udieresis">
          99 -5 55 573 82 23 callsubr
          -10 91 53 91 -57 80 hintmask 11010101
          -23 callgsubr
          hintmask 11001010
          -96 callgsubr
          hintmask 11100110
          -75 callgsubr
          38 -106 callgsubr
          3 callsubr
          -21 hhcurveto
          -254 612 -96 callsubr
        </CharString>
        <CharString name="Ugrave">
          51 callsubr
          168 80 hintmask 11010100
          416 46 rmoveto
          -6 0 15 12 71 0 29 10 134 hvcurveto
          23 99 17 51 65 vvcurveto
          10 0 48 -16 -21 -52 -43 -10 -2 vhcurveto
          -74 callsubr
          -136 657 -95 callsubr
        </CharString>
        <CharString name="V">
          87 -20 50 684 -20 hstemhm
          76 80 56 38 90 144 -53 53 hintmask 11111000
          234 -20 rmoveto
          116 134 223 295 83 -14 133 -92 -17 -21 -18 -20 -28 18 -18 20 -17 hvcurveto
          hintmask 11110100
          34 -31 19 -24 -127 vvcurveto
          -212 -107 -189 -67 -34 -15 25 38 -13 vhcurveto
          -15 43 -14 53 -6 73 rrcurveto
          50 66 40 75 90 vvcurveto
          59 -16 28 -35 -88 -35 -128 -133 -32 2 -41 6 -43 vhcurveto
          -19 -22 -21 -22 -20 -20 rrcurveto
          -4 -4 -2 -5 -3 vvcurveto
          -5 4 -5 8 6 4 3 6 5 vhcurveto
          13 16 15 17 15 17 7 -44 11 -45 15 -35 rrcurveto
          -50 21 37 -22 55 hhcurveto
          -22 500 rmoveto
          -65 -22 -60 -33 -55 vhcurveto
          -1 17 0 17 19 vvcurveto
          98 29 82 15 9 3 -23 -30 vhcurveto
          endchar
        </CharString>
        <CharString name="W">
          269 -15 68 526 48 hstemhm
          92 75 90 34 86 69 91 128 -42 42 hintmask 11111100
          623 338 rmoveto
          -132 -73 -153 -43 -33 -28 167 186 vhcurveto
          29 6 22 23 vvcurveto
          19 -11 10 -15 -10 -51 -29 -21 -2 vhcurveto
          -203 -20 -92 -203 -37 hhcurveto
          -20 -26 83 142 -1 hvcurveto
          91 29 33 128 92 vvcurveto
          68 -22 32 -45 -79 -45 -174 -144 -8 vhcurveto
          6 -31 -30 9 -11 hhcurveto
          -9 -11 -1 -9 -9 8 -5 8 -4 hvcurveto
          12 -6 26 -11 37 -5 rrcurveto
          -101 5 -80 15 -44 vhcurveto
          -41 13 30 -23 25 hhcurveto
          107 57 201 146 34 hvcurveto
          -184 25 -163 66 71 126 138 263 79 -12 155 -87 -15 -14 -14 -20 -26 18 -24 17 -17 vhcurveto
          hintmask 11111010
          30 -30 21 -24 -127 vvcurveto
          -366 169 rmoveto
          -54 -26 -119 -64 -25 vhcurveto
          108 4 33 162 31 hhcurveto
          9 13 -22 -50 hvcurveto
          endchar
        </CharString>
        <CharString name="X">
          104 -20 81 173 -20 386 -20 hstem
          405 -20 rmoveto
          62 99 220 42 2 hvcurveto
          11 -6 8 -4 -7 -8 -13 -14 -6 vhcurveto
          -69 -31 -51 -104 -30 hhcurveto
          -18 -52 102 112 -53 hvcurveto
          43 75 49 78 32 46 rrcurveto
          32 45 34 1 59 vvcurveto
          14 -10 7 -18 -51 -73 -211 -72 -58 vhcurveto
          -36 77 -35 77 -24 46 rrcurveto
          35 -9 48 -39 -32 -11 -81 -46 -12 13 -22 18 -29 vhcurveto
          -16 -44 -17 -39 -24 -43 rrcurveto
          -4 -8 -7 -14 -15 vvcurveto
          -8 4 -5 7 9 10 8 18 7 vhcurveto
          15 34 20 42 17 42 19 -29 21 -34 39 -77 rrcurveto
          -114 -149 -87 -43 -37 vvcurveto
          -15 9 -14 41 36 68 97 112 69 vhcurveto
          29 -63 33 -70 29 -39 rrcurveto
          -18 13 20 -19 32 hhcurveto
          endchar
        </CharString>
        <CharString name="Y">
          99 22 callgsubr
          55 550 -20 55 callsubr
          126 77 hintmask 11101110
          75 callsubr
          hintmask 11110110
          -63 callgsubr
          hintmask 11101110
          -73 callgsubr
          endchar
        </CharString>
        <CharString name="Yacute">
          99 22 callgsubr
          55 720 -20 55 callsubr
          86 68 -28 77 hintmask 11101110
          75 callsubr
          hintmask 11110101
          -63 callgsubr
          hintmask 11101101
          -73 callgsubr
          hintmask 11110110
          86 923 -107 callsubr
        </CharString>
        <CharString name="Ydieresis">
          99 22 callgsubr
          55 603 82 55 callsubr
          -45 91 53 91 -64 77 hintmask 1110110100000000
          75 callsubr
          hintmask 1111001100000000
          -26 callgsubr
          62 73 98 93 47 vhcurveto
          -3 -41 -3 -48 -2 -46 rrcurveto
          hintmask 1110110010000000
          -91 callgsubr
          -35 -17 41 99 hvcurveto
          -73 callgsubr
          hintmask 1111001100000000
          -45 892 -96 callsubr
        </CharString>
        <CharString name="Z">
          27 callsubr
          hstemhm
          hintmask 10100000
          427 435 rmoveto
          13 callsubr
          hintmask 01010000
          -65 callgsubr
          hintmask 10100000
          74 92 -86 54 hhcurveto
          -25 callgsubr
          -28 -10 callsubr
          14 86 -10 callgsubr
          endchar
        </CharString>
        <CharString name="Zacute">
          27 callsubr
          150 -20 9 callgsubr
          -98 198 -107 callgsubr
          7 -744 rmoveto
          -25 callgsubr
          -28 -60 callsubr
          106 -86 40 hhcurveto
          endchar
        </CharString>
        <CharString name="Zdotaccent">
          27 callsubr
          3 82 9 callgsubr
          -161 137 -90 callgsubr
          72 -683 rmoveto
          -25 callgsubr
          -30 -60 callsubr
          108 -86 40 hhcurveto
          endchar
        </CharString>
        <CharString name="_0000">
          -420 endchar
        </CharString>
        <CharString name="a">
          16 callgsubr
          hstem
          0 68 149 71 vstem
          -106 callsubr
          endchar
        </CharString>
        <CharString name="aacute">
          16 callgsubr
          205 25 callsubr
          68 136 68 -55 71 hintmask 11110100
          -106 callsubr
          hintmask 11111000
          45 194 -107 callsubr
        </CharString>
        <CharString name="acircumflex">
          16 callgsubr
          0 57 155 25 callsubr
          68 149 71 hintmask 11011100
          -106 callsubr
          140 119 -103 callgsubr
          hintmask 10111100
          -2 callgsubr
        </CharString>
        <CharString name="acute">
          -72 436 -21 149 -20 hstem
          179 68 vstem
          179 513 -107 callsubr
        </CharString>
        <CharString name="adieresis">
          16 callgsubr
          93 82 hstemhm
          0 68 16 91 42 71 -71 102 hintmask 11111100
          -106 callsubr
          -75 168 -91 callsubr
          vhcurveto
          hintmask 11111010
          -67 callgsubr
          hvcurveto
          endchar
        </CharString>
        <CharString name="ae">
          59 -5 52 268 40 hstem
          8 68 132 69 88 54 vstem
          350 47 rmoveto
          -29 -19 17 25 -12 hvcurveto
          73 61 56 89 60 vvcurveto
          40 -25 16 -31 -45 -38 -17 -33 -27 vhcurveto
          25 -19 -35 25 -26 -32 callgsubr
          48 -41 56 34 43 18 30 43 hvcurveto
          -28 18 28 -20 42 7 callgsubr
          -142 87 rmoveto
          -21 3 -21 6 -19 vhcurveto
          -16 -26 -28 -9 -27 hhcurveto
          -42 -18 19 callsubr
          53 31 26 28 -20 -19 14 hvcurveto
          -18 -35 -9 -47 -60 vvcurveto
          157 150 rmoveto
          -42 -30 -70 -55 -49 vhcurveto
          -2 11 -1 11 11 vvcurveto
          76 28 91 40 16 4 -18 -21 vhcurveto
          endchar
        </CharString>
        <CharString name="agrave">
          16 callgsubr
          -40 245 hstemhm
          0 68 149 71 hintmask 11011000
          -106 callsubr
          32 178 rmoveto
          hintmask 10111000
          -99 callgsubr
        </CharString>
        <CharString name="ampersand">
          112 -20 -21 28 41 545 39 hstem
          0 85 4 63 160 74 16 65 vstem
          89 463 rmoveto
          -38 19 -54 32 -59 vhcurveto
          -73 -48 -67 -53 -80 vvcurveto
          -72 49 -72 134 71 60 20 32 46 vhcurveto
          -48 60 62 -32 56 hhcurveto
          21 39 21 16 13 -25 2 -43 19 hvcurveto
          -30 13 -38 23 -40 32 rrcurveto
          29 40 16 47 45 vvcurveto
          39 -23 37 -48 -27 -22 -11 -19 -6 2 -5 11 -2 vhcurveto
          24 -3 18 -26 -33 vvcurveto
          -25 -6 -24 -11 -23 vhcurveto
          -61 53 -62 67 -45 65 15 10 15 9 14 10 rrcurveto
          51 35 74 50 73 vvcurveto
          71 -59 40 -77 -107 -54 -77 -72 vhcurveto
          -4 -308 rmoveto
          54 32 36 42 31 vhcurveto
          45 -74 61 -77 66 -60 rrcurveto
          -23 -31 -38 -14 -42 hhcurveto
          -76 -59 56 71 hvcurveto
          227 331 rmoveto
          -56 -54 -41 -62 -41 vhcurveto
          -27 46 -17 45 37 vvcurveto
          46 19 51 58 53 30 -37 -50 vhcurveto
          endchar
        </CharString>
        <CharString name="ampersand.2">
          287 -43 46 230 177 -160 160 -113 44 40 29 77 158 -32 32 hstemhm
          61 89 -15 72 141 46 1 73 47 58 23 67 hintmask 1001110101111000
          323 341 rmoveto
          -29 -24 10 19 -22 hvcurveto
          7 14 14 4 15 hhcurveto
          29 27 -9 -16 -7 -10 -8 -14 hvcurveto
          25 -165 rmoveto
          -30 20 -30 19 9 8 4 13 vhcurveto
          10 -10 5 19 vvcurveto
          hintmask 1100010101111000
          50 30 16 41 34 16 -34 -32 -92 -54 -72 -138 -124 -49 107 93 45 19 44 33 36 vhcurveto
          hintmask 1001110101111000
          -21 29 40 -10 39 hhcurveto
          38 46 25 40 hvcurveto
          hintmask 1010001011111000
          31 -33 17 -49 -30 -29 -6 -11 -27 vhcurveto
          -12 18 -7 22 25 vvcurveto
          84 56 71 71 40 21 -38 -29 vhcurveto
          -13 -2 -10 -6 vvcurveto
          hintmask 1100010011111000
          -20 12 -10 17 27 19 22 32 55 -55 49 -75 -104 -99 -66 -130 -37 12 -32 18 -23 vhcurveto
          hintmask 1010010101111000
          -61 -45 -43 -77 -69 vvcurveto
          -130 85 -79 157 142 128 87 133 24 -5 36 -11 13 vhcurveto
          78 6 28 41 38 vvcurveto
          46 -28 24 -48 -19 -6 -10 -8 -8 6 -3 8 -2 vhcurveto
          14 -4 6 -8 -17 vvcurveto
          -28 -37 -11 -73 -10 vhcurveto
          -110 -15 -28 -40 -65 vvcurveto
          endchar
        </CharString>
        <CharString name="aogonek">
          -37 -173 48 120 53 267 40 hstemhm
          0 68 149 58 -58 71 -71 136 hintmask 11110010
          104 -5 rmoveto
          52 30 50 78 31 hvcurveto
          -1 -24 -1 -21 -11 -80 callgsubr
          4 -4 17 -9 26 -2 rrcurveto
          -25 -33 -21 -37 -43 -42 callgsubr
          hintmask 11111000
          78 callgsubr
          38 22 35 29 35 hvcurveto
          24 29 31 45 33 70 rrcurveto
          40 callsubr
          -39 callsubr
          -22 -1 rrcurveto
          hintmask 11110100
          -39 callgsubr
          79 2 66 -50 callgsubr
          -35 -33 -9 -68 callsubr
          hvcurveto
          55 320 rmoveto
          -74 callgsubr
          endchar
        </CharString>
        <CharString name="aring">
          16 callgsubr
          80 29 -29 117 hstemhm
          0 68 74 38 37 71 -58 29 hintmask 11101110
          281 -5 rmoveto
          39 -103 callsubr
          -22 24 callgsubr
          2 66 -50 callgsubr
          -35 -33 -9 -68 callsubr
          52 30 50 78 31 hvcurveto
          -1 -24 -1 -21 -11 -97 callsubr
          -122 320 rmoveto
          hintmask 11011101
          -74 callgsubr
          51 237 rmoveto
          -46 -22 -38 -30 -23 17 -26 33 41 26 45 callgsubr
          hintmask 11101110
          45 callsubr
        </CharString>
        <CharString name="asciicircum">
          116 416 -21 241 -20 hstem
          433 432 rmoveto
          9 -35 9 -25 22 vhcurveto
          -63 55 -6 26 -15 56 rrcurveto
          14 -4 -8 13 -12 hhcurveto
          -15 -23 -18 -18 -10 hvcurveto
          -37 -64 7 -21 -93 -76 rrcurveto
          -9 -8 -25 -9 -10 vvcurveto
          -12 2 14 -5 20 hhcurveto
          23 79 60 99 39 hvcurveto
          -118 42 81 -33 31 hhcurveto
          16 26 18 11 hvcurveto
          endchar
        </CharString>
        <CharString name="asciitilde">
          35 169 73 -1 55 hstemhm
          hintmask 01000000
          156 296 rmoveto
          -38 -71 -56 -48 -7 4 -5 6 hvcurveto
          27 24 61 37 hhcurveto
          hintmask 10000000
          48 36 -72 64 hhcurveto
          59 53 56 57 5 -4 2 -5 hvcurveto
          -19 -9 -47 -54 hhcurveto
          hintmask 01000000
          -44 -47 54 -67 hhcurveto
          endchar
        </CharString>
        <CharString name="asterisk">
          -47 320 127 -82 192 -138 28 -28 178 46 -20 hstemhm
          62 164 -128 202 -108 34 -34 143 hintmask 1000101000000000
          98 348 rmoveto
          -17 15 -11 19 40 11 63 40 13 vhcurveto
          hintmask 0100101000000000
          -32 30 32 -26 30 hhcurveto
          5 7 3 8 22 -61 36 -18 18 hvcurveto
          30 12 30 15 30 18 rrcurveto
          hintmask 0100100010000000
          11 6 13 14 19 vvcurveto
          13 -3 8 -12 -34 -44 -49 -17 -29 vhcurveto
          hintmask 0001100100000000
          8 38 5 36 27 vvcurveto
          29 -2 22 -13 -15 -3 -22 -24 -1 vhcurveto
          -2 -32 -6 -32 -8 -28 -16 21 -10 16 -18 22 rrcurveto
          10 -9 -15 23 -18 hhcurveto
          hintmask 0010110000000000
          -12 -16 -6 -17 -29 24 -13 28 -21 hvcurveto
          13 -11 15 -18 17 -19 rrcurveto
          -11 -29 -33 -5 -45 hhcurveto
          -11 -11 -3 -9 hvcurveto
          -13 1 16 -3 25 hhcurveto
          24 24 3 5 25 hvcurveto
          hintmask 1000101000000000
          -15 -33 -32 -18 -28 vvcurveto
          endchar
        </CharString>
        <CharString name="at">
          307 -181 57 119 38 -38 53 267 40 126 38 hstemhm
          0 77 103 68 153 66 139 78 hintmask 1101111110000000
          406 11 rmoveto
          -11 14 20 -5 30 hhcurveto
          143 71 112 150 109 -98 153 -174 -251 -161 -179 -245 -168 119 -108 165 106 79 34 25 46 hvcurveto
          30 16 33 24 14 vvcurveto
          11 -3 3 -5 -10 -13 -8 -17 -34 vhcurveto
          -21 -42 -67 -24 -67 hhcurveto
          -132 -128 90 167 167 119 181 195 149 66 -125 -143 -65 -40 -115 -71 -11 -8 6 7 -4 hvcurveto
          -5 9 0 45 31 vvcurveto
          57 5 36 8 18 vhcurveto
          15 33 2 43 -70 callsubr
          -37 -42 -10 -68 callsubr
          54 30 54 84 33 hvcurveto
          -1 -28 -1 -26 -12 -80 callgsubr
          -67 304 rmoveto
          24 37 -26 -20 11 hvcurveto
          -4 -50 rlineto
          hintmask 1011111110000000
          -118 -45 -30 -53 52 callgsubr
        </CharString>
        <CharString name="atilde">
          16 callgsubr
          86 36 callsubr
          0 68 15 234 -100 71 hintmask 11101010
          -106 callsubr
          104 184 rmoveto
          hintmask 11011100
          -67 callsubr
          hintmask 11101100
          -64 callsubr
        </CharString>
        <CharString name="b">
          -62 -5 45 124 42 103 36 255 25 callsubr
          78 -78 140 3 24 hintmask 11110110
          187 345 rmoveto
          -20 -16 -3 -5 -12 hvcurveto
          15 55 13 63 62 vvcurveto
          50 -15 33 -12 -53 -87 -132 -298 -99 13 -76 87 67 108 56 130 17 vhcurveto
          36 13 35 18 23 17 37 callsubr
          -15 -8 -31 -14 -30 -9 rrcurveto
          82 -1 -46 45 -60 hhcurveto
          22 -181 rmoveto
          7 8 0 1 8 hvcurveto
          -99 -12 -63 -26 -35 hhcurveto
          hintmask 11111010
          -29 -12 41 101 -3 hvcurveto
          5 9 9 17 9 22 rrcurveto
          -42 15 46 -24 47 hhcurveto
          -66 335 rmoveto
          -76 -42 -123 -24 -68 vhcurveto
          156 38 153 17 7 4 -23 -19 vhcurveto
          28 -190 rmoveto
          47 15 -58 -45 1 hvcurveto
          hintmask 11110110
          -51 -43 30 42 19 13 12 18 hvcurveto
          endchar
        </CharString>
        <CharString name="backslash">
          68 callsubr
          283 -111 rmoveto
          52 -77 125 -24 47 vhcurveto
          -73 143 -27 201 -40 87 rrcurveto
          13 -6 -11 20 -18 hhcurveto
          -6 -1 -7 -6 -8 1 -7 5 -20 hvcurveto
          41 -177 50 -215 75 -189 rrcurveto
          -53 21 37 -46 23 hhcurveto
          18 12 25 15 hvcurveto
          endchar
        </CharString>
        <CharString name="bar">
          62 callsubr
          53 -14 40 hintmask 11100000
          74 -167 rmoveto
          24 5 64 58 3 hvcurveto
          hintmask 11010000
          12 220 14 203 192 vvcurveto
          64 callgsubr
          hintmask 11100000
          -21 -373 -18 -194 -67 vvcurveto
          -51 5 -40 16 vhcurveto
          endchar
        </CharString>
        <CharString name="braceleft">
          -125 61 callgsubr
          hstemhm
          40 145 -101 70 -46 77 hintmask 11001000
          132 268 rmoveto
          38 25 15 28 42 vvcurveto
          -1 46 -5 28 36 vvcurveto
          39 7 50 38 25 vhcurveto
          12 7 19 6 8 vvcurveto
          3 -5 7 -23 -75 -44 -85 -78 -32 10 -24 1 -40 vhcurveto
          -27 -6 -17 -14 -19 vhcurveto
          -7 -5 -8 -2 -8 -4 -8 2 -4 hhcurveto
          hintmask 11100000
          -11 -11 -17 -12 -14 9 -4 8 14 17 3 0 hvcurveto
          9 -10 9 -40 -21 vvcurveto
          hintmask 11010000
          -44 -22 -37 -41 vvcurveto
          -96 54 -58 54 22 6 5 3 8 -18 8 -11 7 vhcurveto
          -30 24 -7 39 35 51 21 46 47 vvcurveto
          36 -14 44 -29 17 vhcurveto
          endchar
        </CharString>
        <CharString name="braceright">
          -146 61 callgsubr
          hstemhm
          80 77 -77 145 -114 70 hintmask 11100000
          133 261 rmoveto
          -38 -25 -15 -41 -42 vvcurveto
          1 -46 5 -28 -36 vvcurveto
          -39 -7 -50 -38 -25 vhcurveto
          -12 -7 -19 -6 -8 vvcurveto
          -3 5 -7 23 75 44 85 78 32 -10 24 -1 40 vhcurveto
          27 6 30 14 19 vhcurveto
          7 5 8 2 8 4 8 -2 4 hhcurveto
          hintmask 11010000
          11 11 17 12 14 -9 4 -8 -14 -17 -3 0 hvcurveto
          -9 10 -9 27 21 vvcurveto
          hintmask 11001000
          44 22 37 41 vvcurveto
          96 -54 58 -54 -22 -6 -5 -3 -8 18 -8 11 -7 vhcurveto
          30 -24 7 -39 -35 -51 -21 -46 -47 vvcurveto
          -36 14 -31 29 -17 vhcurveto
          endchar
        </CharString>
        <CharString name="bracketleft">
          -48 -130 37 -37 53 632 40 hstemhm
          75 69 -40 64 -64 245 hintmask 01100100
          87 -119 rmoveto
          -7 16 40 -4 27 hhcurveto
          82 57 8 6 17 hvcurveto
          9 3 14 9 12 vvcurveto
          5 -6 10 -11 vhcurveto
          hintmask 10110000
          -48 -1 -16 -71 hhcurveto
          -22 -37 1 6 -4 hvcurveto
          -5 7 0 46 9 vvcurveto
          hintmask 10101000
          72 24 279 167 vvcurveto
          37 11 14 4 4 vhcurveto
          5 5 30 1 34 19 36 -4 16 hhcurveto
          17 14 4 13 15 -12 12 -12 hvcurveto
          -33 -36 -5 -34 -34 -38 5 -10 hhcurveto
          -34 -7 -72 -33 hvcurveto
          hintmask 10110000
          -192 -29 -178 -204 vvcurveto
          -22 5 -10 7 -3 vhcurveto
          endchar
        </CharString>
        <CharString name="bracketright">
          -84 -129 33 641 50 -30 30 hstemhm
          184 73 -47 60 hintmask 11010000
          258 584 rmoveto
          7 -16 -33 4 -27 hhcurveto
          -82 -23 -4 -6 -17 hvcurveto
          -9 -3 -14 -7 -12 vvcurveto
          -5 0 -13 26 vhcurveto
          hintmask 10101000
          30 9 20 43 hhcurveto
          37 19 -4 -6 4 hvcurveto
          5 -7 0 -50 -9 vvcurveto
          hintmask 11010000
          -72 -26 -279 -167 vvcurveto
          -37 -11 -14 -4 -4 vhcurveto
          -5 -5 -22 -7 -34 -19 -48 10 -12 hhcurveto
          -13 -11 -4 -11 -14 8 -7 9 -1 hvcurveto
          -3 25 45 -3 34 hhcurveto
          34 55 9 3 9 hvcurveto
          32 11 1 49 33 vvcurveto
          hintmask 11001000
          192 13 177 204 vvcurveto
          22 -5 10 -7 3 vhcurveto
          endchar
        </CharString>
        <CharString name="brokenbar">
          62 callsubr
          62 -34 65 -47 47 hintmask 11001000
          81 309 rmoveto
          -23 5 -17 19 14 16 14 19 3 vhcurveto
          8 63 0 118 87 vvcurveto
          15 -6 16 -14 -20 -6 -25 -18 -1 vhcurveto
          hintmask 11010000
          -6 -94 -12 -83 -72 vvcurveto
          -8 -108 rmoveto
          hintmask 11100000
          -14 -148 -6 -88 -41 vvcurveto
          -51 6 -40 19 28 5 64 58 4 vhcurveto
          5 86 12 84 82 vvcurveto
          20 -8 9 -17 -19 -13 -13 -22 -2 vhcurveto
          endchar
        </CharString>
        <CharString name="bullet">
          -205 150 133 hstem
          16 147 vstem
          16 208 rmoveto
          -44 43 -14 22 50 32 28 56 29 -27 20 -30 -37 -53 -18 -57 vhcurveto
          endchar
        </CharString>
        <CharString name="c">
          -134 -5 52 65 callsubr
          hstemhm
          0 71 116 57 hintmask 10111000
          -25 callsubr
          hintmask 11011000
          -14 callsubr
          endchar
        </CharString>
        <CharString name="cacute">
          -134 -5 52 65 callsubr
          205 25 callsubr
          71 116 57 -57 77 hintmask 10111100
          -25 callsubr
          hintmask 11011100
          -14 callsubr
          -107 309 -102 callsubr
          hintmask 11011010
          -30 callsubr
        </CharString>
        <CharString name="caron">
          -78 441 -21 150 -20 hstem
          60 553 -26 callsubr
        </CharString>
        <CharString name="ccedilla">
          -134 -150 34 112 51 65 callsubr
          hstemhm
          0 71 -24 126 -54 54 14 57 hintmask 11011011
          -25 callsubr
          hintmask 11101011
          -1 callsubr
          -47 26 -67 68 -11 vhcurveto
          -4 -6 -3 -6 -7 44 callsubr
          hintmask 11100101
          40 callgsubr
          14 vvcurveto
          3 1 3 3 2 vhcurveto
          96 6 52 87 36 72 rrcurveto
          13 26 16 46 -93 callsubr
          -10 -9 -32 -28 -14 vhcurveto
          endchar
        </CharString>
        <CharString name="cent">
          -52 -46 -21 109 182 0 131 -131 176 hstemhm
          19 66 -66 149 -149 169 39 50 hintmask 11000101
          140 -67 rmoveto
          14 7 27 37 4 hvcurveto
          108 11 65 149 25 vvcurveto
          7 -4 5 -3 -6 -5 -7 -9 -5 vhcurveto
          -42 -21 -52 -94 -74 hhcurveto
          hintmask 10100011
          10 150 7 82 3 49 rrcurveto
          23 16 -9 -20 hvcurveto
          -19 -8 -18 -14 vvcurveto
          66 callsubr
          17 24 22 55 25 -23 29 -46 -4 -8 0 -1 -5 vhcurveto
          5 1 9 5 vvcurveto
          hintmask 10011001
          16 -1 11 -13 -19 -2 -28 -24 -1 vhcurveto
          -75 -21 -62 -73 -132 vvcurveto
          -47 36 -69 71 -10 vhcurveto
          -1 -7 0 -9 -7 vvcurveto
          -18 3 -22 12 vhcurveto
          -55 217 rmoveto
          59 28 75 43 27 vhcurveto
          -22 -258 rlineto
          -27 18 -22 38 41 vvcurveto
          endchar
        </CharString>
        <CharString name="circumflex">
          -78 441 -21 155 -20 hstem
          281 442 -98 callgsubr
        </CharString>
        <CharString name="colon">
          -215 -18 88 197 88 hstem
          69 97 vstem
          69 20 -58 callgsubr
          285 vmoveto
          31 callsubr
        </CharString>
        <CharString name="comma">
          -268 77 callgsubr
          hstemhm
          16 16 callsubr
          hintmask 10100000
          78 76 -40 callgsubr
        </CharString>
        <CharString name="copyright">
          28 270 27 43 21 -21 189 -19 91 -25 25 hstemhm
          39 53 45 40 62 27 65 50 hintmask 1101011110000000
          223 510 rmoveto
          10 6 -6 -7 hvcurveto
          -10 -5 -11 -7 vvcurveto
          -5 1 -5 7 11 13 12 28 vhcurveto
          hintmask 1010111110000000
          13 -10 17 -24 -46 -49 -39 -84 -30 21 -36 43 43 17 19 25 19 vhcurveto
          3 4 1 4 3 vvcurveto
          4 -2 4 -5 -5 -5 -6 -3 -2 vhcurveto
          hintmask 1101011110000000
          -18 -14 -15 -15 -20 hhcurveto
          -29 -10 31 25 44 18 49 28 hvcurveto
          hintmask 1100111110000000
          2 66 rmoveto
          66 40 -51 -87 -78 -53 -63 -75 -53 -58 43 78 83 57 75 76 hvcurveto
          16 25 rmoveto
          -136 -66 -102 -101 -86 71 -42 72 127 72 89 106 86 -66 50 -74 hvcurveto
          endchar
        </CharString>
        <CharString name="currency">
          -3 68 40 275 33 hstem
          37 71 199 68 vstem
          229 416 rmoveto
          -39 -33 -11 -17 -27 hvcurveto
          -22 30 -22 15 -19 -7 -7 -3 3 -11 3 -8 3 -7 14 -18 12 -19 rrcurveto
          -39 -42 -19 -57 -49 vvcurveto
          -31 6 -28 13 -22 vhcurveto
          -13 -14 -18 -23 -4 -12 -6 -19 7 -10 15 -3 18 -3 19 11 25 30 rrcurveto
          -13 23 28 -7 34 hhcurveto
          39 34 11 20 29 hvcurveto
          26 -32 19 -11 19 3 15 3 7 10 -6 19 -4 12 -20 25 -13 13 rrcurveto
          30 40 16 51 56 vvcurveto
          39 -12 29 -20 21 vhcurveto
          11 16 10 13 3 6 3 8 3 11 -7 3 -18 6 -20 -12 -21 -26 rrcurveto
          10 -22 -27 4 -29 hhcurveto
          -33 -308 rmoveto
          -68 -20 76 46 61 43 92 65 61 30 -71 -50 -66 -40 -88 -71 hvcurveto
          endchar
        </CharString>
        <CharString name="d">
          -26 -5 53 271 36 245 -20 hstem
          0 78 146 68 vstem
          285 -5 rmoveto
          40 -103 callsubr
          -23 -1 rrcurveto
          -39 callgsubr
          71 1 83 13 100 hvcurveto
          -9 callgsubr
          -39 -44 -9 -5 vhcurveto
          -8 -16 -12 -97 -9 -107 rrcurveto
          18 -25 -30 10 -20 -32 callgsubr
          49 -41 56 55 34 59 87 33 hvcurveto
          -2 -37 -1 -31 -23 -8 callsubr
          15 -11 33 hhcurveto
          -126 324 rmoveto
          24 32 -6 -20 22 hvcurveto
          -1 -20 -3 -23 -1 -22 rrcurveto
          -115 -37 -35 -65 -31 hhcurveto
          -30 -21 58 63 93 50 57 31 hvcurveto
          endchar
        </CharString>
        <CharString name="dagger">
          -53 -146 -21 522 44 -44 66 -66 246 hstemhm
          15 188 -79 53 -26 26 -26 198 hintmask 10100001
          349 410 28 callgsubr
          hintmask 11001000
          -12 -29 -37 -2 -48 hhcurveto
          2 58 2 57 56 vvcurveto
          hintmask 10011000
          64 callgsubr
          hintmask 11001000
          -9 -159 rlineto
          3 -87 -12 9 -10 14 callsubr
          hhcurveto
          hintmask 11000010
          17 13 0 -1 12 hvcurveto
          hintmask 11000100
          -16 -242 -11 -134 -54 vvcurveto
          -51 5 -40 16 24 5 64 58 3 vhcurveto
          7 138 9 131 5 126 rrcurveto
          -2 24 28 -2 57 hhcurveto
          hintmask 11000001
          60 callgsubr
        </CharString>
        <CharString name="degree">
          -140 386 29 135 39 -39 51 hstemhm
          18 49 133 37 hintmask 10111000
          126 415 rmoveto
          -30 -29 35 41 43 24 46 28 5 hvcurveto
          10 2 2 2 3 vvcurveto
          5 -3 4 -11 -65 -34 -69 -55 -43 28 -48 62 89 40 57 70 vhcurveto
          hintmask 11011000
          55 -42 21 -21 -25 -13 -8 41 callgsubr
          -18 -40 -56 hvcurveto
          endchar
        </CharString>
        <CharString name="dieresis">
          -53 448 82 hstem
          63 91 53 91 vstem
          63 483 -96 callsubr
        </CharString>
        <CharString name="divide">
          -36 87 88 46 44 -44 66 21 88 hstemhm
          131 97 -82 97 hintmask 11011000
          131 125 -58 callgsubr
          hintmask 10110100
          15 221 -58 callgsubr
          216 -70 28 callgsubr
          hintmask 11011000
          18 callsubr
          86 -1 -9 113 hhcurveto
          60 callgsubr
        </CharString>
        <CharString name="dollar">
          61 -46 -21 63 39 116 48 245 137 52 -20 hstemhm
          14 74 -4 71 42 77 -58 58 68 57 -57 79 hintmask 1111110010100000
          219 -67 rmoveto
          16 8 31 38 4 hvcurveto
          90 17 84 58 104 vvcurveto
          76 -82 43 -73 40 vhcurveto
          3 67 3 64 2 68 30 -1 36 -11 2 -42 rrcurveto
          -9 -5 -9 -8 vvcurveto
          -10 8 -5 12 vhcurveto
          hintmask 1111101011000000
          30 12 26 30 60 -70 21 -54 hvcurveto
          36 -3 16 -12 -23 -3 -42 -14 vhcurveto
          -77 -14 -73 -54 -75 vvcurveto
          -67 66 -36 66 -35 vhcurveto
          hintmask 1111110101000000
          -10 -139 -8 -83 -1 -39 rrcurveto
          -75 2 -34 48 37 vvcurveto
          34 callsubr
          -3 -21 13 -20 hhcurveto
          -59 -23 -47 -37 -90 88 -29 95 hvcurveto
          -43 1 7 -20 14 hhcurveto
          129 226 rmoveto
          -56 -44 -45 -54 -16 vhcurveto
          20 3 55 10 153 vhcurveto
          47 -29 38 -32 -50 vvcurveto
          hintmask 1111101101000000
          -193 287 rmoveto
          36 36 35 41 15 vhcurveto
          -11 -166 rlineto
          -38 23 -28 25 32 vvcurveto
          endchar
        </CharString>
        <CharString name="dotlessi">
          16 -21 370 -82 callsubr
          endchar
        </CharString>
        <CharString name="e">
          29 callsubr
          32 -56 callsubr
          endchar
        </CharString>
        <CharString name="eacute">
          29 callsubr
          32 205 -20 49 callgsubr
          hintmask 11011100
          -88 callgsubr
          hintmask 10111100
          -28 callgsubr
          21 302 -107 callsubr
        </CharString>
        <CharString name="ecircumflex">
          -127 -5 52 0 96 180 32 0 65 155 -20 49 callgsubr
          hintmask 01101110
          122 -5 rmoveto
          105 53 67 callsubr
          hvcurveto
          -81 callgsubr
          hintmask 10101110
          -27 callsubr
          vhcurveto
          35 212 rmoveto
          -27 -28 -38 -8 -23 -4 rrcurveto
          -28 callgsubr
          130 235 -103 callgsubr
          hintmask 10011110
          -2 callgsubr
        </CharString>
        <CharString name="edieresis">
          29 callsubr
          32 93 82 hstemhm
          0 69 -16 91 39 60 -46 91 hintmask 11011010
          -88 callgsubr
          hintmask 10110110
          -28 callgsubr
          -104 276 -90 callgsubr
          hintmask 11011001
          144 -8 callgsubr
          -67 callgsubr
          vhcurveto
          endchar
        </CharString>
        <CharString name="egrave">
          29 callsubr
          237 -56 callsubr
          17 286 -95 callsubr
        </CharString>
        <CharString name="eight">
          -15 -10 28 503 39 hstemhm
          13 72 -18 60 67 180 -79 79 -61 61 hintmask 11011000
          172 560 rmoveto
          -7 -9 -3 -15 -21 hvcurveto
          -31 -22 -37 -33 -56 vvcurveto
          -60 52 -35 50 -32 vhcurveto
          hintmask 11101000
          -84 -50 -72 -69 -81 vvcurveto
          -84 82 -30 68 124 87 47 106 80 -72 56 -62 36 vhcurveto
          69 50 64 35 80 vvcurveto
          51 -56 29 -45 -42 -36 -17 -24 -3 2 -7 7 vhcurveto
          14 12 12 26 hhcurveto
          hintmask 11010010
          29 29 -24 -46 -36 -35 -42 -66 -42 hvcurveto
          -64 38 -21 39 35 vvcurveto
          38 16 21 15 18 vhcurveto
          14 17 5 7 10 vvcurveto
          4 -2 2 -3 vhcurveto
          hintmask 11100100
          123 -426 rmoveto
          -59 -36 -57 -78 -53 -43 39 50 64 63 69 52 44 vhcurveto
          50 -37 45 -55 -58 vvcurveto
          endchar
        </CharString>
        <CharString name="ellipsis">
          23 -18 88 hstem
          17 97 50 97 50 97 cntrmask 01110000
          17 20 -58 callgsubr
          147 hmoveto
          -76 callgsubr
          147 hmoveto
          31 callsubr
        </CharString>
        <CharString name="emdash">
          175 210 15 callgsubr
          525 270 10 callsubr
          -255 -45 callgsubr
          hhcurveto
          hintmask 01100000
          55 249 -13 callgsubr
        </CharString>
        <CharString name="endash">
          -48 207 15 callgsubr
          326 -31 callgsubr
        </CharString>
        <CharString name="eogonek">
          -127 -173 48 120 52 96 212 -32 32 hstemhm
          0 69 39 52 -52 135 hintmask 11101010
          219 27 rmoveto
          42 37 32 50 24 47 rrcurveto
          -85 callgsubr
          12 12 1 3 11 vhcurveto
          -27 -33 -22 -38 -45 -42 callgsubr
          hintmask 11011100
          -18 -13 17 19 41 23 44 36 31 hvcurveto
          -62 180 rmoveto
          -27 -28 -39 -6 -22 -6 rrcurveto
          73 3 33 83 49 hhcurveto
          20 7 -19 -22 2 hvcurveto
          -39 -11 -21 -15 -15 vhcurveto
          endchar
        </CharString>
        <CharString name="equal">
          91 149 42 -42 56 -46 -21 149 53 18 -20 hstemhm
          hintmask 00110000
          365 37 callgsubr
          hintmask 10010000
          -11 -23 -31 -4 -26 hhcurveto
          -31 -21 6 3 -26 hvcurveto
          hintmask 01010000
          33 callgsubr
          18 hhcurveto
          hintmask 00101000
          74 35 -18 74 hhcurveto
          65 209 -20 callsubr
          hintmask 10010000
          -11 -29 -82 -45 callgsubr
          55 76 -13 callgsubr
        </CharString>
        <CharString name="eth">
          -62 -5 40 284 36 77 168 -62 62 -44 44 hstemhm
          0 78 171 74 hintmask 11010110
          276 501 rmoveto
          56 -30 -48 43 -70 hhcurveto
          -18 -50 -9 -27 -17 18 -9 17 hvcurveto
          hintmask 11001110
          25 11 18 16 hhcurveto
          35 25 -33 -47 16 hvcurveto
          -8 -24 -27 -5 -27 hhcurveto
          -12 -16 -2 -12 hvcurveto
          hintmask 11100110
          -16 56 -1 12 16 17 1 3 17 vhcurveto
          9 -39 5 -43 1 -39 rrcurveto
          24 -20 -30 16 -39 hhcurveto
          -93 -68 -90 -117 -97 62 -56 59 170 32 175 127 46 -8 57 -18 52 hvcurveto
          28 11 57 22 34 vvcurveto
          18 -31 5 -16 -21 0 -16 -25 -38 vhcurveto
          -116 -182 rmoveto
          33 35 -18 -54 21 hvcurveto
          -90 -6 -25 -122 -76 hhcurveto
          -52 -12 66 68 89 35 61 47 hvcurveto
          endchar
        </CharString>
        <CharString name="exclam">
          -167 -18 88 510 -20 hstem
          65 97 vstem
          65 20 30 callgsubr
          140 523 rmoveto
          23 -21 14 -10 -23 -27 -46 -44 -10 vhcurveto
          -15 -65 5 -64 -4 -56 rrcurveto
          -3 -42 -2 -60 -31 vvcurveto
          -17 6 -22 16 11 12 14 11 2 vhcurveto
          15 81 15 113 19 106 rrcurveto
          5 28 9 29 28 vvcurveto
          endchar
        </CharString>
        <CharString name="exclamdown">
          -197 -212 -21 510 88 hstem
          80 97 vstem
          177 327 33 callsubr
          -141 -529 rmoveto
          -23 22 -8 10 23 27 46 44 10 vhcurveto
          15 65 -5 64 4 56 rrcurveto
          3 42 2 60 31 vvcurveto
          17 -6 22 -16 -11 -12 -14 -11 -2 vhcurveto
          -15 -81 -14 -121 -19 -106 rrcurveto
          -5 -28 -11 -27 -28 vvcurveto
          endchar
        </CharString>
        <CharString name="f">
          -193 -320 39 859 42 hstemhm
          -20 213 -193 70 87 36 -22 22 hintmask 11100000
          248 249 rmoveto
          -18 -10 -44 -19 -37 -9 -11 35 -13 30 -15 21 rrcurveto
          35 59 48 99 94 vvcurveto
          50 -15 21 -17 -36 -43 -57 -84 -18 vhcurveto
          -11 -50 -9 -51 -8 -50 rrcurveto
          -30 -8 -26 -26 -44 vvcurveto
          -29 14 -25 22 -16 vhcurveto
          hintmask 11011000
          -11 -103 -5 -103 -107 vvcurveto
          -98 1 -89 63 104 17 191 95 68 -9 77 -17 65 vhcurveto
          41 14 40 21 24 18 37 callsubr
          -178 -353 rmoveto
          94 3 89 6 82 vhcurveto
          18 19 3 5 19 hvcurveto
          15 -67 7 -81 -67 vvcurveto
          -92 -27 -143 -43 -10 -7 72 105 vhcurveto
          24 415 rmoveto
          161 20 27 106 21 hhcurveto
          hintmask 11010100
          7 2 -21 -19 -70 -43 -101 -34 -56 hvcurveto
          -40 vmoveto
          12 -17 10 -22 8 -25 rrcurveto
          -1 -7 -5 0 -4 hhcurveto
          -10 -5 1 3 -10 hvcurveto
          5 51 rlineto
          -71 14 rmoveto
          12 4 12 11 4 vhcurveto
          -3 -18 -2 -18 -2 -18 rrcurveto
          -5 8 -3 9 9 vvcurveto
          endchar
        </CharString>
        <CharString name="f_f">
          4 -320 39 33 39 463 28 283 55 -42 42 hstemhm
          -37 31 6 75 85 26 -10 22 4 72 78 31 10 24 hintmask 1111011011110000
          233 243 rmoveto
          -23 -12 -23 -10 -26 -7 -12 35 -14 29 -19 20 rrcurveto
          35 60 47 97 94 vvcurveto
          50 -15 21 -17 -36 -46 -57 -84 -18 vhcurveto
          -10 -45 -8 -47 -8 -50 rrcurveto
          1 -4 -4 0 -4 hhcurveto
          -38 -27 -36 -48 -37 22 -31 35 -14 hvcurveto
          -13 -136 -7 -111 -140 vvcurveto
          -93 37 -12 40 vhcurveto
          hintmask 1111011101110000
          96 13 242 102 59 -6 52 -10 44 hvcurveto
          20 6 19 8 19 10 rrcurveto
          -17 -137 -9 -123 -108 vvcurveto
          -68 44 -15 28 66 43 117 173 83 -10 84 -20 56 vhcurveto
          -8 26 23 -3 22 hhcurveto
          18 42 5 17 5 -1 8 -11 hvcurveto
          -8 -18 -7 -27 hhcurveto
          -37 -17 4 9 -20 hvcurveto
          -3 7 rlineto
          40 51 35 100 79 vvcurveto
          52 -18 36 -19 -56 -42 -110 -146 -29 vhcurveto
          -23 -31 -7 -30 -21 12 -19 29 -6 hvcurveto
          -155 -117 rmoveto
          23 14 2 5 17 hvcurveto
          14 -50 7 -64 -76 vvcurveto
          -100 -25 -162 -43 -16 -1 72 105 96 4 90 6 82 vhcurveto
          189 -189 rmoveto
          60 8 107 14 107 vhcurveto
          5 5 9 8 4 5 rrcurveto
          37 -53 1 -117 -74 vvcurveto
          -119 -29 -113 -32 -11 -6 97 87 vhcurveto
          119 537 rmoveto
          -68 -47 -104 -16 -15 vhcurveto
          -5 8 -10 12 -5 4 rrcurveto
          122 19 25 94 27 hhcurveto
          6 6 -25 -28 hvcurveto
          hintmask 1110111011110000
          -217 26 rmoveto
          -70 -43 -95 -34 -59 vhcurveto
          160 20 27 104 21 hhcurveto
          7 2 -21 -19 hvcurveto
          -182 -263 rmoveto
          21 12 11 16 4 2 0 -2 7 vhcurveto
          -9 -80 rlineto
          -19 13 -13 17 20 vvcurveto
          94 -69 rmoveto
          1 19 2 18 2 18 2 4 rcurveline
          13 -15 10 -19 9 -23 rrcurveto
          -1 -12 -13 -1 -14 hhcurveto
          endchar
        </CharString>
        <CharString name="five">
          -29 -10 36 -36 120 196 53 -41 41 -41 229 -92 58 82 -20 hstemhm
          276 76 hintmask 10100111
          119 348 rmoveto
          9 55 3 28 24 vvcurveto
          58 33 4 16 51 hvcurveto
          50 15 30 30 32 vvcurveto
          13 -4 30 -15 vhcurveto
          -25 -66 -82 -118 hhcurveto
          hintmask 10001011
          21 -5 -19 13 -12 hhcurveto
          -22 -21 -24 -22 -23 22 -16 24 -5 hvcurveto
          -23 -3 -40 -12 -57 vhcurveto
          -8 -3 -5 -8 -7 vvcurveto
          hintmask 10100111
          -9 7 -4 10 vhcurveto
          hintmask 10010111
          28 4 12 38 hhcurveto
          69 56 -61 -74 -107 -66 -50 -53 hvcurveto
          hintmask 01100111
          -79 5 84 -50 hhcurveto
          -17 -13 -21 -18 -39 69 -42 66 78 136 52 167 71 -57 79 -82 -33 -32 -2 -9 -29 hvcurveto
          endchar
        </CharString>
        <CharString name="four">
          20 -10 244 -73 41 -41 73 -73 241 202 -20 hstemhm
          226 79 hintmask 00101100
          247 563 rmoveto
          18 -8 23 -16 -54 -2 -67 -24 -7 vhcurveto
          -17 -61 -91 -197 -18 -58 rrcurveto
          -16 -5 -11 -5 -8 vvcurveto
          -14 13 -15 24 35 76 8 3 84 vhcurveto
          -7 -46 -6 -46 -46 vvcurveto
          hintmask 10001100
          -19 7 -14 13 38 21 19 23 47 0 41 2 42 vhcurveto
          29 15 -11 28 hhcurveto
          27 6 12 14 28 -45 29 -53 hvcurveto
          2 44 6 38 41 vvcurveto
          hintmask 00011100
          21 -20 24 -14 -15 -13 -55 -119 -10 vhcurveto
          hintmask 01001100
          -55 -8 -49 -17 -68 -1 44 117 78 134 16 24 rrcurveto
          20 31 11 30 25 vvcurveto
          endchar
        </CharString>
        <CharString name="fraction">
          -146 5 -21 576 -20 hstem
          -22 -79 callsubr
          endchar
        </CharString>
        <CharString name="g">
          -48 22 callgsubr
          53 271 36 10 25 callsubr
          68 -24 62 120 55 hintmask 11010110
          105 -5 rmoveto
          58 30 63 95 36 hvcurveto
          -6 -115 rlineto
          -117 -126 -62 -68 -71 -94 callgsubr
          1 40 4 42 6 42 77 callsubr
          40 21 -66 callgsubr
          -45 -42 -11 -3 vhcurveto
          hintmask 11101010
          23 -21 -32 -37 callsubr
          49 -41 56 hvcurveto
          54 324 rmoveto
          24 41 -26 -20 11 hvcurveto
          -12 -1 -14 -1 -17 vhcurveto
          -126 -46 -27 -56 -31 63 callsubr
          61 -328 rmoveto
          -22 callsubr
          hintmask 11100110
          -22 callgsubr
          endchar
        </CharString>
        <CharString name="germandbls">
          -16 -151 177 -31 31 -31 60 239 71 195 40 hstemhm
          1 69 50 239 -91 65 -65 91 hintmask 1001110010000000
          235 600 rmoveto
          -168 -55 -198 -281 -11 hvcurveto
          -3 -82 2 -61 -34 -62 rrcurveto
          -4 -7 -5 -13 -8 vvcurveto
          -26 1 18 -13 28 hhcurveto
          60 5 110 63 1 hvcurveto
          295 3 39 243 102 hhcurveto
          32 22 -27 -56 -26 -10 -55 -31 -36 hvcurveto
          3 -16 -16 2 -16 hhcurveto
          hintmask 0101111000000000
          -41 -18 -21 -22 -20 14 -8 22 23 21 7 12 20 hvcurveto
          32 -18 27 -38 -76 vvcurveto
          -68 -34 -87 -62 vhcurveto
          hintmask 0011111000000000
          -31 -15 29 -23 hhcurveto
          -10 -9 -6 -18 -22 46 -14 27 120 71 90 104 88 -41 49 -54 23 hvcurveto
          hintmask 1001110100000000
          42 44 27 63 45 vvcurveto
          70 -41 29 -57 vhcurveto
          endchar
        </CharString>
        <CharString name="grave">
          -76 437 -21 147 -20 hstem
          172 496 -95 callsubr
        </CharString>
        <CharString name="greater">
          33 109 -21 147 -20 194 -20 hstem
          56 88 -35 callsubr
          endchar
        </CharString>
        <CharString name="greaterequal">
          41 57 -21 409 -20 hstem
          64 124 -35 callsubr
          197 33 rmoveto
          -130 -59 -30 3 -41 vvcurveto
          -15 9 -9 11 19 31 23 43 88 vhcurveto
          83 40 52 14 44 vvcurveto
          13 -2 4 -12 -24 -60 -44 -16 -35 vhcurveto
          endchar
        </CharString>
        <CharString name="guillemotleft">
          38 27 -21 340 -20 hstem
          377 -31 callsubr
          -147 -295 rmoveto
          20 -65 93 -61 23 vhcurveto
          61 36 29 22 24 32 rrcurveto
          13 18 7 14 16 vvcurveto
          11 -9 14 -6 -6 -8 -24 -41 -41 vhcurveto
          -53 -54 -48 -27 -9 hhcurveto
          -11 -7 -23 -11 -13 25 1 29 -22 hvcurveto
          -62 82 6 -65 17 hhcurveto
          9 23 19 22 hvcurveto
          endchar
        </CharString>
        <CharString name="guillemotright">
          40 27 -21 340 -35 callgsubr
          147 295 rmoveto
          -20 65 -93 61 -23 vhcurveto
          -61 -36 -29 -22 -24 -32 rrcurveto
          -13 -18 -7 -14 -16 vvcurveto
          -11 9 -14 6 6 8 24 41 41 vhcurveto
          53 54 48 27 9 hhcurveto
          11 7 23 11 13 -25 -1 -29 22 hvcurveto
          62 -82 -6 65 -17 hhcurveto
          -9 -23 -19 -22 hvcurveto
          endchar
        </CharString>
        <CharString name="guilsinglleft">
          -106 37 -21 326 -20 hstem
          232 -31 callsubr
          endchar
        </CharString>
        <CharString name="guilsinglright">
          -120 31 -21 326 -35 callgsubr
          endchar
        </CharString>
        <CharString name="h">
          -49 16 -21 605 -20 hstemhm
          11 78 59 27 38 62 -62 81 hintmask 11111000
          268 -5 rmoveto
          39 -103 callsubr
          -22 -1 rrcurveto
          -6 0 15 12 hvcurveto
          hintmask 11110100
          -21 callsubr
          27 0 26 1 25 vhcurveto
          26 35 62 110 131 vvcurveto
          50 -18 29 -12 -53 -81 -74 -268 vhcurveto
          -58 -34 callgsubr
          vhcurveto
          9 -1 14 8 vvcurveto
          18 1 19 5 29 vhcurveto
          24 4 92 132 11 callsubr
          -52 -11 -93 -27 -97 callsubr
          -120 504 rmoveto
          -76 -35 -80 -24 -50 vhcurveto
          168 8 26 80 14 hhcurveto
          7 4 -23 -19 hvcurveto
          endchar
        </CharString>
        <CharString name="hbar">
          -420 endchar
        </CharString>
        <CharString name="hyphen">
          -133 207 15 callgsubr
          244 267 -29 callsubr
        </CharString>
        <CharString name="i">
          16 -21 431 107 hstemhm
          0 73 -36 80 hintmask 11010000
          37 489 rmoveto
          -1 callgsubr
          29 -494 rmoveto
          39 -103 callsubr
          -22 -1 rrcurveto
          hintmask 11100000
          -17 callsubr
          endchar
        </CharString>
        <CharString name="iacute">
          16 -21 565 -20 hstem
          0 73 17 68 vstem
          -99 callsubr
          24 514 -107 callsubr
        </CharString>
        <CharString name="icircumflex">
          16 -21 370 55 155 -82 callsubr
          123 447 -98 callgsubr
        </CharString>
        <CharString name="idieresis">
          16 -21 453 82 hstemhm
          -32 91 -59 73 29 91 hintmask 11011000
          -99 callsubr
          hintmask 11101000
          -98 488 -90 callgsubr
          134 -8 callgsubr
          -67 callgsubr
          vhcurveto
          endchar
        </CharString>
        <CharString name="igrave">
          16 -21 568 -82 callsubr
          22 501 -95 callsubr
        </CharString>
        <CharString name="ij">
          -89 -320 36 300 -21 431 107 hstemhm
          -5 61 -61 78 -36 80 48 67 -51 51 -28 80 hintmask 1110011000000000
          37 489 rmoveto
          hintmask 1111001000000000
          -28 3 -35 16 vhcurveto
          hintmask 1110010010000000
          1 callgsubr
          hvcurveto
          167 hmoveto
          -1 callgsubr
          -15 -177 rmoveto
          hintmask 1110100100000000
          -1 -5 -3 -52 -4 -69 -41 -88 -40 -51 -21 -1 rrcurveto
          -17 callsubr
          33 36 42 82 43 hvcurveto
          -2 -26 0 -26 -2 -29 -78 callsubr
          -19 -321 rmoveto
          hintmask 1111001000000000
          -53 callgsubr
          endchar
        </CharString>
        <CharString name="itilde">
          16 -21 461 36 callsubr
          -30 234 -204 73 hintmask 11001000
          -99 callsubr
          84 519 rmoveto
          hintmask 10110000
          -67 callsubr
          hintmask 11010000
          -64 callsubr
        </CharString>
        <CharString name="j">
          -252 -320 36 710 107 hstemhm
          -163 62 117 58 -27 80 hintmask 11110000
          -64 callgsubr
          hintmask 11101000
          34 498 rmoveto
          -1 callgsubr
          endchar
        </CharString>
        <CharString name="jcircumflex">
          -252 -320 36 649 55 155 -20 hstem
          -163 62 117 58 vstem
          -64 callgsubr
          191 451 -98 callgsubr
        </CharString>
        <CharString name="k">
          -77 -68 47 callsubr
          146 59 hintmask 11110110
          -14 callgsubr
          hintmask 11111010
          53 callgsubr
          13 3 13 15 49 1 12 7 29 vhcurveto
          -80 callsubr
          endchar
        </CharString>
        <CharString name="kcommaaccent">
          -77 -264 190 6 47 callsubr
          -19 16 callsubr
          59 59 hintmask 1111101001100000
          -14 callgsubr
          hintmask 1111110001100000
          53 callgsubr
          vhcurveto
          hintmask 1111100010100000
          13 3 13 15 49 1 12 7 29 hvcurveto
          -80 callsubr
          -162 -363 15 callsubr
          hintmask 1111110001100000
          2 callgsubr
          hintmask 1111100100100000
          -68 callgsubr
        </CharString>
        <CharString name="kgreenlandic">
          -77 -68 36 48 -21 297 63 10 -20 hstemhm
          8 73 151 59 hintmask 11011100
          83 167 rmoveto
          -13 callsubr
          4 callgsubr
          49 1 12 7 29 vhcurveto
          hintmask 11101100
          -80 callsubr
          49 -31 17 -37 -57 -62 -112 -76 -21 vhcurveto
          endchar
        </CharString>
        <CharString name="l">
          72 callsubr
          57 25 vstem
          73 -5 rmoveto
          39 -103 callsubr
          -22 -46 callsubr
        </CharString>
        <CharString name="ldot">
          -157 72 callsubr
          66 98 59 callgsubr
          5 11 7 16 6 17 rrcurveto
          9 9 6 12 18 vvcurveto
          19 -19 16 -20 -19 -40 -12 -38 -29 28 -9 15 vhcurveto
          8 hlineto
          -43 -93 -42 -53 -21 -46 callsubr
        </CharString>
        <CharString name="less">
          23 113 -21 317 -20 hstem
          388 409 -32 callsubr
          endchar
        </CharString>
        <CharString name="lessequal">
          37 69 -21 406 -20 hstem
          395 454 -32 callsubr
          -29 -358 rmoveto
          4 -3 4 -4 1 vhcurveto
          2 -6 -11 0 -10 hhcurveto
          -31 1 -35 13 -40 17 rrcurveto
          53 -122 -12 15 -21 hhcurveto
          -21 -11 -11 -20 -7 4 -5 9 -4 hvcurveto
          10 -4 23 -4 37 -16 rrcurveto
          -21 49 100 -66 36 hhcurveto
          20 39 27 21 hvcurveto
          endchar
        </CharString>
        <CharString name="logicalnot">
          35 89 171 -44 44 -44 66 hstemhm
          hintmask 00100000
          401 271 rmoveto
          2 callsubr
          -14 -4 -4 -9 vhcurveto
          hintmask 01000000
          18 callsubr
          72 58 -5 50 hhcurveto
          -5 -57 -13 -18 -28 vvcurveto
          hintmask 10000000
          -14 10 -5 15 30 -1 81 56 15 vhcurveto
          4 15 9 8 22 vvcurveto
          endchar
        </CharString>
        <CharString name="lslash">
          -225 16 -21 406 52 59 70 -70 104 -79 62 hstemhm
          -106 35 -35 89 -89 218 -95 74 hintmask 1110000100000000
          103 307 rmoveto
          7 78 2 35 48 callgsubr
          -6 -40 -6 -58 rrcurveto
          hintmask 1100110010000000
          -9 -79 -5 44 callgsubr
          40 -103 callsubr
          -23 -1 rrcurveto
          -12 0 17 23 67 6 81 6 73 hvcurveto
          -84 230 rmoveto
          hintmask 1101010010000000
          49 35 -25 73 hhcurveto
          57 70 29 52 12 -2 11 -13 hvcurveto
          hintmask 1110010010000000
          -19 12 -34 -76 hhcurveto
          hintmask 1100101010000000
          -54 -60 17 -49 hhcurveto
          -85 -63 -69 -63 -31 23 -35 36 19 11 13 14 18 -15 7 -17 hvcurveto
          hintmask 1100110010000000
          -18 -4 13 10 42 41 19 49 hvcurveto
          endchar
        </CharString>
        <CharString name="m">
          122 16 -21 281 79 10 -20 hstemhm
          11 73 107 88 -76 76 111 57 -57 76 hintmask 11011010
          440 -5 rmoveto
          39 -103 callsubr
          -22 -1 rrcurveto
          -6 0 15 12 hvcurveto
          hintmask 11010101
          -3 callgsubr
          -40 -76 -109 -29 -22 vhcurveto
          10 3 24 53 vvcurveto
          29 -28 22 -24 -52 -54 -129 -59 -35 vhcurveto
          -13 callsubr
          hintmask 10111010
          4 callgsubr
          vhcurveto
          9 -1 14 8 vvcurveto
          18 1 19 5 29 vhcurveto
          hintmask 11010110
          24 4 82 132 11 callsubr
          hintmask 11011010
          -61 -12 -127 -32 vvcurveto
          -16 37 -8 27 13 2 13 15 32 0 81 6 34 vhcurveto
          24 4 82 82 11 callsubr
          -52 -11 -93 -27 -89 callgsubr
          16 -6 callgsubr
          endchar
        </CharString>
        <CharString name="macron">
          -81 489 15 callgsubr
          294 549 -29 callsubr
        </CharString>
        <CharString name="minus">
          -3 207 15 callgsubr
          371 -31 callgsubr
        </CharString>
        <CharString name="mu">
          37 -260 -21 276 53 317 -20 hstem
          354 46 rmoveto
          -39 callgsubr
          79 3 77 8 17 hvcurveto
          10 21 8 51 -46 callgsubr
          -54 rrcurveto
          -109 -41 -26 -49 -29 hhcurveto
          -37 -17 75 81 hvcurveto
          3 8 26 80 47 vvcurveto
          15 -6 11 -13 -21 -29 -32 -15 -10 vhcurveto
          -4 -6 -9 -23 -43 vvcurveto
          -15 1 -40 6 -43 vhcurveto
          -26 -157 -45 -156 -7 -21 rrcurveto
          -11 -31 -27 -20 -20 vvcurveto
          -15 21 -9 15 25 37 42 61 10 vhcurveto
          7 40 10 80 17 104 rrcurveto
          -30 14 18 -21 27 hhcurveto
          47 35 48 74 32 hvcurveto
          -2 -22 0 -18 -10 -97 callsubr
          40 42 57 111 52 hvcurveto
          -69 callsubr
          endchar
        </CharString>
        <CharString name="multiply">
          25 107 -21 317 -20 hstem
          217 287 rmoveto
          -31 54 -30 49 -20 9 rrcurveto
          2 -4 -10 2 -4 hhcurveto
          -15 -5 -9 -7 -14 14 -9 10 -11 hvcurveto
          4 -5 20 -48 27 -55 rrcurveto
          -27 -26 -86 -73 -37 vvcurveto
          -16 11 -7 12 20 20 37 84 71 vhcurveto
          -63 34 43 -58 39 hhcurveto
          21 20 14 17 10 -22 10 -24 23 hvcurveto
          -21 20 -24 35 -23 39 rrcurveto
          62 67 60 58 11 vvcurveto
          6 -7 4 -5 -15 -5 -5 -17 -17 vhcurveto
          endchar
        </CharString>
        <CharString name="n">
          -49 16 -21 370 -79 callgsubr
          endchar
        </CharString>
        <CharString name="nacute">
          -49 16 -21 569 -79 callgsubr
          -218 253 -107 callsubr
        </CharString>
        <CharString name="nine">
          8 -10 37 -37 114 109 37 276 34 hstemhm
          50 63 199 77 hintmask 10111100
          174 27 rmoveto
          hintmask 01111100
          -60 8 77 -58 hhcurveto
          -14 -7 -13 -17 hvcurveto
          -44 1 55 -40 57 hhcurveto
          184 49 158 180 99 -30 133 -135 -95 -79 -92 -102 -70 39 -83 86 76 44 36 21 2 -3 6 -3 hvcurveto
          -20 -23 -28 -61 hhcurveto
          -59 -13 77 52 73 48 74 56 81 14 -129 -83 hvcurveto
          hintmask 10111100
          -97 -18 -190 -120 vhcurveto
          endchar
        </CharString>
        <CharString name="notequal">
          33 37 168 -56 42 -42 56 79 51 -51 73 89 -20 hstemhm
          hintmask 01001100
          336 37 callgsubr
          -11 -23 -31 -4 -26 hhcurveto
          -14 -11 1 1 -11 hvcurveto
          12 31 11 32 11 31 rrcurveto
          -2 22 26 -1 47 hhcurveto
          20 20 40 22 2 callsubr
          -10 -4 -4 -9 hvcurveto
          hintmask 00110100
          -23 -10 -28 -3 -33 -1 rrcurveto
          30 94 0 4 5 vvcurveto
          3 0 5 -6 -12 -8 -13 -7 -4 vhcurveto
          -12 -21 -11 -33 -12 -37 rrcurveto
          -124 -15 12 -10 hhcurveto
          -14 -14 -24 -16 -12 6 -8 15 hvcurveto
          10 23 6 40 hhcurveto
          31 19 -1 -2 18 hvcurveto
          -11 -30 -13 -32 -17 -28 rrcurveto
          33 callgsubr
          20 hhcurveto
          -23 -32 -29 -43 -21 vvcurveto
          hintmask 10010100
          -9 8 -14 14 16 27 26 30 15 vhcurveto
          10 19 9 20 9 20 rrcurveto
          -6 40 33 -8 52 hhcurveto
          endchar
        </CharString>
        <CharString name="ntilde">
          -49 16 -21 461 36 callsubr
          6 73 -11 234 -94 62 -62 81 hintmask 11010100
          -16 callgsubr
          hintmask 11010010
          -92 callsubr
          -171 254 rmoveto
          hintmask 10101000
          -67 callsubr
          hintmask 11001000
          -28 callsubr
          hvcurveto
          hintmask 11010010
          12 -4 8 -9 vhcurveto
          -4 callgsubr
        </CharString>
        <CharString name="numbersign">
          152 11 -21 241 -20 26 48 112 49 -49 203 hstemhm
          hintmask 11110000
          69 10 rmoveto
          -14 2 28 -6 17 hhcurveto
          25 17 35 45 11 hvcurveto
          14 62 10 55 7 50 rrcurveto
          1 35 27 2 27 hhcurveto
          10 10 0 -1 13 hvcurveto
          -12 -50 rlineto
          -14 -53 -44 -80 -46 vvcurveto
          -14 2 25 -6 15 hhcurveto
          22 15 35 45 9 hvcurveto
          12 58 10 55 8 52 rrcurveto
          -3 29 26 -1 27 hhcurveto
          42 21 38 7 13 -27 1 -14 -15 -37 -2 -3 -45 hvcurveto
          6 37 4 36 4 36 rrcurveto
          -5 30 29 -4 29 hhcurveto
          42 20 45 7 13 -27 1 -14 -15 -40 -2 -3 -47 hvcurveto
          4 40 4 38 5 37 rrcurveto
          1 5 5 4 13 vvcurveto
          hintmask 11101000
          11 -5 6 -7 -10 -8 -20 -11 -3 vhcurveto
          -9 -29 -8 -45 -8 -51 -47 -3 -50 -4 -43 -4 3 30 3 30 4 32 rrcurveto
          1 6 16 18 34 vvcurveto
          10 -9 7 -10 -10 -8 -20 -11 -3 vhcurveto
          -10 -31 -7 -51 -8 -57 -56 -6 rcurveline
          -23 -2 -43 -10 -10 vvcurveto
          -8 6 -8 24 20 27 8 3 41 vhcurveto
          -6 -42 -7 -44 -9 -43 -56 -5 rcurveline
          -23 -2 -43 -9 -10 vvcurveto
          -8 7 -10 25 31 25 10 2 26 vhcurveto
          -12 -47 rlineto
          -14 -54 -52 -79 -46 vvcurveto
          248 391 rmoveto
          12 14 0 -2 9 hvcurveto
          -6 -38 -8 -40 -7 -39 -126 -10 rcurveline
          5 44 3 42 4 40 rrcurveto
          1 39 31 2 30 hhcurveto
          endchar
        </CharString>
        <CharString name="o">
          -9 callsubr
          56 callgsubr
          hintmask 11011110
          -48 callgsubr
          hintmask 10101110
          -100 callsubr
          hintmask 11011110
          -56 callgsubr
          endchar
        </CharString>
        <CharString name="oacute">
          -9 callsubr
          195 -20 76 callgsubr
          48 68 -19 64 hintmask 1101111010000000
          -48 callgsubr
          hintmask 1010111100000000
          -100 callsubr
          hintmask 1101111010000000
          -56 callgsubr
          hintmask 1101111100000000
          14 177 -107 callsubr
        </CharString>
        <CharString name="ocircumflex">
          -56 -5 45 124 39 129 33 0 55 155 -20 56 callgsubr
          hintmask 11101111
          -48 callgsubr
          -100 callsubr
          -56 callgsubr
          116 110 -103 callgsubr
          hintmask 11011111
          -2 callgsubr
        </CharString>
        <CharString name="odieresis">
          -9 callsubr
          83 82 hstemhm
          0 70 4 91 -63 50 66 95 -64 64 hintmask 1101111001000000
          -48 callgsubr
          hintmask 1010110110000000
          -100 callsubr
          hintmask 1101110101000000
          -56 callgsubr
          hintmask 1101111010000000
          -112 151 -96 callsubr
        </CharString>
        <CharString name="oe">
          95 -5 52 69 239 -23 23 10 -20 hstemhm
          -23 71 34 50 95 74 114 60 hintmask 11001111
          384 47 rmoveto
          -43 -29 40 43 -9 hvcurveto
          87 19 85 63 74 vvcurveto
          43 -33 26 -45 -47 -42 -18 -38 -30 vhcurveto
          hintmask 10011111
          41 -18 -36 25 -40 hhcurveto
          -24 -21 -7 -13 -17 hvcurveto
          -90 -55 -105 -89 -82 42 -74 84 65 45 26 46 33 hvcurveto
          -40 19 36 -32 53 7 callgsubr
          -302 212 rmoveto
          hintmask 11001111
          -101 57 -42 75 vhcurveto
          -42 -13 -27 -34 -48 hhcurveto
          -42 -36 56 73 35 8 74 37 30 hvcurveto
          -7 -14 -4 -17 -18 vvcurveto
          145 -50 rmoveto
          -18 -1 -21 -4 -20 vhcurveto
          -64 11 -26 71 54 vvcurveto
          hintmask 10101111
          19 11 27 24 41 19 -80 -43 vhcurveto
          156 -3 rmoveto
          -24 -21 -29 -16 -29 -10 rrcurveto
          75 1 34 89 50 hhcurveto
          20 9 -19 -22 -39 -13 -20 -19 -17 hvcurveto
          endchar
        </CharString>
        <CharString name="ogonek">
          19 -173 48 166 -20 hstemhm
          153 52 -52 130 hintmask 11010000
          239 41 rmoveto
          -38 -42 -48 -51 -65 -42 callgsubr
          hintmask 11100000
          78 callgsubr
          41 26 41 33 34 hvcurveto
          endchar
        </CharString>
        <CharString name="ograve">
          -9 callsubr
          -33 228 56 callgsubr
          hintmask 11010111
          -48 callgsubr
          hintmask 10100111
          -100 callsubr
          hintmask 11010111
          -56 callgsubr
          6 161 rmoveto
          hintmask 11001111
          -99 callgsubr
        </CharString>
        <CharString name="one">
          -107 11 -21 570 -20 hstemhm
          29 227 -93 93 -56 56 -56 71 hintmask 11100000
          236 560 rmoveto
          -14 -26 -12 -45 -27 hvcurveto
          -50 -84 -32 -70 -30 -65 rrcurveto
          -19 -40 -9 -16 -20 vvcurveto
          -11 6 -13 13 27 0 56 47 20 vhcurveto
          66 28 59 120 10 hhcurveto
          hintmask 11001000
          5 3 -28 -38 hvcurveto
          hintmask 11010000
          -132 -37 -129 -116 73 callgsubr
          51 5 vhcurveto
          2 19 7 127 15 vvcurveto
          hintmask 11000100
          4 73 11 53 69 vvcurveto
          61 -7 73 -28 vhcurveto
          endchar
        </CharString>
        <CharString name="onehalf">
          344 5 -21 32 -21 26 -21 231 -20 349 -20 hstemhm
          163 69 -49 49 208 194 -162 39 77 46 hintmask 1001110011000000
          186 -79 callsubr
          315 233 43 callsubr
          hintmask 0011110100000000
          47 callgsubr
          hintmask 0101110100000000
          35 45 -34 19 hhcurveto
          24 12 10 27 18 hvcurveto
          10 15 8 20 15 vvcurveto
          10 -2 4 5 callgsubr
          hintmask 1001101011000000
          32 callsubr
          -289 298 -47 callsubr
        </CharString>
        <CharString name="onequarter">
          296 -16 139 -107 -21 77 51 111 -20 346 -20 hstemhm
          160 69 -49 49 173 175 -44 44 hintmask 1001110100000000
          186 -79 callsubr
          360 279 9 callsubr
          vhcurveto
          hintmask 0111101010000000
          18 49 4 1 48 hvcurveto
          -7 callsubr
          13 -13 22 -33 1 hvcurveto
          -6 callsubr
          -337 255 -47 callsubr
        </CharString>
        <CharString name="onesuperior">
          -216 354 -21 307 -20 hstemhm
          79 69 -49 49 hintmask 11010000
          128 640 -48 callsubr
          hintmask 11100000
          -38 callsubr
        </CharString>
        <CharString name="ordfeminine">
          -28 333 45 228 34 hstemhm
          0 55 131 56 -56 142 hintmask 11101000
          89 333 rmoveto
          44 26 43 68 27 hvcurveto
          -1 -22 -1 -18 -10 vvcurveto
          -19 0 -23 5 -5 vhcurveto
          -4 4 14 -10 28 hhcurveto
          40 53 91 24 7 -2 3 -4 -5 -3 -1 -10 -5 hvcurveto
          -16 -32 -25 -38 -21 -1 rrcurveto
          hintmask 11110000
          -5 0 13 10 68 0 57 7 15 hvcurveto
          8 18 8 43 7 vvcurveto
          13 -2 20 -12 -17 -26 -29 -8 -5 vhcurveto
          20 -17 -28 17 -18 hhcurveto
          -79 -61 -88 -88 -96 43 -35 46 hvcurveto
          47 273 rmoveto
          20 32 -22 -18 9 hvcurveto
          -2 -14 -2 -16 -1 -18 rrcurveto
          -97 -38 -25 -43 -20 hhcurveto
          -31 -23 50 54 79 54 45 27 hvcurveto
          endchar
        </CharString>
        <CharString name="ordmasculine">
          -100 333 37 103 33 -33 150 -10 27 hstemhm
          9 61 28 43 80 56 hintmask 11011110
          303 533 rmoveto
          -7 -4 -9 -5 -10 -4 rrcurveto
          77 -42 43 -49 vhcurveto
          hintmask 10101110
          -21 -18 -7 -10 -15 hvcurveto
          -76 -47 -87 -74 -68 36 -61 72 96 50 71 87 11 hvcurveto
          16 7 14 9 13 9 rrcurveto
          10 7 7 9 7 vvcurveto
          4 -2 2 -3 -4 -11 -6 -6 -11 vhcurveto
          -167 -163 rmoveto
          -36 -30 47 60 29 6 61 31 25 hvcurveto
          -6 -12 -3 -13 -15 vvcurveto
          -44 39 -35 54 9 10 0 2 9 vhcurveto
          -51 -6 -21 -54 -56 hhcurveto
          hintmask 11011110
          85 136 rmoveto
          -46 -34 29 39 16 10 23 20 35 15 -67 -40 hvcurveto
          endchar
        </CharString>
        <CharString name="oslash">
          -56 -41 -21 394 33 56 -20 hstem
          0 71 180 68 vstem
          81 3 rmoveto
          -6 -9 -12 -18 -15 vvcurveto
          -16 9 -7 15 21 18 16 43 17 vhcurveto
          114 11 62 105 119 vvcurveto
          59 -40 60 -52 9 vhcurveto
          5 19 6 19 8 vvcurveto
          6 0 9 -7 -18 -14 -21 -36 -9 vhcurveto
          0 -6 1 -7 -129 -48 -125 -89 -65 29 -60 52 -23 vhcurveto
          88 329 rmoveto
          5 5 0 -2 6 hvcurveto
          -21 -77 -18 -119 -34 -86 rrcurveto
          -26 17 -15 58 46 vvcurveto
          61 33 102 65 vhcurveto
          82 -126 rmoveto
          -66 -31 -101 -71 -2 vhcurveto
          14 57 24 105 27 122 rrcurveto
          30 -15 7 -70 -30 vvcurveto
          endchar
        </CharString>
        <CharString name="otilde">
          -9 callsubr
          86 36 callsubr
          0 70 -6 234 -196 50 97 64 hintmask 1101101011000000
          -48 callgsubr
          hintmask 1010101011000000
          -100 callsubr
          hintmask 1101101011000000
          -56 callgsubr
          58 177 rmoveto
          hintmask 1101010100000000
          -67 callsubr
          hintmask 1101100100000000
          -64 callsubr
        </CharString>
        <CharString name="p">
          -60 -299 -21 315 36 271 53 10 -20 hstemhm
          -25 106 -64 64 174 68 hintmask 11100110
          31 311 rmoveto
          -5 -6 3 -157 -12 -157 rrcurveto
          hintmask 11101010
          -30 -116 -12 -79 -70 vvcurveto
          -15 6 -31 13 21 42 42 10 2 vhcurveto
          13 59 9 121 111 vvcurveto
          -18 25 31 54 callsubr
          -58 -35 -65 -94 -34 hvcurveto
          1 19 2 20 3 13 rrcurveto
          11 20 10 40 19 vvcurveto
          hintmask 11011010
          15 -2 23 -13 -21 -45 -47 -7 -6 vhcurveto
          133 -280 rmoveto
          -26 -33 6 22 -22 hvcurveto
          15 1 15 1 14 vhcurveto
          hintmask 11101010
          127 39 46 callgsubr
        </CharString>
        <CharString name="paragraph">
          229 -5 40 -40 148 138 35 -35 57 131 40 -40 96 -51 70 37 -20 hstemhm
          46 43 -43 201 -174 63 171 69 38 104 -54 54 hintmask 1010101100111000
          27 callgsubr
          hintmask 0110101100110100
          26 callsubr
          84 -1 69 vhcurveto
          29 -5 32 -4 33 -1 rrcurveto
          -2 -14 -2 -15 -17 vvcurveto
          -169 -2 -131 -39 -62 vhcurveto
          hintmask 1010010110011000
          -4 -7 -5 -15 -8 vvcurveto
          -26 22 -11 19 50 13 91 79 vhcurveto
          34 -7 169 60 vvcurveto
          13 0 14 1 14 vhcurveto
          58 2 26 26 34 vvcurveto
          15 -11 19 -28 -40 -24 -18 -36 -15 vhcurveto
          -36 5 -34 9 -34 10 rrcurveto
          53 -4 33 -14 -25 -11 -27 -39 -7 vhcurveto
          hintmask 1001101101011000
          16 -43 -37 13 -40 hhcurveto
          -105 -42 -69 -93 -68 61 -73 63 callgsubr
          hintmask 1010101110011000
          69 callgsubr
          62 47 43 59 32 35 -11 -10 45 hvcurveto
          246 48 rmoveto
          10 5 -6 -7 -9 -9 -10 -35 hvcurveto
          -6 hlineto
          19 6 10 13 19 hhcurveto
          endchar
        </CharString>
        <CharString name="parenleft">
          -146 61 callgsubr
          hstem
          65 71 vstem
          246 -91 rmoveto
          14 -30 31 -16 25 vhcurveto
          -49 76 -15 86 117 vvcurveto
          122 43 102 66 79 vhcurveto
          16 18 12 19 11 vvcurveto
          7 -4 2 -5 -17 -20 -17 -31 -24 vhcurveto
          -84 -109 -54 -120 -131 vvcurveto
          -107 27 -118 69 -69 vhcurveto
          -17 16 13 -1 22 hhcurveto
          10 24 4 7 hvcurveto
          endchar
        </CharString>
        <CharString name="parenright">
          -162 61 callgsubr
          hstem
          143 71 vstem
          33 607 rmoveto
          -14 30 -31 16 -25 vhcurveto
          49 -76 15 -86 -117 vvcurveto
          -122 -43 -102 -66 -79 vhcurveto
          -16 -18 -12 -19 -11 vvcurveto
          -7 4 -2 5 17 20 17 31 24 vhcurveto
          84 109 54 120 131 vvcurveto
          107 -27 118 -69 69 vhcurveto
          17 -16 -13 1 -22 hhcurveto
          -10 -24 -4 -7 hvcurveto
          endchar
        </CharString>
        <CharString name="percent">
          101 13 34 -30 -21 185 41 -41 54 82 32 84 86 -12 25 29 -20 hstemhm
          34 49 173 53 133 39 hintmask 0110101111100000
          51 18 rmoveto
          -12 12 -10 23 21 14 3 30 22 vhcurveto
          84 112 59 162 97 146 24 36 9 6 11 5 rrcurveto
          25 11 10 19 15 vvcurveto
          13 -10 7 -13 -23 -18 -13 -14 -11 vhcurveto
          -10 -13 -12 -16 -12 -18 -31 -13 -32 -9 -32 -2 rrcurveto
          39 -6 -28 30 -37 hhcurveto
          -16 -15 -5 -9 -11 hvcurveto
          hintmask 1001110111100000
          1 -3 -2 0 -3 hhcurveto
          -66 -37 -53 -55 -43 29 -51 62 88 40 61 57 5 hvcurveto
          24 2 24 6 22 7 -49 -76 -57 -98 -44 -77 rrcurveto
          -66 -116 -61 -28 -37 vvcurveto
          320 29 rmoveto
          -30 -32 34 41 43 27 45 25 6 hvcurveto
          10 2 2 4 3 vvcurveto
          5 -3 5 -11 -67 -36 -65 -62 -43 32 -52 62 89 42 63 66 vhcurveto
          hintmask 1010110111100000
          55 -35 25 -29 -27 -12 -10 41 callgsubr
          -20 -39 -51 hvcurveto
          -229 302 rmoveto
          -30 -29 35 41 39 15 33 35 6 hvcurveto
          -3 -6 -1 -6 -6 vvcurveto
          -26 31 -25 58 -1 vhcurveto
          -36 -2 -20 -48 -54 hhcurveto
          25 146 rmoveto
          hintmask 1010101111100000
          7 3 5 6 21 13 -21 -21 5 vhcurveto
          -30 5 -18 13 12 vvcurveto
          endchar
        </CharString>
        <CharString name="period">
          -242 -18 88 hstem
          28 97 vstem
          28 20 rmoveto
          31 callsubr
        </CharString>
        <CharString name="periodcentered">
          -313 193 88 hstem
          -19 97 vstem
          -19 231 rmoveto
          31 callsubr
        </CharString>
        <CharString name="plus">
          -18 93 -21 157 48 -48 63 -57 -20 208 -20 hstemhm
          50 184 hintmask 10101100
          183 72 rmoveto
          22 7 9 57 8 hvcurveto
          4 31 3 31 3 31 rrcurveto
          -1 22 26 -1 49 hhcurveto
          21 15 27 24 8 -4 4 -7 -7 -11 -6 -3 -9 hvcurveto
          hintmask 11001100
          -6 -20 -18 0 -55 hhcurveto
          1 20 1 21 22 vvcurveto
          10 0 73 -9 -5 -21 -14 -21 -25 -4 -41 -5 -45 vhcurveto
          1 -91 -5 4 -10 hhcurveto
          -15 -19 -18 -17 -13 8 -5 16 hvcurveto
          hintmask 10011100
          11 13 6 42 hhcurveto
          19 14 0 -1 12 hvcurveto
          -2 -19 -3 -20 -3 -19 rrcurveto
          -5 -33 -14 -26 -12 vvcurveto
          -24 15 -9 10 vhcurveto
          endchar
        </CharString>
        <CharString name="plusminus">
          80 115 45 -45 62 -47 -21 198 45 -45 154 hstemhm
          hintmask 10010000
          214 199 rmoveto
          21 21 7 42 7 hvcurveto
          9 61 rlineto
          19 28 -2 49 hhcurveto
          20 15 29 18 6 -4 3 -7 -7 -11 -4 -2 -8 hvcurveto
          -5 -19 -18 0 -53 hhcurveto
          2 22 2 22 18 vvcurveto
          hintmask 10001000
          28 -4 19 -7 -22 -17 -10 -16 vhcurveto
          hintmask 01010000
          -19 -3 -30 -5 -34 vhcurveto
          1 -76 -5 3 -9 hhcurveto
          -15 -19 -14 -12 -10 8 -13 15 hvcurveto
          12 13 5 69 hhcurveto
          -11 -60 -14 -19 -9 vvcurveto
          -18 15 -7 9 vhcurveto
          178 -30 rmoveto
          5 20 callgsubr
          -9 -3 -3 -9 vhcurveto
          hintmask 10010000
          -9 -28 -36 -2 -43 -128 -15 9 -10 hhcurveto
          -14 -16 -31 -12 -9 6 -6 14 hvcurveto
          11 22 4 39 hhcurveto
          hintmask 00110000
          83 -1 -6 110 hhcurveto
          20 21 43 17 hvcurveto
          endchar
        </CharString>
        <CharString name="q">
          -42 -299 -21 315 53 271 36 10 25 callsubr
          68 101 112 hintmask 11011100
          169 -261 rmoveto
          -25 6 -34 14 21 38 35 18 6 vhcurveto
          22 65 1 85 4 99 30 68 61 127 43 52 rrcurveto
          6 7 5 8 8 vvcurveto
          7 -2 5 -6 -3 -4 -2 -5 -4 vhcurveto
          -41 -51 -43 -97 -39 -61 4 61 3 111 8 28 rrcurveto
          11 20 10 50 9 vvcurveto
          15 -2 23 -13 -19 -39 -39 -12 -11 vhcurveto
          hintmask 11101100
          22 -21 -31 19 -19 -32 callgsubr
          49 -41 56 50 29 46 73 30 hvcurveto
          -12 -212 rlineto
          -18 -49 -15 -54 -60 vvcurveto
          -10 580 rmoveto
          21 33 -19 -18 16 hvcurveto
          -8 -86 rlineto
          -102 -39 -25 -46 -28 63 callsubr
          endchar
        </CharString>
        <CharString name="question">
          -34 -18 88 358 132 -36 36 hstemhm
          90 97 -81 54 97 80 hintmask 11001100
          160 133 rmoveto
          12 18 29 7 hvcurveto
          15 -30 9 19 63 177 0 171 vvcurveto
          74 -70 40 -74 -51 -96 -41 -63 -2 vhcurveto
          -12 8 -16 17 9 14 4 22 10 vhcurveto
          hintmask 10101100
          12 4 22 58 40 hhcurveto
          57 32 -43 -57 hvcurveto
          -149 -151 26 -106 vvcurveto
          -30 21 -32 33 vhcurveto
          hintmask 11010100
          -70 -113 30 callgsubr
          endchar
        </CharString>
        <CharString name="questiondown">
          -65 -213 36 -36 132 358 88 hstemhm
          37 80 70 97 -70 54 hintmask 01110100
          214 214 rmoveto
          -12 -18 -29 -7 hvcurveto
          -15 30 -9 -19 -63 -177 0 -171 vvcurveto
          -74 70 -40 74 51 96 41 63 2 vhcurveto
          12 -8 16 -17 -9 -16 -4 -22 -8 vhcurveto
          hintmask 10110100
          -14 -5 -21 -56 -40 hhcurveto
          -57 -32 43 57 hvcurveto
          149 151 -26 106 vvcurveto
          30 -21 32 -33 vhcurveto
          hintmask 10111000
          70 113 33 callsubr
          endchar
        </CharString>
        <CharString name="quotedbl">
          -172 391 189 hstem
          15 72 40 72 vstem
          48 580 rmoveto
          -36 callsubr
          112 hmoveto
          -36 callsubr
          endchar
        </CharString>
        <CharString name="quotedblbase">
          -165 77 callgsubr
          hstemhm
          39 16 callsubr
          4 16 callsubr
          hintmask 10101000
          101 76 15 callsubr
          hintmask 10011000
          2 callgsubr
          hintmask 11000100
          -81 callsubr
          110 hmoveto
          3 callgsubr
          hintmask 11000010
          2 callgsubr
          hintmask 11001000
          -68 callgsubr
        </CharString>
        <CharString name="quotedblleft">
          -115 58 callsubr
          4 66 -66 92 -92 106 hintmask 10101000
          90 390 rmoveto
          52 callsubr
          hintmask 10010100
          -4 callsubr
          110 hmoveto
          52 callsubr
          hintmask 11000010
          -4 callsubr
          endchar
        </CharString>
        <CharString name="quotedblright">
          -139 60 callsubr
          35 16 callsubr
          4 16 callsubr
          hintmask 11000100
          207 580 15 callsubr
          hintmask 11000010
          2 callgsubr
          hintmask 10101000
          -81 callsubr
          -110 hmoveto
          3 callgsubr
          hintmask 10011000
          2 callgsubr
          hintmask 11001000
          -68 callgsubr
        </CharString>
        <CharString name="quoteleft">
          -221 58 callsubr
          hintmask 10100000
          90 390 rmoveto
          13 35 32 13 hvcurveto
          hintmask 11000000
          23 -26 8 22 vvcurveto
          hintmask 10010000
          -4 callsubr
          endchar
        </CharString>
        <CharString name="quoteright">
          -280 60 callsubr
          34 16 callsubr
          hintmask 10100000
          96 580 -40 callgsubr
        </CharString>
        <CharString name="quotesinglbase">
          -291 77 callgsubr
          hstemhm
          -1 16 callsubr
          hintmask 10100000
          61 76 -40 callgsubr
        </CharString>
        <CharString name="quotesingle">
          -290 412 -21 189 -20 hstem
          8 72 vstem
          41 580 rmoveto
          -36 callsubr
          endchar
        </CharString>
        <CharString name="r">
          56 callsubr
          160 25 callsubr
          88 -12 73 -73 86 hintmask 11101000
          -69 callgsubr
          hintmask 11110000
          -44 callgsubr
          hintmask 11101000
          -23 callsubr
          endchar
        </CharString>
        <CharString name="r.2">
          -184 16 -21 380 -20 hstemhm
          -18 143 -73 73 -73 92 hintmask 11100000
          131 46 rmoveto
          -39 callgsubr
          hvcurveto
          hintmask 11001000
          71 19 67 -18 callsubr
          -4 2 2 -2 hvcurveto
          9 23 3 20 7 vvcurveto
          16 -21 41 -33 vhcurveto
          hintmask 11100000
          -19 -15 -26 -39 -20 17 -31 27 -11 hvcurveto
          -10 -41 -28 -46 -10 vvcurveto
          -8 5 -5 5 14 27 79 24 9 vhcurveto
          -2 4 16 -1 10 hhcurveto
          hintmask 11010000
          -5 -23 -21 -75 -73 -82 callgsubr
          3 callsubr
          -22 hhcurveto
          endchar
        </CharString>
        <CharString name="racute">
          56 callsubr
          345 25 callsubr
          88 -12 73 -73 86 -7 68 hintmask 11101010
          -69 callgsubr
          hintmask 11110010
          -44 callgsubr
          hintmask 11101010
          -23 callsubr
          13 514 -107 callsubr
        </CharString>
        <CharString name="rcaron">
          56 callsubr
          355 25 callsubr
          88 -12 73 -73 86 hintmask 11101000
          -69 callgsubr
          hintmask 11110000
          -44 callgsubr
          hintmask 11101000
          -23 callsubr
          -97 558 -26 callsubr
        </CharString>
        <CharString name="rcommaaccent">
          -165 -264 190 90 -21 240 -20 160 25 callsubr
          88 -40 101 -87 87 -73 73 -73 86 -74 61 hintmask 1111000001000000
          142 -5 rmoveto
          39 -103 callsubr
          -22 -1 rrcurveto
          -6 0 15 12 hvcurveto
          hintmask 1111000010000000
          -29 callgsubr
          hintmask 1111100000000000
          -44 callgsubr
          hintmask 1111000100000000
          -23 callsubr
          -32 -69 rmoveto
          hintmask 1111001000000000
          3 callgsubr
          hintmask 1111100000000000
          2 callgsubr
          hintmask 1111010000000000
          -68 callgsubr
        </CharString>
        <CharString name="registered">
          28 265 28 -28 170 -102 27 -27 196 47 24 hstemhm
          22 56 78 27 71 33 51 49 hintmask 0100111110000000
          164 525 rmoveto
          -31 -5 -8 -10 -11 vvcurveto
          -7 3 -5 5 3 4 1 4 3 vhcurveto
          4 5 5 4 6 3 rrcurveto
          -2 -23 0 -26 -32 vvcurveto
          -27 -1 -6 -13 -25 vhcurveto
          -1 -1 -2 -4 -3 vvcurveto
          -7 16 -4 8 18 2 33 18 vhcurveto
          7 1 34 14 vvcurveto
          19 3 22 3 18 vhcurveto
          33 31 -12 -39 -13 -5 -12 -10 -7 hvcurveto
          4 -7 -8 3 -10 hhcurveto
          -16 -5 -10 -6 -10 10 -5 13 5 6 0 2 7 hvcurveto
          4 -8 0 -13 2 -9 rrcurveto
          hintmask 1010111110000000
          -36 7 20 -7 15 hhcurveto
          69 36 66 62 91 -68 48 -96 -123 -78 -87 -106 -92 80 -50 84 54 50 17 25 5 -3 3 -8 -16 -7 -12 -5 -9 hvcurveto
          -4 -8 -16 -1 -7 hhcurveto
          -62 -76 39 95 77 63 72 70 76 51 -56 -80 -41 -19 -39 -29 -11 -9 13 18 -6 hvcurveto
          -3 9 -3 9 -5 6 rrcurveto
          19 12 15 18 21 vvcurveto
          hintmask 1001111110000000
          53 -55 10 -41 vhcurveto
          9 0 5 -4 -12 -7 -7 -11 -4 vhcurveto
          endchar
        </CharString>
        <CharString name="ring">
          -11 435 29 -29 117 hstemhm
          147 38 50 29 hintmask 01110000
          215 552 rmoveto
          -46 -22 -38 -30 -23 13 -26 33 41 30 45 callgsubr
          hintmask 10110000
          45 callsubr
        </CharString>
        <CharString name="s">
          -212 -10 30 319 37 hstemhm
          0 44 -44 71 -71 151 -151 176 hintmask 11001000
          -38 callgsubr
          hintmask 11010000
          17 callsubr
          vhcurveto
          hintmask 11000100
          73 callsubr
          hvcurveto
          hintmask 11100000
          13 callgsubr
          endchar
        </CharString>
        <CharString name="sacute">
          -210 -10 30 319 37 184 25 callsubr
          44 -44 71 -71 151 -8 33 -33 68 hintmask 11100100
          -38 callgsubr
          hintmask 11101010
          17 callsubr
          73 callsubr
          vhcurveto
          hintmask 11110001
          13 callgsubr
          99 465 -107 callsubr
        </CharString>
        <CharString name="section">
          -6 -153 32 -32 144 414 144 -32 32 hstemhm
          40 75 -55 55 -31 56 130 56 -31 55 -55 75 hintmask 1010010100000000
          190 -121 rmoveto
          -36 -39 25 37 hvcurveto
          12 13 9 9 vvcurveto
          hintmask 0110010100000000
          11 -9 9 -17 -25 -17 -21 -23 -46 44 -54 79 101 42 74 49 31 -39 36 -45 36 vhcurveto
          hintmask 1001001001000000
          91 15 36 69 1 54 1 77 -232 106 1 66 rrcurveto
          24 37 33 43 36 39 -25 -37 vhcurveto
          -12 -13 -9 -9 vvcurveto
          hintmask 1010001010000000
          -11 9 -9 17 25 17 21 23 53 -44 47 -79 -101 -42 -72 -51 -32 38 -35 45 -36 vhcurveto
          hintmask 1010100100000000
          -90 -15 -36 -69 -1 -54 -1 -77 232 -106 -1 -66 rrcurveto
          -24 -37 -33 -43 vhcurveto
          115 306 rmoveto
          -43 -44 -36 -61 vhcurveto
          -50 38 -45 34 33 vvcurveto
          43 44 36 61 vhcurveto
          50 -39 45 -37 -29 vvcurveto
          endchar
        </CharString>
        <CharString name="semicolon">
          -217 77 callgsubr
          191 88 hstemhm
          54 16 callsubr
          hintmask 11010000
          116 76 15 callsubr
          hintmask 11001000
          2 callgsubr
          hintmask 11100000
          -81 callsubr
          -47 229 rmoveto
          31 callsubr
        </CharString>
        <CharString name="seven">
          -66 11 -21 224 47 -34 34 177 127 -62 62 hstemhm
          1 48 hintmask 10110100
          167 225 rmoveto
          -26 -56 -23 -43 -7 -10 rrcurveto
          -23 -31 -13 -30 -24 vvcurveto
          -18 9 -23 19 62 -2 68 24 8 vhcurveto
          9 29 20 54 23 62 39 1 31 0 19 2 rrcurveto
          15 1 12 5 9 vvcurveto
          10 -15 6 -20 -25 -21 1 2 -21 vhcurveto
          21 56 22 60 19 57 rrcurveto
          28 3 38 14 26 vvcurveto
          41 -17 26 -21 -12 -27 -20 -12 -8 vhcurveto
          1 -80 -101 49 -43 hhcurveto
          -38 -17 -30 -31 -21 17 -45 24 4 3 3 5 hvcurveto
          10 -9 10 15 vvcurveto
          hintmask 11001100
          8 2 14 19 19 112 -48 -14 67 vhcurveto
          -20 -55 -27 -62 -25 -55 rrcurveto
          -26 -71 0 -39 -9 8 -7 12 hvcurveto
          20 13 11 24 hhcurveto
          endchar
        </CharString>
        <CharString name="six">
          27 -10 38 258 36 199 39 hstemhm
          38 77 222 54 vstemhm
          278 560 rmoveto
          -65 -53 -33 -35 -31 hvcurveto
          -77 -86 -14 -125 -84 vvcurveto
          -138 57 -69 119 114 63 89 99 78 -58 66 -75 -68 -49 -29 -30 -25 vhcurveto
          5 68 16 75 35 54 rrcurveto
          39 25 35 22 38 hhcurveto
          43 23 -15 -38 1 hvcurveto
          -16 -11 -11 -15 vvcurveto
          hintmask 11111000
          -22 16 -6 14 33 7 43 16 62 -45 41 -73 vhcurveto
          -34 -274 rmoveto
          60 26 -76 -45 -70 -38 -67 -71 -92 -14 125 63 hvcurveto
          9 4 40 61 85 hhcurveto
          endchar
        </CharString>
        <CharString name="slash">
          68 callsubr
          -28 -111 rmoveto
          -15 12 -25 18 23 37 46 53 21 vhcurveto
          75 189 50 215 41 177 rrcurveto
          5 20 1 7 8 vvcurveto
          6 -1 7 -6 -18 -11 -20 -13 -6 vhcurveto
          -40 -87 -27 -201 -73 -143 rrcurveto
          -24 -47 -77 -125 -52 vvcurveto
          endchar
        </CharString>
        <CharString name="space">
          -221 endchar
        </CharString>
        <CharString name="sterling">
          60 -5 70 -70 106 59 45 63 41 -41 43 72 137 -26 26 hstemhm
          363 55 hintmask 10110011
          363 313 59 callsubr
          -7 -22 -34 0 -41 hhcurveto
          -17 hlineto
          56 6 0 129 83 hhcurveto
          37 23 -25 -35 hvcurveto
          -8 -5 -8 -12 vvcurveto
          hintmask 01101101
          -11 8 -12 17 21 14 17 22 60 -41 38 -67 -125 -28 -103 -106 -10 vhcurveto
          2 -44 -4 5 -7 71 callgsubr
          8 19 5 1 31 hvcurveto
          -6 -70 rlineto
          -15 hlineto
          -39 -28 -5 -18 -12 7 -10 32 hvcurveto
          12 14 4 13 hhcurveto
          -3 -29 -3 -23 -4 -15 rrcurveto
          2 -12 -23 2 -12 hhcurveto
          -33 -28 -15 -35 -32 31 -16 24 22 28 0 42 35 hvcurveto
          -22 60 79 -28 71 hhcurveto
          22 18 24 15 hvcurveto
          hintmask 10110101
          13 -3 18 -17 -42 -70 10 5 -33 vhcurveto
          -59 9 7 16 5 24 6 33 rlinecurve
          -4 36 25 -6 50 31 callgsubr
          -24 hhcurveto
          -18 -11 1 1 -11 hvcurveto
          7 75 rlineto
          -2 29 18 -3 73 hhcurveto
          18 13 28 17 hvcurveto
          -293 -246 rmoveto
          10 13 -3 -4 14 hvcurveto
          -19 -12 -11 -5 -8 hhcurveto
          -16 -9 11 8 6 6 6 13 hvcurveto
          endchar
        </CharString>
        <CharString name="t">
          -219 16 -21 558 -20 hstem
          90 -5 rmoveto
          40 -103 callsubr
          -23 -1 rrcurveto
          -12 0 17 23 67 6 81 6 73 hvcurveto
          60 12 60 29 -1 13 rrcurveto
          9 -7 2 -11 -16 -34 -26 -9 -48 vhcurveto
          7 78 7 66 48 callgsubr
          -8 -52 -7 -58 rrcurveto
          4 -8 -11 4 -17 hhcurveto
          -11 -11 -3 -13 hvcurveto
          2 -25 25 -11 26 -5 rrcurveto
          -8 -79 -6 44 callgsubr
          endchar
        </CharString>
        <CharString name="thorn">
          -68 -298 -21 314 36 271 53 245 -20 hstem
          257 68 vstem
          41 497 rmoveto
          -7 -64 -4 -282 -9 -157 rrcurveto
          -26 -107 -16 -77 -66 vvcurveto
          -19 2 -44 17 21 41 43 10 2 vhcurveto
          13 55 8 138 2 95 rrcurveto
          -17 25 29 54 callsubr
          -60 -35 -70 -100 -36 hvcurveto
          5 132 10 179 7 26 rrcurveto
          11 42 19 1 20 vvcurveto
          8 -19 7 -15 -25 -34 -42 -61 -7 vhcurveto
          125 -466 rmoveto
          -25 -33 6 21 -22 hvcurveto
          44 vlineto
          128 40 46 callgsubr
        </CharString>
        <CharString name="three">
          -16 -10 37 -37 114 204 41 -41 227 -76 101 -46 62 hstemhm
          57 42 199 77 hintmask 10101011
          90 459 rmoveto
          5 4 3 5 hvcurveto
          10 -5 0 15 vvcurveto
          hintmask 10100111
          8 4 14 19 19 55 -38 -14 64 vhcurveto
          -36 -52 -33 -36 -51 -48 rrcurveto
          -4 -4 -4 -5 -8 vvcurveto
          -5 7 -4 9 vhcurveto
          16 19 8 28 hhcurveto
          59 33 -73 -43 -81 -51 -84 -96 hvcurveto
          hintmask 01101011
          -60 2 77 -58 hhcurveto
          -14 -9 -13 -17 -37 62 -47 56 121 124 70 141 61 -41 87 -82 -11 -19 -1 -3 -18 hvcurveto
          43 53 20 17 35 42 rrcurveto
          27 47 15 28 38 -15 22 -21 hvcurveto
          hintmask 10010011
          -12 -20 -7 -18 -15 hvcurveto
          hintmask 10100111
          1 -80 -56 40 -43 hhcurveto
          -38 -19 -30 -31 hvcurveto
          hintmask 10101011
          -19 9 -37 24 vhcurveto
          endchar
        </CharString>
        <CharString name="threequarters">
          277 -16 139 -107 -21 77 51 -51 241 -77 26 -26 63 104 21 44 74 18 -20 hstemhm
          75 194 -180 180 -50 50 133 175 -44 44 hintmask 1000101011001000
          186 -79 callsubr
          hintmask 1000101100011000
          -74 461 -5 callsubr
          7 -2 74 callsubr
          12 -43 -26 -43 -19 -29 -50 hvcurveto
          hintmask 1000011101001000
          62 callgsubr
          26 -24 36 72 60 30 callsubr
          22 22 14 15 21 -9 14 -11 -7 -12 -8 -9 -6 hvcurveto
          -42 -40 24 -21 hhcurveto
          hintmask 0101001100101000
          68 callgsubr
          434 -182 9 callsubr
          18 49 4 1 48 vhcurveto
          hintmask 0110101101000100
          -7 callsubr
          hvcurveto
          hintmask 1000101101001000
          13 -13 22 -33 1 vhcurveto
          -6 callsubr
          endchar
        </CharString>
        <CharString name="threesuperior">
          -211 334 26 -26 63 102 23 47 71 hstemhm
          -18 192 -180 180 -50 50 hintmask 10110010
          17 566 -5 callsubr
          6 -4 74 callsubr
          13 -41 -26 -43 -20 -29 -47 hvcurveto
          hintmask 01111000
          62 callgsubr
          30 -24 36 70 56 30 callsubr
          23 21 14 15 21 -9 11 -11 -7 -10 -4 -10 -8 hvcurveto
          -42 -40 24 -21 hhcurveto
          hintmask 10110100
          68 callgsubr
          endchar
        </CharString>
        <CharString name="tilde">
          -92 461 36 callsubr
          42 234 hintmask 10100000
          222 519 rmoveto
          hintmask 01100000
          -67 callsubr
          hintmask 10100000
          -64 callsubr
        </CharString>
        <CharString name="trademark">
          40 330 77 -16 166 -16 105 -41 41 hstemhm
          24 24 81 162 -150 150 -150 243 -152 59 -59 122 hintmask 0101110000000000
          362 596 rmoveto
          -16 -15 -33 -47 -7 hvcurveto
          -18 -17 -17 -22 -14 -19 -8 20 -12 25 -17 22 rrcurveto
          13 -1 -4 19 -6 hhcurveto
          -20 -10 -15 -9 -8 4 -11 13 -17 hvcurveto
          -8 -53 -22 -59 -22 -22 rrcurveto
          -8 -8 -25 7 -20 vvcurveto
          hintmask 1010100010000000
          -8 10 -4 10 13 11 5 12 10 vhcurveto
          20 24 19 54 10 44 9 -15 7 -15 4 -15 rrcurveto
          -13 -22 -7 -21 -16 vvcurveto
          -22 9 -10 15 19 16 13 33 13 -2 21 -7 25 vhcurveto
          11 15 14 17 14 13 rrcurveto
          -3 -36 -1 -38 -34 vvcurveto
          -6 0 -25 4 -4 vhcurveto
          -3 3 23 -4 13 hhcurveto
          19 42 64 10 7 -4 2 -2 -2 -3 -4 -6 -3 hvcurveto
          -15 -8 -25 -37 -11 hhcurveto
          hintmask 1010100001000000
          -5 -4 30 45 40 2 27 4 24 hvcurveto
          hintmask 1010100100000000
          17 18 7 16 18 vvcurveto
          12 -14 12 -8 vhcurveto
          -198 44 rmoveto
          -9 -5 -5 -10 -3 hvcurveto
          11 -29 -28 10 -32 hhcurveto
          -19 -15 -21 -30 -26 20 -28 34 19 15 6 9 5 -2 5 -8 hvcurveto
          -12 -2 -8 -12 hhcurveto
          -11 -17 14 21 hvcurveto
          hintmask 1001101000000000
          10 6 2 12 22 25 -8 -7 29 vhcurveto
          -10 -1 -13 -13 vvcurveto
          -101 -3 -19 -46 -28 hhcurveto
          -21 -4 14 8 hvcurveto
          7 4 6 5 vvcurveto
          2 -2 4 -11 -10 -10 -12 -14 vhcurveto
          hintmask 0101110000000000
          -28 27 -8 20 48 28 34 74 6 vhcurveto
          7 86 rlineto
          -2 14 14 -1 17 hhcurveto
          32 30 13 13 4 -1 3 -3 -1 -2 0 -2 -3 hvcurveto
          -6 -9 -22 0 -11 hhcurveto
          -19 -18 4 5 -17 hvcurveto
          19 -1 -4 5 -5 hhcurveto
          84 -270 rmoveto
          8 3 12 7 12 vhcurveto
          1 -8 1 -7 -6 vvcurveto
          -11 -2 -20 -5 -4 -1 7 13 vhcurveto
          endchar
        </CharString>
        <CharString name="two">
          -5 -5 84 -58 -21 347 213 -43 43 hstemhm
          63 45 -45 64 159 86 hintmask 01011010
          108 455 rmoveto
          50 55 12 37 56 30 -47 -51 -119 -62 -19 -147 -155 vhcurveto
          -42 -6 -34 -49 -33 vvcurveto
          -24 15 -14 23 10 20 15 46 21 vhcurveto
          hintmask 10100110
          65 68 -66 35 hhcurveto
          67 20 27 53 33 hvcurveto
          13 21 16 38 16 vvcurveto
          7 -3 5 -6 -8 -4 -9 -20 -12 vhcurveto
          -36 -22 -27 -18 -21 hhcurveto
          -23 -82 31 12 -69 hvcurveto
          137 147 105 26 140 vvcurveto
          84 -76 41 -66 -81 -86 -55 -89 -23 10 -46 27 14 13 20 17 vhcurveto
          hintmask 10101010
          25 -19 18 28 vvcurveto
          endchar
        </CharString>
        <CharString name="twosuperior">
          -149 354 -21 277 30 hstemhm
          0 194 -162 29 87 46 hintmask 11011000
          61 578 43 callsubr
          hintmask 11100000
          47 callgsubr
          35 45 -34 19 hhcurveto
          24 13 10 27 18 hvcurveto
          10 15 7 21 15 vvcurveto
          10 -2 3 5 callgsubr
          hintmask 11011000
          32 callsubr
          endchar
        </CharString>
        <CharString name="u">
          -55 -5 53 317 -76 callsubr
          endchar
        </CharString>
        <CharString name="uacute">
          -55 -5 53 512 -20 hstemhm
          6 66 129 57 -57 70 hintmask 11101000
          -75 callsubr
          99 461 -102 callsubr
          hintmask 11110000
          -30 callsubr
        </CharString>
        <CharString name="ucircumflex">
          -55 -5 53 317 55 155 -20 hstem
          6 66 129 70 vstem
          -75 callsubr
          207 394 -98 callgsubr
        </CharString>
        <CharString name="udieresis">
          -55 -5 53 400 82 hstemhm
          6 66 -66 100 -46 91 50 70 -70 94 hintmask 11100100
          19 callgsubr
          hintmask 11010100
          -83 callgsubr
          9 -31 58 54 41 55 84 39 vhcurveto
          -2 -29 -1 -25 -13 -82 callgsubr
          -37 callgsubr
          79 4 76 7 18 hvcurveto
          11 20 7 52 -46 callgsubr
          -53 rrcurveto
          -110 -44 -43 -49 -29 hhcurveto
          hintmask 11001010
          -31 435 -96 callsubr
        </CharString>
        <CharString name="ugrave">
          -55 -5 53 513 -76 callsubr
          94 446 -95 callsubr
        </CharString>
        <CharString name="underscore">
          40 -96 45 -45 67 -54 -21 hstemhm
          hintmask 01000000
          442 -40 28 callgsubr
          hintmask 10000000
          -12 -29 -87 -2 -44 -132 -74 12 -11 8 callgsubr
          70 5 40 hhcurveto
          hintmask 00100000
          86 61 -8 113 hhcurveto
          60 callgsubr
        </CharString>
        <CharString name="v">
          -70 70 callgsubr
          5 73 76 54 32 29 vstem
          125 44 rmoveto
          -34 -13 87 85 hvcurveto
          20 46 6 38 27 vvcurveto
          13 -3 5 -12 -15 -45 -31 -8 -5 vhcurveto
          -13 -23 -6 -91 -30 vvcurveto
          -68 19 -99 74 84 51 87 86 22 vhcurveto
          71 21 callgsubr
          -24 -17 -32 hhcurveto
          -12 -10 2 4 -10 hvcurveto
          3 20 2 19 17 vvcurveto
          55 -14 41 -29 -49 -23 -46 -45 -44 24 -42 50 -15 vhcurveto
          -64 -16 -36 -65 -51 hhcurveto
          83 255 rmoveto
          7 1 21 7 19 5 -37 -35 -6 -1 -12 -1 -6 vhcurveto
          -19 19 -11 27 22 vvcurveto
          endchar
        </CharString>
        <CharString name="w">
          45 70 callgsubr
          0 69 85 88 33 53 32 30 vstem
          416 207 rmoveto
          -11 -9 2 3 -9 hvcurveto
          2 19 1 18 17 vvcurveto
          58 -13 41 -33 -49 -20 -46 -45 -44 25 -43 52 -14 vhcurveto
          -61 -12 -26 -68 -42 hhcurveto
          -26 -26 46 59 -5 hvcurveto
          16 45 11 47 35 vvcurveto
          27 -5 2 -10 -55 -18 -120 -34 -18 1 -21 4 -20 vhcurveto
          -28 -17 -18 -20 -14 hhcurveto
          -29 -12 58 61 31 1 12 5 10 hvcurveto
          19 46 8 38 1 27 rrcurveto
          13 -3 5 -12 -15 -46 -31 -8 -5 vhcurveto
          -17 -31 -5 -83 -37 vvcurveto
          -67 13 -93 70 30 30 24 37 25 vhcurveto
          -34 13 23 -27 41 hhcurveto
          71 44 84 89 19 hvcurveto
          70 21 callgsubr
          -26 -17 -33 hhcurveto
          -88 92 rmoveto
          7 1 21 8 19 4 -46 -36 -4 0 -6 -1 -5 vhcurveto
          -20 19 -11 28 22 vvcurveto
          endchar
        </CharString>
        <CharString name="x">
          -104 16 -21 375 -20 hstem
          240 51 rmoveto
          -10 -30 60 66 -32 hvcurveto
          20 38 20 36 19 25 rrcurveto
          6 8 38 22 24 vvcurveto
          14 -2 11 -27 -18 -30 -73 -71 -43 vhcurveto
          -19 39 -18 39 -15 26 rrcurveto
          17 -7 38 -30 -24 -20 -48 -29 -25 55 -54 34 -66 vhcurveto
          -67 -88 -46 -26 -14 vvcurveto
          -13 4 -12 39 26 31 49 60 34 vhcurveto
          14 -31 14 -35 18 -27 rrcurveto
          -5 3 16 -11 27 hhcurveto
          35 38 54 111 52 hvcurveto
          11 23 19 50 -93 callsubr
          -9 -11 -34 -17 callgsubr
          -97 -44 -34 -49 -18 hhcurveto
          endchar
        </CharString>
        <CharString name="y">
          -70 22 callgsubr
          53 317 -84 callgsubr
          endchar
        </CharString>
        <CharString name="yacute">
          -70 22 callgsubr
          53 512 -84 callgsubr
          -2 518 -107 callsubr
        </CharString>
        <CharString name="ydieresis">
          -70 22 callgsubr
          53 400 82 hstemhm
          6 66 -14 91 50 55 -55 94 hintmask 11110100
          -98 callsubr
          hintmask 11101010
          -135 492 -96 callsubr
        </CharString>
        <CharString name="yen">
          62 -10 168 -45 45 70 34 -34 47 250 -20 hstemhm
          60 186 -79 79 hintmask 10011100
          368 266 59 callsubr
          hintmask 01101100
          -6 -19 -27 -1 -32 hhcurveto
          1 56 98 135 26 8 rrcurveto
          14 5 10 16 23 vvcurveto
          14 -7 6 -8 -10 -12 -7 -14 -15 vhcurveto
          -29 -26 -73 -103 -20 -57 -16 47 -18 32 -18 28 rrcurveto
          65 -42 -29 30 -7 hhcurveto
          -18 -22 -29 -11 -33 55 -40 19 -29 hvcurveto
          17 -26 30 -57 5 -33 rrcurveto
          2 -77 -3 7 -9 71 callgsubr
          hvcurveto
          9 29 6 57 hhcurveto
          -1 -25 -3 -25 -3 -24 rrcurveto
          3 -26 -6 1 -19 hhcurveto
          -39 -25 -5 -18 -12 1 -10 38 hvcurveto
          26 14 4 31 hhcurveto
          hintmask 10101010
          -4 -31 -3 -30 -26 73 callgsubr
          38 15 0 18 1 20 vhcurveto
          -3 19 21 -2 29 31 callgsubr
          -25 hhcurveto
          4 74 rlineto
          23 19 -2 42 hhcurveto
          18 13 28 17 hvcurveto
          endchar
        </CharString>
        <CharString name="z">
          -80 50 callgsubr
          8 -20 hstemhm
          hintmask 11000000
          -86 callsubr
          hvcurveto
          hintmask 10100000
          29 callgsubr
          vhcurveto
          hintmask 11000000
          -83 105 -3 64 vhcurveto
          endchar
        </CharString>
        <CharString name="z.2">
          -83 50 callgsubr
          8 -20 hstemhm
          hintmask 11000000
          247 67 rmoveto
          -55 callsubr
          hvcurveto
          hintmask 10100000
          29 callgsubr
          vhcurveto
          hintmask 11000000
          -83 105 -3 64 vhcurveto
          -45 callsubr
          64 26 67 60 22 hvcurveto
          9 25 3 10 10 vvcurveto
          6 -1 2 -6 -7 -6 -6 -20 -9 vhcurveto
          -27 -12 -30 -50 -19 hhcurveto
          endchar
        </CharString>
        <CharString name="zacute">
          -96 50 callgsubr
          203 -20 hstem
          203 68 -63 callsubr
          34 274 -107 callsubr
        </CharString>
        <CharString name="zdotaccent">
          -80 50 callgsubr
          62 82 hstem
          129 91 -63 callsubr
          -40 219 -90 callgsubr
          endchar
        </CharString>
        <CharString name="zero">
          47 -5 49 460 46 hstemhm
          29 77 85 241 -78 78 hintmask 11110000
          216 44 rmoveto
          -63 -47 79 117 96 3 72 45 71 hvcurveto
          11 18 10 9 9 vvcurveto
          4 -1 3 -6 -14 -25 -20 -25 -19 vhcurveto
          -64 -84 -17 -93 -98 vvcurveto
          -107 42 -100 122 171 68 185 136 162 -74 72 -77 -46 -44 -17 -24 -3 2 -7 6 vhcurveto
          13 13 5 26 hhcurveto
          hintmask 11101000
          76 27 -132 -86 -104 -27 -138 -111 hvcurveto
          endchar
        </CharString>
      <CharString index="0">
        -102 callsubr
        -100 callgsubr
        return
      </CharString>
      <CharString index="1">
        42 57 111 52 hvcurveto
        40 callsubr
        return
      </CharString>
      <CharString index="2">
        21 223 -92 callgsubr
        -102 callgsubr
        return
      </CharString>
      <CharString index="3">
        -104 callsubr
        40 42 57 111 52 hvcurveto
        -69 callsubr
        return
      </CharString>
      <CharString index="4">
        rmoveto
        -1 5 -17 6 -8 5 -42 27 -7 41 -6 33 rrcurveto
        8 -1 -6 8 -7 hhcurveto
        -9 -33 -17 -12 -2 hvcurveto
        -5 -28 4 -22 -62 -43 rrcurveto
        -6 -4 -13 -3 -6 vvcurveto
        -7 1 7 -2 7 hhcurveto
        13 58 20 40 18 hvcurveto
        return
      </CharString>
      <CharString index="5">
        154 -78 111 -134 -126 -61 -66 -80 -15 vhcurveto
        -66 -60 -33 -95 -86 vvcurveto
        422 -36 rmoveto
        -155 -119 114 133 -11 hvcurveto
        37 38 51 21 57 -16 callsubr
        -44 -38 -11 -18 -32 hvcurveto
        47 21 55 25 43 hhcurveto
        116 55 -136 -146 -35 -4 -34 -9 -31 hvcurveto
        -178 -146 rmoveto
        -98 -76 101 121 45 10 40 18 34 hvcurveto
        -138 22 133 -90 158 hhcurveto
        -67 -28 -53 -46 -86 hhcurveto
        return
      </CharString>
      <CharString index="6">
        -12 -24 -11 -24 -9 -21 rrcurveto
        -90 callsubr
        -84 callsubr
        -4 5 28 -6 callgsubr
        return
      </CharString>
      <CharString index="7">
        27 20 16 19 27 vvcurveto
        32 -18 14 -18 -8 -34 -15 -9 vhcurveto
        -9 10 -3 -15 vvcurveto
        return
      </CharString>
      <CharString index="8">
        22 -15 -8 45 -20 hhcurveto
        -6 -32 -26 -16 -27 21 -25 29 -20 hvcurveto
        -21 30 45 -12 18 hhcurveto
        8 11 4 11 5 -1 6 -12 6 hvcurveto
        -28 14 -24 10 -16 24 rrcurveto
        endchar
      </CharString>
      <CharString index="9">
        -101 callsubr
        endchar
      </CharString>
      <CharString index="10">
        243 313 rmoveto
        2 79 10 69 7 77 rrcurveto
        91 114 -52 -140 -50 -22 -51 -40 -30 hvcurveto
        17 -22 -20 14 -33 hhcurveto
        -54 -19 -21 -25 -1 hvcurveto
        -24 35 -19 42 18 19 3 6 18 vhcurveto
        18 -42 8 -54 8 -32 rrcurveto
        -122 31 17 -34 52 hhcurveto
        32 45 31 36 1 hvcurveto
        9 -5 7 -11 vhcurveto
        -9 -15 -8 -9 hhcurveto
        -14 -26 54 54 -17 hvcurveto
        -13 39 -19 47 -28 35 rrcurveto
        62 39 46 71 76 vvcurveto
        170 -148 38 -99 -10 -10 0 -2 -11 vhcurveto
        1 9 1 9 7 vvcurveto
        return
      </CharString>
      <CharString index="11">
        108 23 107 2 116 vhcurveto
        24 -2 35 -34 -45 -48 -54 -45 -25 vhcurveto
        -9 -17 -9 -25 -16 vvcurveto
        -9 2 -7 10 10 12 13 15 2 vhcurveto
        75 11 38 21 15 hhcurveto
        4 3 -3 -11 hvcurveto
        return
      </CharString>
      <CharString index="12">
        439 570 rmoveto
        -83 callsubr
        -2 -54 0 -39 -40 vvcurveto
        -147 -5 -189 -34 callsubr
        return
      </CharString>
      <CharString index="13">
        vvcurveto
        -79 61 -14 32 107 30 67 163 7 vhcurveto
        2 53 3 53 3 56 57 71 55 73 14 21 rrcurveto
        3 5 1 4 4 vvcurveto
        4 -3 6 -7 -4 -3 -2 -3 -3 vhcurveto
        -15 -16 -43 -56 -48 -61 return
      </CharString>
      <CharString index="14">
        47 -93 callsubr
        return
      </CharString>
      <CharString index="15">
        rmoveto
        -134 72 -99 138 129 90 71 103 47 vhcurveto
        43 11 34 19 29 19 rrcurveto
        18 12 23 19 7 vvcurveto
        8 -3 5 -8 -5 -13 -11 -8 -12 vhcurveto
        -29 -19 -31 -16 -32 -11 rrcurveto
        15 45 8 50 51 vvcurveto
        return
      </CharString>
      <CharString index="16">
        -115 -81 -82 -101 -96 vvcurveto
        -87 78 -6 32 138 23 100 284 vhcurveto
        29 19 20 9 29 9 rrcurveto
        5 2 7 4 7 vvcurveto
        6 -6 3 -6 -24 -25 -9 -14 -27 vhcurveto
        3 83 6 89 8 55 rrcurveto
        -9 callgsubr
        -52 -43 -10 -2 vhcurveto
        -15 -83 -6 -87 -10 -111 rrcurveto
        -89 -31 -80 -127 -54 hhcurveto
        return
      </CharString>
      <CharString index="17">
        rmoveto
        -26 27 -9 13 31 20 17 34 18 -18 13 -18 -18 -37 17 callgsubr
        return
      </CharString>
      <CharString index="18">
        -80 callgsubr
        -4 5 return
      </CharString>
      <CharString index="19">
        122 -5 rmoveto
        105 53 67 callsubr
        hvcurveto
        -85 callgsubr
        vhcurveto
        35 212 rmoveto
        -27 -28 -38 -8 -23 -4 rrcurveto
        return
      </CharString>
      <CharString index="20">
        25 callsubr
        73 5 67 88 81 -66 66 -53 79 -79 148 hintmask 11111000
        78 361 rmoveto
        -36 callgsubr
        68 23 59 10 vhcurveto
        -21 -316 rlineto
        -165 -108 -86 -100 -120 vvcurveto
        -75 47 -90 90 107 61 86 156 9 vhcurveto
        6 117 1 56 3 81 38 23 56 27 40 13 rrcurveto
        6 2 6 6 9 vvcurveto
        5 -6 2 -7 -30 -68 -29 -19 -34 vhcurveto
        hintmask 11110010
        3 78 7 114 5 95 rrcurveto
        hintmask 11110001
        36 10 33 18 40 vvcurveto
        8 callsubr
        -48 -32 -60 -8 vhcurveto
        -116 -25 -81 -54 -84 vvcurveto
        hintmask 11111000
        155 -468 rmoveto
        -146 -11 -30 -31 -41 hhcurveto
        -64 -14 96 62 hvcurveto
        hintmask 11110100
        122 87 67 88 62 vhcurveto
        hintmask 11111000
        -6 -87 -2 -56 -7 -89 rrcurveto
        135 689 -88 callsubr
        return
      </CharString>
      <CharString index="21">
        -57 60 62 73 98 93 47 vhcurveto
        -3 -41 -3 -48 -2 -46 rrcurveto
        -91 callgsubr
        return
      </CharString>
      <CharString index="22">
        -81 callgsubr
        -27 callsubr
        return
      </CharString>
      <CharString index="23">
        -20 hstem
        6 66 127 55 vstem
        -98 callsubr
        return
      </CharString>
      <CharString index="24">
        12 28 7 41 43 callgsubr
        5 -13 -21 -49 -45 -33 callsubr
        -83 -52 -6 -13 -47 vvcurveto
        -61 return
      </CharString>
      <CharString index="25">
        -97 callsubr
        39 -106 callgsubr
        return
      </CharString>
      <CharString index="26">
        -70 callgsubr
        -74 hhcurveto
        -47 -31 48 48 -5 hvcurveto
        96 2 78 60 81 vvcurveto
        return
      </CharString>
      <CharString index="27">
        vvcurveto
        -23 1 -27 6 -6 vhcurveto
        return
      </CharString>
      <CharString index="28">
        -20 hstemhm
        6 73 129 62 -62 81 hintmask 11110000
        -16 callgsubr
        hintmask 11101000
        -92 callsubr
        return
      </CharString>
      <CharString index="29">
        -9 -12 -31 -29 -13 return
      </CharString>
      <CharString index="30">
        36 10 32 18 40 -77 callsubr
        return
      </CharString>
      <CharString index="31">
        -72 callgsubr
        -40 -12 -38 vhcurveto
        return
      </CharString>
      <CharString index="32">
        -26 callgsubr
        53 61 71 79 46 vhcurveto
        -3 -39 -2 -31 -25 -8 callsubr
        27 -11 33 hhcurveto
        return
      </CharString>
      <CharString index="33">
        24 36 -25 -20 11 hvcurveto
        -2 -17 -1 -19 -2 -21 rrcurveto
        -114 -44 -29 -51 -43 callgsubr
        return
      </CharString>
      <CharString index="34">
        -96 callgsubr
        113 -721 -24 callsubr
        return
      </CharString>
      <CharString index="35">
        -29 28 -9 15 33 21 18 37 19 -18 14 -20 -19 return
      </CharString>
      <CharString index="36">
        -20 -73 41 -37 hhcurveto
        -30 -20 -41 -24 -12 7 -7 10 hvcurveto
        15 -1 28 14 return
      </CharString>
      <CharString index="37">
        13 26 16 46 -93 callsubr
        -10 -9 -32 -28 -14 vhcurveto
        25 callgsubr
        return
      </CharString>
      <CharString index="38">
        142 -5 rmoveto
        39 -103 callsubr
        -22 -1 rrcurveto
        -6 0 15 12 hvcurveto
        hintmask 11100100
        -29 callgsubr
        return
      </CharString>
      <CharString index="39">
        -81 callsubr
        endchar
      </CharString>
      <CharString index="40">
        30 20 17 34 18 -17 13 -18 -18 -38 -12 -35 return
      </CharString>
      <CharString index="41">
        vvcurveto
        15 -2 23 -13 -21 return
      </CharString>
      <CharString index="42">
        38 -56 -85 70 -103 hhcurveto
        -31 -23 -37 -60 -40 21 -59 15 9 3 5 7 hvcurveto
        11 -12 28 22 vvcurveto
        29 7 14 18 59 78 -40 -33 58 vhcurveto
        -94 -107 -106 -168 -41 -70 rrcurveto
        -39 -17 -29 -47 -20 vvcurveto
        -25 16 -13 27 14 20 14 47 24 vhcurveto
        return
      </CharString>
      <CharString index="43">
        31 312 rmoveto
        -1 -8 -7 -130 -7 -136 -78 callsubr
        -18 -321 rmoveto
        -53 callgsubr
        return
      </CharString>
      <CharString index="44">
        -113 -30 -109 -122 vvcurveto
        -121 38 -86 callgsubr
        -35 -17 41 99 hvcurveto
        return
      </CharString>
      <CharString index="45">
        -19 12 -9 17 27 19 20 30 51 -55 45 -75 -111 -91 -79 -102 -39 18 -31 29 -24 vhcurveto
        return
      </CharString>
      <CharString index="46">
        -16 13 -8 15 10 33 3 23 10 vhcurveto
        12 27 8 46 34 return
      </CharString>
      <CharString index="47">
        -57 28 35 -14 24 hhcurveto
        8 22 14 8 hvcurveto
        return
      </CharString>
      <CharString index="48">
        -17 -129 -45 -160 -52 -55 -20 callgsubr
        193 74 rmoveto
        24 1 28 4 29 vhcurveto
        14 -44 9 -45 -32 vvcurveto
        -6 -3 -27 -9 -8 -8 31 42 vhcurveto
        return
      </CharString>
      <CharString index="49">
        rmoveto
        -76 callgsubr
        return
      </CharString>
      <CharString index="50">
        2 -22 -20 3 -15 hhcurveto
        -17 -11 -10 -17 -22 15 -8 20 return
      </CharString>
      <CharString index="51">
        36 292 rmoveto
        48 13 -80 -49 2 hvcurveto
        -12 hlineto
        -44 -41 32 51 19 10 27 24 hvcurveto
        return
      </CharString>
      <CharString index="52">
        -30 callgsubr
        67 -17 45 -16 42 callgsubr
        vhcurveto
        -59 callgsubr
        return
      </CharString>
      <CharString index="53">
        vvcurveto
        -36 callgsubr
        69 24 59 10 vhcurveto
        return
      </CharString>
      <CharString index="54">
        -22 callsubr
        -22 callgsubr
        return
      </CharString>
      <CharString index="55">
        23 callgsubr
        52 -70 callsubr
        return
      </CharString>
      <CharString index="56">
        rmoveto
        -83 -72 -39 -75 -16 vhcurveto
        111 17 31 78 62 hhcurveto
        29 8 -26 -25 hvcurveto
        -363 -418 rmoveto
        11 26 -10 -15 35 hvcurveto
        -14 -12 -14 -9 -18 hhcurveto
        -22 -19 17 15 8 2 8 11 hvcurveto
        return
      </CharString>
      <CharString index="57">
        7 18 hvcurveto
        -52 callgsubr
        return
      </CharString>
      <CharString index="58">
        rmoveto
        44 -26 30 -51 7 -40 rrcurveto
        -8 1 6 -8 7 hhcurveto
        9 32 17 12 3 hvcurveto
        8 35 16 24 14 14 rrcurveto
        9 9 30 19 5 vvcurveto
        6 -3 3 -7 -21 -63 -39 -46 -11 vhcurveto
        return
      </CharString>
      <CharString index="59">
        379 246 rmoveto
        -13 -8 -25 -12 -28 -9 rrcurveto
        90 -2 -52 58 -57 hhcurveto
        return
      </CharString>
      <CharString index="60">
        53 -11 callsubr
        -10 -12 -29 -28 -14 vhcurveto
        return
      </CharString>
      <CharString index="61">
        -70 callsubr
        -39 -45 -8 -5 vhcurveto
        -3 -4 -5 -48 -5 return
      </CharString>
      <CharString index="62">
        0 -46 hhcurveto
        -93 -24 -49 callsubr
        26 4 37 return
      </CharString>
      <CharString index="63">
        13 22 1 18 11 vvcurveto
        26 -21 34 -33 -19 -15 -26 -39 -25 17 -29 27 -11 vhcurveto
        -7 17 11 -3 21 hhcurveto
        return
      </CharString>
      <CharString index="64">
        -24 hhcurveto
        -37 -23 19 callsubr
        53 31 hvcurveto
        return
      </CharString>
      <CharString index="65">
        vvcurveto
        -36 29 -20 28 33 40 34 28 7 -2 6 -5 vhcurveto
        -7 -14 -27 -19 hhcurveto
        return
      </CharString>
      <CharString index="66">
        hvcurveto
        21 40 23 77 15 129 rrcurveto
        100 22 111 54 109 vvcurveto
        30 -19 28 -61 vhcurveto
        19 -76 -51 callgsubr
        return
      </CharString>
      <CharString index="67">
        15 callsubr
        hintmask 10010000
        2 callgsubr
        hintmask 11000000
        -68 callgsubr
      </CharString>
      <CharString index="68">
        -6 0 15 12 return
      </CharString>
      <CharString index="69">
        119 376 rmoveto
        -51 -68 -47 -85 -52 39 -30 30 -34 hvcurveto
        -38 -37 -28 -35 -23 vvcurveto
        -26 11 -17 37 56 44 42 49 30 -9 22 -13 19 vhcurveto
        45 38 51 35 25 16 rrcurveto
        8 5 1 6 6 vvcurveto
        6 -4 5 -6 -1 -5 -1 -2 -3 vhcurveto
        -22 -16 -52 -38 -50 -42 rrcurveto
        return
      </CharString>
      <CharString index="70">
        -39 callsubr
        -22 -1 rrcurveto
        -39 callgsubr
        return
      </CharString>
      <CharString index="71">
        -33 callgsubr
        76 return
      </CharString>
      <CharString index="72">
        -20 hstem
        76 10 rmoveto
        5 11 20 23 23 hvcurveto
        44 45 76 48 9 hhcurveto
        11 10 11 15 16 -15 6 -13 7 hvcurveto
        28 -53 -67 108 -15 hhcurveto
        -9 -17 -25 -22 -17 42 -63 81 -44 hvcurveto
        -54 -34 -35 -24 -25 -22 rrcurveto
        -18 -16 -8 -17 -16 vvcurveto
        -13 7 -13 9 vhcurveto
        return
      </CharString>
      <CharString index="73">
        vlineto
        -61 -11 -88 -32 vvcurveto
        -16 41 24 callsubr
        return
      </CharString>
      <CharString index="74">
        -22 11 -12 19 20 17 19 34 return
      </CharString>
      <CharString index="75">
        hhcurveto
        -103 -62 -103 -104 -112 return
      </CharString>
      <CharString index="76">
        267 10 callsubr
        -82 -45 callgsubr
        hhcurveto
        hintmask 01100000
        55 76 -13 callgsubr
      </CharString>
      <CharString index="77">
        -8 5 -6 10 18 12 29 28 27 -20 31 -35 -46 -44 -26 -42 -33 vhcurveto
        -39 -50 -28 -60 -19 -63 -20 33 -28 39 -33 42 rrcurveto
        return
      </CharString>
      <CharString index="78">
        71 13 64 -18 callsubr
        -5 1 2 -3 hvcurveto
        return
      </CharString>
      <CharString index="79">
        73 3 33 83 49 hhcurveto
        20 9 -19 -22 -40 -11 -20 -15 -15 hvcurveto
        return
      </CharString>
      <CharString index="80">
        6 -8 5 -19 -26 -22 -25 -37 -65 return
      </CharString>
      <CharString index="81">
        -113 -30 -109 -122 vvcurveto
        -121 38 -57 60 return
      </CharString>
      <CharString index="82">
        68 23 20 59 36 hvcurveto
        19 31 66 141 27 vvcurveto
        6 -3 1 -3 -10 -16 -31 -26 -12 vhcurveto
        -54 -25 -44 -89 -54 hhcurveto
        return
      </CharString>
      <CharString index="83">
        81 -5 51 149 47 -10 -20 277 91 return
      </CharString>
      <CharString index="84">
        -21 callgsubr
        49 callsubr
        -42 callsubr
        return
      </CharString>
      <CharString index="85">
        -28 -17 34 44 57 41 61 73 79 hvcurveto
        return
      </CharString>
      <CharString index="86">
        416 46 rmoveto
        -6 -44 callsubr
        return
      </CharString>
      <CharString index="87">
        rrcurveto
        -17 -18 -60 12 -49 vvcurveto
        -22 19 -5 16 33 32 22 24 18 vhcurveto
        return
      </CharString>
      <CharString index="88">
        22 callsubr
        -26 -27 -7 -12 -27 hvcurveto
        return
      </CharString>
      <CharString index="89">
        -93 callgsubr
        -78 callgsubr
        vhcurveto
        return
      </CharString>
      <CharString index="90">
        -29 -13 vhcurveto
        return
      </CharString>
      <CharString index="91">
        419 260 rmoveto
        -78 callgsubr
        hvcurveto
        -37 callgsubr
        hvcurveto
        return
      </CharString>
      <CharString index="92">
        23 32 49 9 69 6 37 hvcurveto
        return
      </CharString>
      <CharString index="93">
        291 289 rmoveto
        49 -31 17 -37 -57 -59 -102 -76 -21 vhcurveto
        7 181 28 118 2 77 rrcurveto
        15 -3 32 -13 -21 -42 -43 -10 -3 vhcurveto
        -16 -85 -6 -115 -2 -112 rrcurveto
        return
      </CharString>
      <CharString index="94">
        -9 31 hhcurveto
        52 31 20 49 2 hvcurveto
        endchar
      </CharString>
      <CharString index="95">
        -89 -50 85 72 37 20 51 33 34 hvcurveto
        return
      </CharString>
      <CharString index="96">
        rmoveto
        2 callsubr
        -10 return
      </CharString>
      <CharString index="97">
        rmoveto
        14 5 -3 -11 -14 -15 -4 -15 -7 -9 3 6 -11 hvcurveto
        15 16 13 8 9 hhcurveto
        return
      </CharString>
      <CharString index="98">
        26 104 18 52 70 72 callgsubr
        32 -13 -21 return
      </CharString>
      <CharString index="99">
        hmoveto
        -26 26 -9 15 return
      </CharString>
      <CharString index="100">
        -79 -37 49 38 -1 hvcurveto
        34 callsubr
        -4 -21 13 -20 hhcurveto
        -59 -26 -47 -37 -87 95 -32 87 107 121 65 126 hvcurveto
        return
      </CharString>
      <CharString index="101">
        -12 33 hhcurveto
        return
      </CharString>
      <CharString index="102">
        -10 1 8 -5 12 hhcurveto
        30 15 26 30 hvcurveto
        60 -1 -75 21 -54 hhcurveto
        -90 -98 -53 -94 hvcurveto
        -138 261 -5 -132 vvcurveto
        -72 -61 -58 -74 vhcurveto
        return
      </CharString>
      <CharString index="103">
        -14 -3 -33 -24 hhcurveto
        endchar
      </CharString>
      <CharString index="104">
        44 19 110 79 vvcurveto
        29 -28 20 -24 return
      </CharString>
      <CharString index="105">
        -60 callgsubr
        endchar
      </CharString>
      <CharString index="106">
        -28 3 -35 16 1 callgsubr
        vhcurveto
        return
      </CharString>
      <CharString index="107">
        -20 51 callgsubr
        126 74 -74 138 return
      </CharString>
      <CharString index="108">
        41 20 38 39 18 -6 12 -21 -16 -37 -17 -27 return
      </CharString>
      <CharString index="109">
        -23 26 -8 -22 vvcurveto
        return
      </CharString>
      <CharString index="110">
        -13 -35 -32 -13 hvcurveto
        return
      </CharString>
      <CharString index="111">
        15 -3 4 -13 -21 -49 -44 -33 callsubr
        -24 vvcurveto
        -59 -34 callgsubr
        return
      </CharString>
      <CharString index="112">
        -6 -4 -2 -5 -11 -7 vhcurveto
        -19 -12 -14 -10 -12 hhcurveto
        -11 -36 13 7 -34 hvcurveto
        67 69 45 16 71 vvcurveto
        46 -33 29 -40 vhcurveto
        return
      </CharString>
      <CharString index="113">
        48 28 64 50 55 -43 42 -64 -158 -147 -146 -241 return
      </CharString>
      <CharString index="114">
        hhcurveto
        106 53 67 callsubr
        hvcurveto
        -70 callgsubr
        -75 hhcurveto
        return
      </CharString>
      <CharString index="115">
        hhcurveto
        -14 -16 -26 -16 -12 6 -8 15 hvcurveto
        10 return
      </CharString>
      <CharString index="116">
        hstemhm
        hintmask 10101000
        441 521 -10 callgsubr
        return
      </CharString>
      <CharString index="117">
        6 callgsubr
        -83 57 -120 122 131 77 81 54 37 return
      </CharString>
      <CharString index="118">
        164 -118 7 callsubr
        return
      </CharString>
      <CharString index="119">
        -13 -8 vvcurveto
        -26 18 -13 28 return
      </CharString>
      <CharString index="120">
        -75 -332 rmoveto
        17 16 24 24 24 vhcurveto
        10 -15 8 -16 1 -20 rrcurveto
        -15 -12 -23 -22 -17 -8 7 17 vhcurveto
        return
      </CharString>
      <CharString index="121">
        -51 101 88 137 93 172 104 68 8 -45 -26 hvcurveto
        return
      </CharString>
      <CharString index="122">
        53 -41 -21 80 -20 hstemhm
        hintmask 01100000
        return
      </CharString>
      <CharString index="123">
        -37 -5 53 267 40 return
      </CharString>
      <CharString index="124">
        -12 -35 vhcurveto
        return
      </CharString>
      <CharString index="125">
        555 rmoveto
        143 96 -115 -134 -139 -110 -105 -125 -15 -14 1 2 -13 hvcurveto
        2 return
      </CharString>
      <CharString index="126">
        91 48 rmoveto
        -11 -8 -15 callgsubr
        return
      </CharString>
      <CharString index="127">
        -4 3 -6 -7 return
      </CharString>
      <CharString index="128">
        35 28 31 28 hvcurveto
        11 12 2 6 7 vvcurveto
        5 -3 4 -4 -8 -7 -9 -9 -9 vhcurveto
        -19 -19 return
      </CharString>
      <CharString index="129">
        -320 36 279 return
      </CharString>
      <CharString index="130">
        11 20 7 return
      </CharString>
      <CharString index="131">
        -1 rrcurveto
        -39 callgsubr
        79 return
      </CharString>
      <CharString index="132">
        -62 -31 -50 -91 return
      </CharString>
      <CharString index="133">
        rrcurveto
        8 -31 -27 5 -20 hhcurveto
        -37 -28 -14 35 callgsubr
        hvcurveto
        return
      </CharString>
      <CharString index="134">
        307 326 rmoveto
        -116 -8 -175 -91 -51 -21 32 -12 callsubr
        return
      </CharString>
      <CharString index="135">
        -11 callgsubr
        -4 -4 -9 vhcurveto
        return
      </CharString>
      <CharString index="136">
        15 -16 24 -20 -25 -23 -18 -26 return
      </CharString>
      <CharString index="137">
        rmoveto
        -72 callgsubr
        -38 -12 -38 -2 vhcurveto
        return
      </CharString>
      <CharString index="138">
        hhcurveto
        29 6 29 18 5 -2 3 -6 -8 -10 -6 -2 -15 hvcurveto
        -1 -10 -26 -2 return
      </CharString>
      <CharString index="139" raw="1">
        9c1d0e   
      </CharString>
      <CharString index="140">
        4 -34 -5 1 -21 hhcurveto
        -42 -29 -5 -24 -15 5 -12 39 hvcurveto
        28 8 7 return
      </CharString>
      <CharString index="141">
        -24 callgsubr
        190 -20 67 callgsubr
        return
      </CharString>
      <CharString index="142">
        -43 -35 31 -29 35 46 34 17 23 22 return
      </CharString>
      <CharString index="143">
        hhcurveto
        -35 -17 41 99 hvcurveto
        return
      </CharString>
      <CharString index="144">
        138 rmoveto
        29 14 50 23 6 -2 4 -3 -8 -9 -9 -6 -13 hvcurveto
        return
      </CharString>
      <CharString index="145">
        41 29 81 146 return
      </CharString>
      <CharString index="146">
        70 hintmask 11101000
        19 callgsubr
        return
      </CharString>
      <CharString index="147">
        -12 -4 -8 -10 -17 36 -8 17 37 36 32 41 hvcurveto
        41 -48 10 return
      </CharString>
      <CharString index="148">
        -17 -8 7 -6 12 vhcurveto
        14 3 6 4 hhcurveto
        3 21 -14 -40 -47 return
      </CharString>
      <CharString index="149">
        -33 -21 -74 -23 -27 17 -23 26 -27 return
      </CharString>
      <CharString index="150">
        18 72 callgsubr
        return
      </CharString>
      <CharString index="151">
        -86 -68 vvcurveto
        -13 0 -38 8 -11 vhcurveto
        -7 5 27 -8 33 hhcurveto
        return
      </CharString>
      <CharString index="152">
        28 37 26 -18 26 -31 hvcurveto
        -1 -30 rmoveto
        12 9 -13 -14 hvcurveto
        return
      </CharString>
      <CharString index="153">
        37 72 33 hhcurveto
        39 22 -58 -63 -102 -60 -48 -31 hvcurveto
        endchar
      </CharString>
      <CharString index="154">
        -29 -21 -26 -27 -12 7 -11 11 11 12 7 22 10 hvcurveto
        return
      </CharString>
      <CharString index="155">
        31 vvcurveto
        22 -3 19 -10 -21 -25 -29 -24 -4 vhcurveto
        -6 -36 return
      </CharString>
      <CharString index="156">
        hstemhm
        0 69 114 60 return
      </CharString>
      <CharString index="157">
        -10 77 157 122 return
      </CharString>
      <CharString index="158">
        hstemhm
        27 63 18 67 return
      </CharString>
      <CharString index="159">
        -43 callgsubr
        endchar
      </CharString>
      <CharString index="160">
        -1 -64 -15 -120 -1 -32 rrcurveto
        -16 38 -8 27 return
      </CharString>
      <CharString index="161">
        155 -256 10 100 vvcurveto
        47 45 46 54 vhcurveto
        return
      </CharString>
      <CharString index="162">
        rrcurveto
        1 7 7 0 7 hhcurveto
        return
      </CharString>
      <CharString index="163">
        76 callgsubr
        97 64 return
      </CharString>
      <CharString index="164">
        152 -30 hhcurveto
        return
      </CharString>
      <CharString index="165">
        74 callgsubr
        227 75 return
      </CharString>
      <CharString index="166">
        vstem
        73 -5 rmoveto
        39 42 57 111 52 hvcurveto
        return
      </CharString>
      <CharString index="167">
        20 22 42 22 hvcurveto
        endchar
      </CharString>
      <CharString index="168">
        -81 -21 720 -20 return
      </CharString>
      <CharString index="169">
        -32 1 37 -29 hhcurveto
        -9 -6 -10 -9 -20 return
      </CharString>
      <CharString index="170">
        76 47 17 19 19 9 -6 10 -11 hvcurveto
        return
      </CharString>
      <CharString index="171">
        15 -5 16 -12 -17 -5 -25 -18 -1 vhcurveto
        return
      </CharString>
      <CharString index="172">
        324 211 -37 37 return
      </CharString>
      <CharString index="173">
        25 callgsubr
        -74 hhcurveto
        return
      </CharString>
      <CharString index="174">
        hstemhm
        308 71 return
      </CharString>
      <CharString index="175">
        -21 -9 -16 -16 -11 8 -31 15 hvcurveto
        return
      </CharString>
      <CharString index="176">
        -28 -1 -22 -35 hhcurveto
        -27 -50 36 57 return
      </CharString>
      <CharString index="177">
        -5 49 124 39 120 38 hstem
        return
      </CharString>
      <CharString index="178">
        hhcurveto
        -14 -12 -20 -13 -9 5 -7 15 return
      </CharString>
      <CharString index="179">
        vvcurveto
        15 -3 return
      </CharString>
      <CharString index="180">
        vvcurveto
        -22 8 -18 14 55 2 29 return
      </CharString>
      <CharString index="181">
        hstemhm
        0 67 55 118 -76 76 return
      </CharString>
      <CharString index="182">
        hstemhm
        148 87 45 31 28 70 return
      </CharString>
      <CharString index="183">
        hstemhm
        0 70 32 50 return
      </CharString>
      <CharString index="184">
        -114 190 return
      </CharString>
      <CharString index="185">
        -18 -13 13 23 return
      </CharString>
</ttFont>
